solid OpenSCAD_Model
  facet normal 0.999229 0.039273 0
    outer loop
      vertex 22.7 0 1
      vertex 22.63 1.78102 0
      vertex 22.63 1.78102 1
    endloop
  endfacet
  facet normal 0.999229 0.039273 0
    outer loop
      vertex 22.63 1.78102 0
      vertex 22.7 0 1
      vertex 22.7 0 0
    endloop
  endfacet
  facet normal -0.999229 0.039273 0
    outer loop
      vertex -22.7 0 0
      vertex -22.63 1.78102 1
      vertex -22.63 1.78102 0
    endloop
  endfacet
  facet normal -0.999229 0.039273 0
    outer loop
      vertex -22.63 1.78102 1
      vertex -22.7 0 0
      vertex -22.7 0 1
    endloop
  endfacet
  facet normal 0.039273 0.999229 -0
    outer loop
      vertex 1.78102 22.63 0
      vertex 0 22.7 1
      vertex 1.78102 22.63 1
    endloop
  endfacet
  facet normal 0.039273 0.999229 0
    outer loop
      vertex 0 22.7 1
      vertex 1.78102 22.63 0
      vertex 0 22.7 0
    endloop
  endfacet
  facet normal 0.734307 0.678818 0
    outer loop
      vertex 17.2612 14.7425 1
      vertex 16.8 15.2414 0
      vertex 16.8 15.2414 1
    endloop
  endfacet
  facet normal 0.734307 0.678818 0
    outer loop
      vertex 16.8 15.2414 0
      vertex 17.2612 14.7425 1
      vertex 17.2612 14.7425 0
    endloop
  endfacet
  facet normal -0.34614 0.938183 0
    outer loop
      vertex -7.01469 21.589 0
      vertex -7.798 21.3 1
      vertex -7.01469 21.589 1
    endloop
  endfacet
  facet normal -0.34614 0.938183 0
    outer loop
      vertex -7.798 21.3 1
      vertex -7.01469 21.589 0
      vertex -7.798 21.3 0
    endloop
  endfacet
  facet normal 0.938194 0.34611 0
    outer loop
      vertex 21.589 7.01469 1
      vertex 20.9721 8.68691 0
      vertex 20.9721 8.68691 1
    endloop
  endfacet
  facet normal 0.938194 0.34611 0
    outer loop
      vertex 20.9721 8.68691 0
      vertex 21.589 7.01469 1
      vertex 21.589 7.01469 0
    endloop
  endfacet
  facet normal -0.908127 0.418694 0
    outer loop
      vertex -20.9721 8.68691 0
      vertex -20.2258 10.3056 1
      vertex -20.2258 10.3056 0
    endloop
  endfacet
  facet normal -0.908127 0.418694 0
    outer loop
      vertex -20.2258 10.3056 1
      vertex -20.9721 8.68691 0
      vertex -20.9721 8.68691 1
    endloop
  endfacet
  facet normal -0.195075 0.980788 0
    outer loop
      vertex -3.55106 22.4205 0
      vertex -5.29921 22.0728 1
      vertex -3.55106 22.4205 1
    endloop
  endfacet
  facet normal -0.195075 0.980788 0
    outer loop
      vertex -5.29921 22.0728 1
      vertex -3.55106 22.4205 0
      vertex -5.29921 22.0728 0
    endloop
  endfacet
  facet normal 0.938194 -0.34611 0
    outer loop
      vertex 20.9721 -8.68691 1
      vertex 21.589 -7.01469 0
      vertex 21.589 -7.01469 1
    endloop
  endfacet
  facet normal 0.938194 -0.34611 0
    outer loop
      vertex 21.589 -7.01469 0
      vertex 20.9721 -8.68691 1
      vertex 20.9721 -8.68691 0
    endloop
  endfacet
  facet normal 0 0 -1
    outer loop
      vertex -20.2258 -10.3056 0
      vertex -4.56773 -2.03368 0
      vertex -19.3549 -11.8607 0
    endloop
  endfacet
  facet normal 0 0 -1
    outer loop
      vertex -20.9721 -8.68691 0
      vertex -4.56773 -2.03368 0
      vertex -20.2258 -10.3056 0
    endloop
  endfacet
  facet normal 0 -0 -1
    outer loop
      vertex -17.2612 14.7425 0
      vertex -5 0 0
      vertex -18.3647 13.3427 0
    endloop
  endfacet
  facet normal 0 0 -1
    outer loop
      vertex -5 0 0
      vertex -17.2612 14.7425 0
      vertex -16.8 15.2414 0
    endloop
  endfacet
  facet normal 0 0 -1
    outer loop
      vertex -21.589 -7.01469 0
      vertex -4.56773 -2.03368 0
      vertex -20.9721 -8.68691 0
    endloop
  endfacet
  facet normal 0 0 -1
    outer loop
      vertex -5 0 0
      vertex -19.3549 11.8607 0
      vertex -18.3647 13.3427 0
    endloop
  endfacet
  facet normal -0 0 -1
    outer loop
      vertex -4.56773 -2.03368 0
      vertex -21.589 -7.01469 0
      vertex -4.89074 -1.03956 0
    endloop
  endfacet
  facet normal 0 0 -1
    outer loop
      vertex -5 0 0
      vertex -20.2258 10.3056 0
      vertex -19.3549 11.8607 0
    endloop
  endfacet
  facet normal 0 0 -1
    outer loop
      vertex -22.0728 -5.29921 0
      vertex -4.89074 -1.03956 0
      vertex -21.589 -7.01469 0
    endloop
  endfacet
  facet normal 0 0 -1
    outer loop
      vertex -5 0 0
      vertex -20.9721 8.68691 0
      vertex -20.2258 10.3056 0
    endloop
  endfacet
  facet normal 0 0 -1
    outer loop
      vertex -22.4205 -3.55106 0
      vertex -4.89074 -1.03956 0
      vertex -22.0728 -5.29921 0
    endloop
  endfacet
  facet normal 0 0 -1
    outer loop
      vertex -5 0 0
      vertex -21.589 7.01469 0
      vertex -20.9721 8.68691 0
    endloop
  endfacet
  facet normal 0 0 -1
    outer loop
      vertex -22.63 -1.78102 0
      vertex -4.89074 -1.03956 0
      vertex -22.4205 -3.55106 0
    endloop
  endfacet
  facet normal 0 0 -1
    outer loop
      vertex -5 0 0
      vertex -22.0728 5.29921 0
      vertex -21.589 7.01469 0
    endloop
  endfacet
  facet normal -0 0 -1
    outer loop
      vertex -4.89074 -1.03956 0
      vertex -22.63 -1.78102 0
      vertex -5 0 0
    endloop
  endfacet
  facet normal 0 0 -1
    outer loop
      vertex -5 0 0
      vertex -22.4205 3.55106 0
      vertex -22.0728 5.29921 0
    endloop
  endfacet
  facet normal 0 0 -1
    outer loop
      vertex -22.7 0 0
      vertex -5 0 0
      vertex -22.63 -1.78102 0
    endloop
  endfacet
  facet normal 0 0 -1
    outer loop
      vertex -5 0 0
      vertex -22.63 1.78102 0
      vertex -22.4205 3.55106 0
    endloop
  endfacet
  facet normal 0 0 -1
    outer loop
      vertex -5 0 0
      vertex -22.7 0 0
      vertex -22.63 1.78102 0
    endloop
  endfacet
  facet normal 0 0 -1
    outer loop
      vertex -3.55106 -22.4205 0
      vertex -3.25 -16.5 0
      vertex -3.25 -22.4562 0
    endloop
  endfacet
  facet normal 0 0 -1
    outer loop
      vertex -5.29921 -22.0728 0
      vertex -3.25 -16.5 0
      vertex -3.55106 -22.4205 0
    endloop
  endfacet
  facet normal 0 0 -1
    outer loop
      vertex -7.01469 -21.589 0
      vertex -3.25 -16.5 0
      vertex -5.29921 -22.0728 0
    endloop
  endfacet
  facet normal 0 0 -1
    outer loop
      vertex -7.798 -21.3 0
      vertex -3.25 -16.5 0
      vertex -7.01469 -21.589 0
    endloop
  endfacet
  facet normal 0 0 -1
    outer loop
      vertex -16.8 -15.2414 0
      vertex -3.25 -16.5 0
      vertex -7.798 -21.3 0
    endloop
  endfacet
  facet normal 0 0 -1
    outer loop
      vertex -3.25 -16.5 0
      vertex -16.8 -15.2414 0
      vertex -3.34565 -3.71572 0
    endloop
  endfacet
  facet normal -0 0 -1
    outer loop
      vertex -3.34565 -3.71572 0
      vertex -16.8 -15.2414 0
      vertex -4.04508 -2.93893 0
    endloop
  endfacet
  facet normal 0 0 -1
    outer loop
      vertex 12 -21.3 0
      vertex 16.8 -15.2414 0
      vertex 16.8 -16.5 0
    endloop
  endfacet
  facet normal 0 0 -1
    outer loop
      vertex 16.8 -15.2414 0
      vertex 5 0 0
      vertex 16.8 15.2414 0
    endloop
  endfacet
  facet normal 0 0 -1
    outer loop
      vertex 12 -21.3 0
      vertex 16.8 -16.5 0
      vertex 16.7078 -17.4364 0
    endloop
  endfacet
  facet normal 0 0 -1
    outer loop
      vertex 4.89074 1.03956 0
      vertex 16.8 15.2414 0
      vertex 5 0 0
    endloop
  endfacet
  facet normal 0 0 -1
    outer loop
      vertex 12 -21.3 0
      vertex 16.7078 -17.4364 0
      vertex 16.4346 -18.3369 0
    endloop
  endfacet
  facet normal 0 0 -1
    outer loop
      vertex 4.56773 2.03368 0
      vertex 16.8 15.2414 0
      vertex 4.89074 1.03956 0
    endloop
  endfacet
  facet normal 0 0 -1
    outer loop
      vertex 12 -21.3 0
      vertex 16.4346 -18.3369 0
      vertex 15.9911 -19.1667 0
    endloop
  endfacet
  facet normal 0 0 -1
    outer loop
      vertex 4.04508 2.93893 0
      vertex 16.8 15.2414 0
      vertex 4.56773 2.03368 0
    endloop
  endfacet
  facet normal 0 0 -1
    outer loop
      vertex 12 -21.3 0
      vertex 15.9911 -19.1667 0
      vertex 15.3941 -19.8941 0
    endloop
  endfacet
  facet normal 0 0 -1
    outer loop
      vertex 3.34565 3.71572 0
      vertex 16.8 15.2414 0
      vertex 4.04508 2.93893 0
    endloop
  endfacet
  facet normal 0 0 -1
    outer loop
      vertex 12 -21.3 0
      vertex 15.3941 -19.8941 0
      vertex 14.6667 -20.4911 0
    endloop
  endfacet
  facet normal 0 0 -1
    outer loop
      vertex 2.5 4.33013 0
      vertex 16.8 15.2414 0
      vertex 3.34565 3.71572 0
    endloop
  endfacet
  facet normal 0 0 -1
    outer loop
      vertex 12 -21.3 0
      vertex 14.6667 -20.4911 0
      vertex 13.8369 -20.9346 0
    endloop
  endfacet
  facet normal -0 -0 -1
    outer loop
      vertex 12 21.3 0
      vertex 16.8 15.2414 0
      vertex 7.798 21.3 0
    endloop
  endfacet
  facet normal 0 0 -1
    outer loop
      vertex 12 -21.3 0
      vertex 13.8369 -20.9346 0
      vertex 12.9364 -21.2078 0
    endloop
  endfacet
  facet normal 0 0 -1
    outer loop
      vertex 16.8 15.2414 0
      vertex 12 21.3 0
      vertex 16.8 16.5 0
    endloop
  endfacet
  facet normal 0 0 -1
    outer loop
      vertex 16.8 -15.2414 0
      vertex 12 -21.3 0
      vertex 3.25 -16.5 0
    endloop
  endfacet
  facet normal 0 0 -1
    outer loop
      vertex 16.8 16.5 0
      vertex 12 21.3 0
      vertex 16.7078 17.4364 0
    endloop
  endfacet
  facet normal 0 0 -1
    outer loop
      vertex 3.25 -16.5 0
      vertex 12 -21.3 0
      vertex 7.798 -21.3 0
    endloop
  endfacet
  facet normal 0 0 -1
    outer loop
      vertex 16.7078 17.4364 0
      vertex 12 21.3 0
      vertex 16.4346 18.3369 0
    endloop
  endfacet
  facet normal 0 0 -1
    outer loop
      vertex 3.25 -16.5 0
      vertex 7.798 -21.3 0
      vertex 7.01469 -21.589 0
    endloop
  endfacet
  facet normal 0 0 -1
    outer loop
      vertex 15.9911 19.1667 0
      vertex 12 21.3 0
      vertex 15.3941 19.8941 0
    endloop
  endfacet
  facet normal 0 0 -1
    outer loop
      vertex 3.25 -16.5 0
      vertex 7.01469 -21.589 0
      vertex 5.29921 -22.0728 0
    endloop
  endfacet
  facet normal 0 0 -1
    outer loop
      vertex 15.3941 19.8941 0
      vertex 12 21.3 0
      vertex 14.6667 20.4911 0
    endloop
  endfacet
  facet normal 0 0 -1
    outer loop
      vertex 14.6667 20.4911 0
      vertex 12 21.3 0
      vertex 13.8369 20.9346 0
    endloop
  endfacet
  facet normal 0 0 -1
    outer loop
      vertex 16.8 -15.2414 0
      vertex 4.89074 -1.03956 0
      vertex 5 0 0
    endloop
  endfacet
  facet normal 0 0 -1
    outer loop
      vertex 16.8 -15.2414 0
      vertex 4.56773 -2.03368 0
      vertex 4.89074 -1.03956 0
    endloop
  endfacet
  facet normal -0 0 -1
    outer loop
      vertex 16.8 -15.2414 0
      vertex 3.25 -16.5 0
      vertex 3.34565 -3.71572 0
    endloop
  endfacet
  facet normal 0 0 -1
    outer loop
      vertex 3.25 -16.5 0
      vertex 5.29921 -22.0728 0
      vertex 3.55106 -22.4205 0
    endloop
  endfacet
  facet normal 0 0 -1
    outer loop
      vertex 16.8 -15.2414 0
      vertex 4.04508 -2.93893 0
      vertex 4.56773 -2.03368 0
    endloop
  endfacet
  facet normal 0 0 -1
    outer loop
      vertex 3.25 -16.5 0
      vertex 3.55106 -22.4205 0
      vertex 3.25 -22.4562 0
    endloop
  endfacet
  facet normal 0 0 -1
    outer loop
      vertex 16.8 -15.2414 0
      vertex 3.34565 -3.71572 0
      vertex 4.04508 -2.93893 0
    endloop
  endfacet
  facet normal 0 0 -1
    outer loop
      vertex 3.25 -16.5 0
      vertex 2.5 -4.33013 0
      vertex 3.34565 -3.71572 0
    endloop
  endfacet
  facet normal 0 0 -1
    outer loop
      vertex 3.25 -16.5 0
      vertex 1.54508 -4.75528 0
      vertex 2.5 -4.33013 0
    endloop
  endfacet
  facet normal 0 0 -1
    outer loop
      vertex 3.25 -16.5 0
      vertex 0.522642 -4.97261 0
      vertex 1.54508 -4.75528 0
    endloop
  endfacet
  facet normal 0 0 -1
    outer loop
      vertex 3.25 -16.5 0
      vertex -0.522642 -4.97261 0
      vertex 0.522642 -4.97261 0
    endloop
  endfacet
  facet normal 0 0 -1
    outer loop
      vertex -3.25 -16.5 0
      vertex -0.522642 -4.97261 0
      vertex 3.25 -16.5 0
    endloop
  endfacet
  facet normal -0 0 -1
    outer loop
      vertex -0.522642 -4.97261 0
      vertex -3.25 -16.5 0
      vertex -1.54508 -4.75528 0
    endloop
  endfacet
  facet normal -0 0 -1
    outer loop
      vertex -1.54508 -4.75528 0
      vertex -3.25 -16.5 0
      vertex -2.5 -4.33013 0
    endloop
  endfacet
  facet normal -0 0 -1
    outer loop
      vertex -2.5 -4.33013 0
      vertex -3.25 -16.5 0
      vertex -3.34565 -3.71572 0
    endloop
  endfacet
  facet normal 0 0 -1
    outer loop
      vertex 22.63 -1.78102 0
      vertex 22.63 1.78102 0
      vertex 22.7 0 0
    endloop
  endfacet
  facet normal 0 0 -1
    outer loop
      vertex 22.4205 -3.55106 0
      vertex 22.63 1.78102 0
      vertex 22.63 -1.78102 0
    endloop
  endfacet
  facet normal 0 0 -1
    outer loop
      vertex 22.4205 -3.55106 0
      vertex 22.4205 3.55106 0
      vertex 22.63 1.78102 0
    endloop
  endfacet
  facet normal 0 0 -1
    outer loop
      vertex 22.0728 -5.29921 0
      vertex 22.4205 3.55106 0
      vertex 22.4205 -3.55106 0
    endloop
  endfacet
  facet normal 0 0 -1
    outer loop
      vertex 22.0728 -5.29921 0
      vertex 22.0728 5.29921 0
      vertex 22.4205 3.55106 0
    endloop
  endfacet
  facet normal 0 0 -1
    outer loop
      vertex 21.589 -7.01469 0
      vertex 22.0728 5.29921 0
      vertex 22.0728 -5.29921 0
    endloop
  endfacet
  facet normal 0 0 -1
    outer loop
      vertex 21.589 -7.01469 0
      vertex 21.589 7.01469 0
      vertex 22.0728 5.29921 0
    endloop
  endfacet
  facet normal 0 0 -1
    outer loop
      vertex 20.9721 -8.68691 0
      vertex 21.589 7.01469 0
      vertex 21.589 -7.01469 0
    endloop
  endfacet
  facet normal 0 0 -1
    outer loop
      vertex 20.9721 -8.68691 0
      vertex 20.9721 8.68691 0
      vertex 21.589 7.01469 0
    endloop
  endfacet
  facet normal 0 0 -1
    outer loop
      vertex 20.2258 -10.3056 0
      vertex 20.9721 8.68691 0
      vertex 20.9721 -8.68691 0
    endloop
  endfacet
  facet normal 0 0 -1
    outer loop
      vertex 20.2258 -10.3056 0
      vertex 20.2258 10.3056 0
      vertex 20.9721 8.68691 0
    endloop
  endfacet
  facet normal 0 0 -1
    outer loop
      vertex 19.3549 -11.8607 0
      vertex 20.2258 10.3056 0
      vertex 20.2258 -10.3056 0
    endloop
  endfacet
  facet normal 0 0 -1
    outer loop
      vertex 19.3549 -11.8607 0
      vertex 19.3549 11.8607 0
      vertex 20.2258 10.3056 0
    endloop
  endfacet
  facet normal 0 0 -1
    outer loop
      vertex 18.3647 -13.3427 0
      vertex 19.3549 11.8607 0
      vertex 19.3549 -11.8607 0
    endloop
  endfacet
  facet normal 0 0 -1
    outer loop
      vertex 18.3647 -13.3427 0
      vertex 18.3647 13.3427 0
      vertex 19.3549 11.8607 0
    endloop
  endfacet
  facet normal 0 0 -1
    outer loop
      vertex 16.8 -15.2414 0
      vertex 18.3647 -13.3427 0
      vertex 17.2612 -14.7425 0
    endloop
  endfacet
  facet normal -0 0 -1
    outer loop
      vertex 18.3647 -13.3427 0
      vertex 16.8 -15.2414 0
      vertex 18.3647 13.3427 0
    endloop
  endfacet
  facet normal 0 0 -1
    outer loop
      vertex 16.8 15.2414 0
      vertex 18.3647 13.3427 0
      vertex 16.8 -15.2414 0
    endloop
  endfacet
  facet normal 0 0 -1
    outer loop
      vertex 18.3647 13.3427 0
      vertex 16.8 15.2414 0
      vertex 17.2612 14.7425 0
    endloop
  endfacet
  facet normal 0 0 -1
    outer loop
      vertex 13.8369 20.9346 0
      vertex 12 21.3 0
      vertex 12.9364 21.2078 0
    endloop
  endfacet
  facet normal 0 0 -1
    outer loop
      vertex 16.4346 18.3369 0
      vertex 12 21.3 0
      vertex 15.9911 19.1667 0
    endloop
  endfacet
  facet normal -0 0 -1
    outer loop
      vertex 16.8 15.2414 0
      vertex 2.5 4.33013 0
      vertex 7.798 21.3 0
    endloop
  endfacet
  facet normal 0 0 -1
    outer loop
      vertex 1.54508 4.75528 0
      vertex 7.798 21.3 0
      vertex 2.5 4.33013 0
    endloop
  endfacet
  facet normal -0 0 -1
    outer loop
      vertex 7.798 21.3 0
      vertex 1.54508 4.75528 0
      vertex 7.01469 21.589 0
    endloop
  endfacet
  facet normal -0 0 -1
    outer loop
      vertex 7.01469 21.589 0
      vertex 1.54508 4.75528 0
      vertex 5.29921 22.0728 0
    endloop
  endfacet
  facet normal 0 0 -1
    outer loop
      vertex 0.522642 4.97261 0
      vertex 5.29921 22.0728 0
      vertex 1.54508 4.75528 0
    endloop
  endfacet
  facet normal -0 0 -1
    outer loop
      vertex 5.29921 22.0728 0
      vertex 0.522642 4.97261 0
      vertex 3.55106 22.4205 0
    endloop
  endfacet
  facet normal -0 0 -1
    outer loop
      vertex 3.55106 22.4205 0
      vertex 0.522642 4.97261 0
      vertex 1.78102 22.63 0
    endloop
  endfacet
  facet normal 0 0 -1
    outer loop
      vertex 0.522642 4.97261 0
      vertex 0 22.7 0
      vertex 1.78102 22.63 0
    endloop
  endfacet
  facet normal 0 0 -1
    outer loop
      vertex -0.522642 4.97261 0
      vertex 0 22.7 0
      vertex 0.522642 4.97261 0
    endloop
  endfacet
  facet normal 0 0 -1
    outer loop
      vertex -5.29921 22.0728 0
      vertex -0.522642 4.97261 0
      vertex -1.54508 4.75528 0
    endloop
  endfacet
  facet normal 0 0 -1
    outer loop
      vertex -0.522642 4.97261 0
      vertex -1.78102 22.63 0
      vertex 0 22.7 0
    endloop
  endfacet
  facet normal 0 0 -1
    outer loop
      vertex -7.798 21.3 0
      vertex -1.54508 4.75528 0
      vertex -2.5 4.33013 0
    endloop
  endfacet
  facet normal 0 0 -1
    outer loop
      vertex -16.8 15.2414 0
      vertex -2.5 4.33013 0
      vertex -3.34565 3.71572 0
    endloop
  endfacet
  facet normal 0 0 -1
    outer loop
      vertex -0.522642 4.97261 0
      vertex -3.55106 22.4205 0
      vertex -1.78102 22.63 0
    endloop
  endfacet
  facet normal 0 0 -1
    outer loop
      vertex -16.8 15.2414 0
      vertex -3.34565 3.71572 0
      vertex -4.04508 2.93893 0
    endloop
  endfacet
  facet normal 0 0 -1
    outer loop
      vertex -16.8 15.2414 0
      vertex -4.04508 2.93893 0
      vertex -4.56773 2.03368 0
    endloop
  endfacet
  facet normal 0 0 -1
    outer loop
      vertex -16.8 15.2414 0
      vertex -4.56773 2.03368 0
      vertex -4.89074 1.03956 0
    endloop
  endfacet
  facet normal 0 0 -1
    outer loop
      vertex -16.8 15.2414 0
      vertex -4.89074 1.03956 0
      vertex -5 0 0
    endloop
  endfacet
  facet normal 0 0 -1
    outer loop
      vertex -0.522642 4.97261 0
      vertex -5.29921 22.0728 0
      vertex -3.55106 22.4205 0
    endloop
  endfacet
  facet normal 0 0 -1
    outer loop
      vertex -17.2612 -14.7425 0
      vertex -4.04508 -2.93893 0
      vertex -16.8 -15.2414 0
    endloop
  endfacet
  facet normal 0 0 -1
    outer loop
      vertex -18.3647 -13.3427 0
      vertex -4.04508 -2.93893 0
      vertex -17.2612 -14.7425 0
    endloop
  endfacet
  facet normal 0 0 -1
    outer loop
      vertex -19.3549 -11.8607 0
      vertex -4.04508 -2.93893 0
      vertex -18.3647 -13.3427 0
    endloop
  endfacet
  facet normal 0 0 -1
    outer loop
      vertex -1.54508 4.75528 0
      vertex -7.798 21.3 0
      vertex -7.01469 21.589 0
    endloop
  endfacet
  facet normal 0 0 -1
    outer loop
      vertex -1.54508 4.75528 0
      vertex -7.01469 21.589 0
      vertex -5.29921 22.0728 0
    endloop
  endfacet
  facet normal 0 0 -1
    outer loop
      vertex -16.8 -15.2414 0
      vertex -7.798 -21.3 0
      vertex -12 -21.3 0
    endloop
  endfacet
  facet normal -0 0 -1
    outer loop
      vertex -4.04508 -2.93893 0
      vertex -19.3549 -11.8607 0
      vertex -4.56773 -2.03368 0
    endloop
  endfacet
  facet normal 0 0 -1
    outer loop
      vertex -16.8 -16.5 0
      vertex -12 -21.3 0
      vertex -12.9364 -21.2078 0
    endloop
  endfacet
  facet normal 0 0 -1
    outer loop
      vertex -2.5 4.33013 0
      vertex -16.8 15.2414 0
      vertex -7.798 21.3 0
    endloop
  endfacet
  facet normal 0 0 -1
    outer loop
      vertex -16.8 -16.5 0
      vertex -12.9364 -21.2078 0
      vertex -13.8369 -20.9346 0
    endloop
  endfacet
  facet normal -0 0 -1
    outer loop
      vertex -7.798 21.3 0
      vertex -16.8 15.2414 0
      vertex -12 21.3 0
    endloop
  endfacet
  facet normal 0 0 -1
    outer loop
      vertex -16.8 -16.5 0
      vertex -13.8369 -20.9346 0
      vertex -14.6667 -20.4911 0
    endloop
  endfacet
  facet normal 0 0 -1
    outer loop
      vertex -16.8 16.5 0
      vertex -12 21.3 0
      vertex -16.8 15.2414 0
    endloop
  endfacet
  facet normal 0 0 -1
    outer loop
      vertex -16.8 -16.5 0
      vertex -14.6667 -20.4911 0
      vertex -15.3941 -19.8941 0
    endloop
  endfacet
  facet normal 0 0 -1
    outer loop
      vertex -12 21.3 0
      vertex -16.8 16.5 0
      vertex -12.9364 21.2078 0
    endloop
  endfacet
  facet normal 0 0 -1
    outer loop
      vertex -16.8 -16.5 0
      vertex -15.3941 -19.8941 0
      vertex -15.9911 -19.1667 0
    endloop
  endfacet
  facet normal 0 0 -1
    outer loop
      vertex -12.9364 21.2078 0
      vertex -16.8 16.5 0
      vertex -13.8369 20.9346 0
    endloop
  endfacet
  facet normal 0 0 -1
    outer loop
      vertex -16.8 -16.5 0
      vertex -15.9911 -19.1667 0
      vertex -16.4346 -18.3369 0
    endloop
  endfacet
  facet normal 0 0 -1
    outer loop
      vertex -13.8369 20.9346 0
      vertex -16.8 16.5 0
      vertex -14.6667 20.4911 0
    endloop
  endfacet
  facet normal 0 0 -1
    outer loop
      vertex -16.8 -16.5 0
      vertex -16.4346 -18.3369 0
      vertex -16.7078 -17.4364 0
    endloop
  endfacet
  facet normal 0 0 -1
    outer loop
      vertex -14.6667 20.4911 0
      vertex -16.8 16.5 0
      vertex -15.3941 19.8941 0
    endloop
  endfacet
  facet normal 0 0 -1
    outer loop
      vertex -12 -21.3 0
      vertex -16.8 -16.5 0
      vertex -16.8 -15.2414 0
    endloop
  endfacet
  facet normal 0 0 -1
    outer loop
      vertex -15.3941 19.8941 0
      vertex -16.8 16.5 0
      vertex -15.9911 19.1667 0
    endloop
  endfacet
  facet normal 0 0 -1
    outer loop
      vertex -15.9911 19.1667 0
      vertex -16.8 16.5 0
      vertex -16.4346 18.3369 0
    endloop
  endfacet
  facet normal 0 0 -1
    outer loop
      vertex -16.4346 18.3369 0
      vertex -16.8 16.5 0
      vertex -16.7078 17.4364 0
    endloop
  endfacet
  facet normal 0 0 -1
    outer loop
      vertex 0 -22.7 0
      vertex 2.87958 -22.5 0
      vertex 1.78102 -22.63 0
    endloop
  endfacet
  facet normal 0 0 -1
    outer loop
      vertex -1.78102 -22.63 0
      vertex 2.87958 -22.5 0
      vertex 0 -22.7 0
    endloop
  endfacet
  facet normal -0 0 -1
    outer loop
      vertex 2.87958 -22.5 0
      vertex -1.78102 -22.63 0
      vertex -2.87958 -22.5 0
    endloop
  endfacet
  facet normal 0.980788 0.195075 0
    outer loop
      vertex 22.4205 3.55106 1
      vertex 22.0728 5.29921 0
      vertex 22.0728 5.29921 1
    endloop
  endfacet
  facet normal 0.980788 0.195075 0
    outer loop
      vertex 22.0728 5.29921 0
      vertex 22.4205 3.55106 1
      vertex 22.4205 3.55106 0
    endloop
  endfacet
  facet normal 0.993068 0.117538 0
    outer loop
      vertex 22.63 1.78102 1
      vertex 22.4205 3.55106 0
      vertex 22.4205 3.55106 1
    endloop
  endfacet
  facet normal 0.993068 0.117538 0
    outer loop
      vertex 22.4205 3.55106 0
      vertex 22.63 1.78102 1
      vertex 22.63 1.78102 0
    endloop
  endfacet
  facet normal 0.962457 0.271432 0
    outer loop
      vertex 22.0728 5.29921 1
      vertex 21.589 7.01469 0
      vertex 21.589 7.01469 1
    endloop
  endfacet
  facet normal 0.962457 0.271432 0
    outer loop
      vertex 21.589 7.01469 0
      vertex 22.0728 5.29921 1
      vertex 22.0728 5.29921 0
    endloop
  endfacet
  facet normal 0.83148 0.555554 0
    outer loop
      vertex 19.3549 11.8607 1
      vertex 18.3647 13.3427 0
      vertex 18.3647 13.3427 1
    endloop
  endfacet
  facet normal 0.83148 0.555554 0
    outer loop
      vertex 18.3647 13.3427 0
      vertex 19.3549 11.8607 1
      vertex 19.3549 11.8607 0
    endloop
  endfacet
  facet normal 0.785321 0.619089 0
    outer loop
      vertex 18.3647 13.3427 1
      vertex 17.2612 14.7425 0
      vertex 17.2612 14.7425 1
    endloop
  endfacet
  facet normal 0.785321 0.619089 0
    outer loop
      vertex 17.2612 14.7425 0
      vertex 18.3647 13.3427 1
      vertex 18.3647 13.3427 0
    endloop
  endfacet
  facet normal 0.908127 0.418694 0
    outer loop
      vertex 20.9721 8.68691 1
      vertex 20.2258 10.3056 0
      vertex 20.2258 10.3056 1
    endloop
  endfacet
  facet normal 0.908127 0.418694 0
    outer loop
      vertex 20.2258 10.3056 0
      vertex 20.9721 8.68691 1
      vertex 20.9721 8.68691 0
    endloop
  endfacet
  facet normal 0.271432 0.962457 -0
    outer loop
      vertex 7.01469 21.589 0
      vertex 5.29921 22.0728 1
      vertex 7.01469 21.589 1
    endloop
  endfacet
  facet normal 0.271432 0.962457 0
    outer loop
      vertex 5.29921 22.0728 1
      vertex 7.01469 21.589 0
      vertex 5.29921 22.0728 0
    endloop
  endfacet
  facet normal 0.34614 0.938183 -0
    outer loop
      vertex 7.798 21.3 0
      vertex 7.01469 21.589 1
      vertex 7.798 21.3 1
    endloop
  endfacet
  facet normal 0.34614 0.938183 0
    outer loop
      vertex 7.01469 21.589 1
      vertex 7.798 21.3 0
      vertex 7.01469 21.589 0
    endloop
  endfacet
  facet normal -0.962457 0.271432 0
    outer loop
      vertex -22.0728 5.29921 0
      vertex -21.589 7.01469 1
      vertex -21.589 7.01469 0
    endloop
  endfacet
  facet normal -0.962457 0.271432 0
    outer loop
      vertex -21.589 7.01469 1
      vertex -22.0728 5.29921 0
      vertex -22.0728 5.29921 1
    endloop
  endfacet
  facet normal -0.785321 0.619089 0
    outer loop
      vertex -18.3647 13.3427 0
      vertex -17.2612 14.7425 1
      vertex -17.2612 14.7425 0
    endloop
  endfacet
  facet normal -0.785321 0.619089 0
    outer loop
      vertex -17.2612 14.7425 1
      vertex -18.3647 13.3427 0
      vertex -18.3647 13.3427 1
    endloop
  endfacet
  facet normal -0.734307 0.678818 0
    outer loop
      vertex -17.2612 14.7425 0
      vertex -16.8 15.2414 1
      vertex -16.8 15.2414 0
    endloop
  endfacet
  facet normal -0.734307 0.678818 0
    outer loop
      vertex -16.8 15.2414 1
      vertex -17.2612 14.7425 0
      vertex -17.2612 14.7425 1
    endloop
  endfacet
  facet normal -0.938194 0.34611 0
    outer loop
      vertex -21.589 7.01469 0
      vertex -20.9721 8.68691 1
      vertex -20.9721 8.68691 0
    endloop
  endfacet
  facet normal -0.938194 0.34611 0
    outer loop
      vertex -20.9721 8.68691 1
      vertex -21.589 7.01469 0
      vertex -21.589 7.01469 1
    endloop
  endfacet
  facet normal 0 0 1
    outer loop
      vertex -18.3647 13.3427 1
      vertex -16.8 15.2414 1
      vertex -17.2612 14.7425 1
    endloop
  endfacet
  facet normal 0 0 1
    outer loop
      vertex -16.8 15.2414 1
      vertex -18.3647 13.3427 1
      vertex -16.8 -15.2414 1
    endloop
  endfacet
  facet normal -0 0 1
    outer loop
      vertex -18.3647 -13.3427 1
      vertex -16.8 -15.2414 1
      vertex -18.3647 13.3427 1
    endloop
  endfacet
  facet normal 0 0 1
    outer loop
      vertex -16.8 -15.2414 1
      vertex -18.3647 -13.3427 1
      vertex -17.2612 -14.7425 1
    endloop
  endfacet
  facet normal -0 0 1
    outer loop
      vertex -19.3549 11.8607 1
      vertex -18.3647 -13.3427 1
      vertex -18.3647 13.3427 1
    endloop
  endfacet
  facet normal 0 0 1
    outer loop
      vertex -19.3549 11.8607 1
      vertex -19.3549 -11.8607 1
      vertex -18.3647 -13.3427 1
    endloop
  endfacet
  facet normal -0 0 1
    outer loop
      vertex -20.2258 10.3056 1
      vertex -19.3549 -11.8607 1
      vertex -19.3549 11.8607 1
    endloop
  endfacet
  facet normal 0 0 1
    outer loop
      vertex -20.2258 10.3056 1
      vertex -20.2258 -10.3056 1
      vertex -19.3549 -11.8607 1
    endloop
  endfacet
  facet normal -0 0 1
    outer loop
      vertex -20.9721 8.68691 1
      vertex -20.2258 -10.3056 1
      vertex -20.2258 10.3056 1
    endloop
  endfacet
  facet normal 0 0 1
    outer loop
      vertex -20.9721 8.68691 1
      vertex -20.9721 -8.68691 1
      vertex -20.2258 -10.3056 1
    endloop
  endfacet
  facet normal -0 0 1
    outer loop
      vertex -21.589 7.01469 1
      vertex -20.9721 -8.68691 1
      vertex -20.9721 8.68691 1
    endloop
  endfacet
  facet normal 0 0 1
    outer loop
      vertex -21.589 7.01469 1
      vertex -21.589 -7.01469 1
      vertex -20.9721 -8.68691 1
    endloop
  endfacet
  facet normal -0 0 1
    outer loop
      vertex -22.0728 5.29921 1
      vertex -21.589 -7.01469 1
      vertex -21.589 7.01469 1
    endloop
  endfacet
  facet normal 0 0 1
    outer loop
      vertex -22.0728 5.29921 1
      vertex -22.0728 -5.29921 1
      vertex -21.589 -7.01469 1
    endloop
  endfacet
  facet normal -0 0 1
    outer loop
      vertex -22.4205 3.55106 1
      vertex -22.0728 -5.29921 1
      vertex -22.0728 5.29921 1
    endloop
  endfacet
  facet normal 0 0 1
    outer loop
      vertex -22.4205 3.55106 1
      vertex -22.4205 -3.55106 1
      vertex -22.0728 -5.29921 1
    endloop
  endfacet
  facet normal -0 0 1
    outer loop
      vertex -22.63 1.78102 1
      vertex -22.4205 -3.55106 1
      vertex -22.4205 3.55106 1
    endloop
  endfacet
  facet normal 0 0 1
    outer loop
      vertex -22.63 1.78102 1
      vertex -22.63 -1.78102 1
      vertex -22.4205 -3.55106 1
    endloop
  endfacet
  facet normal 0 -0 1
    outer loop
      vertex -22.63 -1.78102 1
      vertex -22.63 1.78102 1
      vertex -22.7 0 1
    endloop
  endfacet
  facet normal 0 0 1
    outer loop
      vertex 12 21.3 1
      vertex 16.8 15.2414 1
      vertex 16.8 16.5 1
    endloop
  endfacet
  facet normal 0 0 1
    outer loop
      vertex 16.8 15.2414 1
      vertex 7.798 21.3 1
      vertex 16.8 -15.2414 1
    endloop
  endfacet
  facet normal 0 0 1
    outer loop
      vertex 12 21.3 1
      vertex 16.8 16.5 1
      vertex 16.7078 17.4364 1
    endloop
  endfacet
  facet normal 0 0 1
    outer loop
      vertex 7.798 -21.3 1
      vertex 16.8 -15.2414 1
      vertex 7.798 21.3 1
    endloop
  endfacet
  facet normal 0 0 1
    outer loop
      vertex 12 21.3 1
      vertex 16.7078 17.4364 1
      vertex 16.4346 18.3369 1
    endloop
  endfacet
  facet normal 0 -0 1
    outer loop
      vertex 12 -21.3 1
      vertex 16.8 -15.2414 1
      vertex 7.798 -21.3 1
    endloop
  endfacet
  facet normal 0 0 1
    outer loop
      vertex 12 21.3 1
      vertex 16.4346 18.3369 1
      vertex 15.9911 19.1667 1
    endloop
  endfacet
  facet normal 0 0 1
    outer loop
      vertex 16.8 -15.2414 1
      vertex 12 -21.3 1
      vertex 16.8 -16.5 1
    endloop
  endfacet
  facet normal 0 0 1
    outer loop
      vertex 12 21.3 1
      vertex 15.9911 19.1667 1
      vertex 15.3941 19.8941 1
    endloop
  endfacet
  facet normal 0 0 1
    outer loop
      vertex 16.8 -16.5 1
      vertex 12 -21.3 1
      vertex 16.7078 -17.4364 1
    endloop
  endfacet
  facet normal 0 0 1
    outer loop
      vertex 12 21.3 1
      vertex 15.3941 19.8941 1
      vertex 14.6667 20.4911 1
    endloop
  endfacet
  facet normal 0 0 1
    outer loop
      vertex 16.7078 -17.4364 1
      vertex 12 -21.3 1
      vertex 16.4346 -18.3369 1
    endloop
  endfacet
  facet normal 0 0 1
    outer loop
      vertex 12 21.3 1
      vertex 14.6667 20.4911 1
      vertex 13.8369 20.9346 1
    endloop
  endfacet
  facet normal 0 0 1
    outer loop
      vertex 16.4346 -18.3369 1
      vertex 12 -21.3 1
      vertex 15.9911 -19.1667 1
    endloop
  endfacet
  facet normal 0 0 1
    outer loop
      vertex 12 21.3 1
      vertex 13.8369 20.9346 1
      vertex 12.9364 21.2078 1
    endloop
  endfacet
  facet normal 0 0 1
    outer loop
      vertex 16.8 15.2414 1
      vertex 12 21.3 1
      vertex 7.798 21.3 1
    endloop
  endfacet
  facet normal 0 0 1
    outer loop
      vertex 15.9911 -19.1667 1
      vertex 12 -21.3 1
      vertex 15.3941 -19.8941 1
    endloop
  endfacet
  facet normal 0 0 1
    outer loop
      vertex 13.8369 -20.9346 1
      vertex 12 -21.3 1
      vertex 12.9364 -21.2078 1
    endloop
  endfacet
  facet normal 0 0 1
    outer loop
      vertex 15.3941 -19.8941 1
      vertex 12 -21.3 1
      vertex 14.6667 -20.4911 1
    endloop
  endfacet
  facet normal 0 0 1
    outer loop
      vertex 14.6667 -20.4911 1
      vertex 12 -21.3 1
      vertex 13.8369 -20.9346 1
    endloop
  endfacet
  facet normal 0 0 1
    outer loop
      vertex 5.29921 22.0728 1
      vertex 7.798 21.3 1
      vertex 7.01469 21.589 1
    endloop
  endfacet
  facet normal 0 0 1
    outer loop
      vertex 7.798 21.3 1
      vertex 5.29921 22.0728 1
      vertex 7.798 -21.3 1
    endloop
  endfacet
  facet normal 0 0 1
    outer loop
      vertex 5.29921 -22.0728 1
      vertex 7.798 -21.3 1
      vertex 5.29921 22.0728 1
    endloop
  endfacet
  facet normal 0 0 1
    outer loop
      vertex 7.798 -21.3 1
      vertex 5.29921 -22.0728 1
      vertex 7.01469 -21.589 1
    endloop
  endfacet
  facet normal 0 0 1
    outer loop
      vertex 3.55106 22.4205 1
      vertex 5.29921 -22.0728 1
      vertex 5.29921 22.0728 1
    endloop
  endfacet
  facet normal 0 0 1
    outer loop
      vertex 3.55106 22.4205 1
      vertex 3.55106 -22.4205 1
      vertex 5.29921 -22.0728 1
    endloop
  endfacet
  facet normal 0 0 1
    outer loop
      vertex 1.78102 22.63 1
      vertex 3.55106 -22.4205 1
      vertex 3.55106 22.4205 1
    endloop
  endfacet
  facet normal 0 0 1
    outer loop
      vertex 1.78102 22.63 1
      vertex 1.78102 -22.63 1
      vertex 3.55106 -22.4205 1
    endloop
  endfacet
  facet normal 0 0 1
    outer loop
      vertex 0 22.7 1
      vertex 1.78102 -22.63 1
      vertex 1.78102 22.63 1
    endloop
  endfacet
  facet normal 0 0 1
    outer loop
      vertex 0 22.7 1
      vertex 0 -22.7 1
      vertex 1.78102 -22.63 1
    endloop
  endfacet
  facet normal -0 0 1
    outer loop
      vertex -1.78102 22.63 1
      vertex 0 -22.7 1
      vertex 0 22.7 1
    endloop
  endfacet
  facet normal 0 0 1
    outer loop
      vertex -1.78102 22.63 1
      vertex -1.78102 -22.63 1
      vertex 0 -22.7 1
    endloop
  endfacet
  facet normal -0 0 1
    outer loop
      vertex -3.55106 22.4205 1
      vertex -1.78102 -22.63 1
      vertex -1.78102 22.63 1
    endloop
  endfacet
  facet normal 0 0 1
    outer loop
      vertex -3.55106 22.4205 1
      vertex -3.55106 -22.4205 1
      vertex -1.78102 -22.63 1
    endloop
  endfacet
  facet normal -0 0 1
    outer loop
      vertex -5.29921 22.0728 1
      vertex -3.55106 -22.4205 1
      vertex -3.55106 22.4205 1
    endloop
  endfacet
  facet normal 0 0 1
    outer loop
      vertex -5.29921 22.0728 1
      vertex -5.29921 -22.0728 1
      vertex -3.55106 -22.4205 1
    endloop
  endfacet
  facet normal 0 0 1
    outer loop
      vertex -7.798 21.3 1
      vertex -5.29921 22.0728 1
      vertex -7.01469 21.589 1
    endloop
  endfacet
  facet normal 0 0 1
    outer loop
      vertex -5.29921 22.0728 1
      vertex -7.798 21.3 1
      vertex -5.29921 -22.0728 1
    endloop
  endfacet
  facet normal -0 0 1
    outer loop
      vertex -7.798 -21.3 1
      vertex -5.29921 -22.0728 1
      vertex -7.798 21.3 1
    endloop
  endfacet
  facet normal 0 0 1
    outer loop
      vertex -5.29921 -22.0728 1
      vertex -7.798 -21.3 1
      vertex -7.01469 -21.589 1
    endloop
  endfacet
  facet normal 0 0 1
    outer loop
      vertex -16.8 15.2414 1
      vertex -7.798 21.3 1
      vertex -12 21.3 1
    endloop
  endfacet
  facet normal 0 0 1
    outer loop
      vertex -7.798 21.3 1
      vertex -16.8 15.2414 1
      vertex -7.798 -21.3 1
    endloop
  endfacet
  facet normal 0 0 1
    outer loop
      vertex -16.8 16.5 1
      vertex -12 21.3 1
      vertex -12.9364 21.2078 1
    endloop
  endfacet
  facet normal -0 0 1
    outer loop
      vertex -16.8 -15.2414 1
      vertex -7.798 -21.3 1
      vertex -16.8 15.2414 1
    endloop
  endfacet
  facet normal 0 0 1
    outer loop
      vertex -16.8 16.5 1
      vertex -12.9364 21.2078 1
      vertex -13.8369 20.9346 1
    endloop
  endfacet
  facet normal 0 0 1
    outer loop
      vertex -7.798 -21.3 1
      vertex -16.8 -15.2414 1
      vertex -12 -21.3 1
    endloop
  endfacet
  facet normal 0 0 1
    outer loop
      vertex -16.8 16.5 1
      vertex -13.8369 20.9346 1
      vertex -14.6667 20.4911 1
    endloop
  endfacet
  facet normal -0 0 1
    outer loop
      vertex -16.8 -16.5 1
      vertex -12 -21.3 1
      vertex -16.8 -15.2414 1
    endloop
  endfacet
  facet normal 0 0 1
    outer loop
      vertex -16.8 16.5 1
      vertex -14.6667 20.4911 1
      vertex -15.3941 19.8941 1
    endloop
  endfacet
  facet normal 0 0 1
    outer loop
      vertex -12 -21.3 1
      vertex -16.8 -16.5 1
      vertex -12.9364 -21.2078 1
    endloop
  endfacet
  facet normal 0 0 1
    outer loop
      vertex -16.8 16.5 1
      vertex -15.3941 19.8941 1
      vertex -15.9911 19.1667 1
    endloop
  endfacet
  facet normal 0 0 1
    outer loop
      vertex -12.9364 -21.2078 1
      vertex -16.8 -16.5 1
      vertex -13.8369 -20.9346 1
    endloop
  endfacet
  facet normal 0 0 1
    outer loop
      vertex -16.8 16.5 1
      vertex -15.9911 19.1667 1
      vertex -16.4346 18.3369 1
    endloop
  endfacet
  facet normal 0 0 1
    outer loop
      vertex -13.8369 -20.9346 1
      vertex -16.8 -16.5 1
      vertex -14.6667 -20.4911 1
    endloop
  endfacet
  facet normal 0 0 1
    outer loop
      vertex -16.8 16.5 1
      vertex -16.4346 18.3369 1
      vertex -16.7078 17.4364 1
    endloop
  endfacet
  facet normal 0 0 1
    outer loop
      vertex -14.6667 -20.4911 1
      vertex -16.8 -16.5 1
      vertex -15.3941 -19.8941 1
    endloop
  endfacet
  facet normal 0 0 1
    outer loop
      vertex -12 21.3 1
      vertex -16.8 16.5 1
      vertex -16.8 15.2414 1
    endloop
  endfacet
  facet normal 0 0 1
    outer loop
      vertex -15.3941 -19.8941 1
      vertex -16.8 -16.5 1
      vertex -15.9911 -19.1667 1
    endloop
  endfacet
  facet normal 0 0 1
    outer loop
      vertex -15.9911 -19.1667 1
      vertex -16.8 -16.5 1
      vertex -16.4346 -18.3369 1
    endloop
  endfacet
  facet normal 0 0 1
    outer loop
      vertex -16.4346 -18.3369 1
      vertex -16.8 -16.5 1
      vertex -16.7078 -17.4364 1
    endloop
  endfacet
  facet normal 0 0 1
    outer loop
      vertex 22.63 1.78102 1
      vertex 22.63 -1.78102 1
      vertex 22.7 0 1
    endloop
  endfacet
  facet normal 0 0 1
    outer loop
      vertex 22.4205 3.55106 1
      vertex 22.63 -1.78102 1
      vertex 22.63 1.78102 1
    endloop
  endfacet
  facet normal 0 0 1
    outer loop
      vertex 22.4205 3.55106 1
      vertex 22.4205 -3.55106 1
      vertex 22.63 -1.78102 1
    endloop
  endfacet
  facet normal 0 0 1
    outer loop
      vertex 22.0728 5.29921 1
      vertex 22.4205 -3.55106 1
      vertex 22.4205 3.55106 1
    endloop
  endfacet
  facet normal 0 0 1
    outer loop
      vertex 22.0728 5.29921 1
      vertex 22.0728 -5.29921 1
      vertex 22.4205 -3.55106 1
    endloop
  endfacet
  facet normal 0 0 1
    outer loop
      vertex 21.589 7.01469 1
      vertex 22.0728 -5.29921 1
      vertex 22.0728 5.29921 1
    endloop
  endfacet
  facet normal 0 0 1
    outer loop
      vertex 21.589 7.01469 1
      vertex 21.589 -7.01469 1
      vertex 22.0728 -5.29921 1
    endloop
  endfacet
  facet normal 0 0 1
    outer loop
      vertex 20.9721 8.68691 1
      vertex 21.589 -7.01469 1
      vertex 21.589 7.01469 1
    endloop
  endfacet
  facet normal 0 0 1
    outer loop
      vertex 20.9721 8.68691 1
      vertex 20.9721 -8.68691 1
      vertex 21.589 -7.01469 1
    endloop
  endfacet
  facet normal 0 0 1
    outer loop
      vertex 20.2258 10.3056 1
      vertex 20.9721 -8.68691 1
      vertex 20.9721 8.68691 1
    endloop
  endfacet
  facet normal 0 0 1
    outer loop
      vertex 20.2258 10.3056 1
      vertex 20.2258 -10.3056 1
      vertex 20.9721 -8.68691 1
    endloop
  endfacet
  facet normal 0 0 1
    outer loop
      vertex 19.3549 11.8607 1
      vertex 20.2258 -10.3056 1
      vertex 20.2258 10.3056 1
    endloop
  endfacet
  facet normal 0 0 1
    outer loop
      vertex 19.3549 11.8607 1
      vertex 19.3549 -11.8607 1
      vertex 20.2258 -10.3056 1
    endloop
  endfacet
  facet normal 0 0 1
    outer loop
      vertex 18.3647 13.3427 1
      vertex 19.3549 -11.8607 1
      vertex 19.3549 11.8607 1
    endloop
  endfacet
  facet normal 0 0 1
    outer loop
      vertex 18.3647 13.3427 1
      vertex 18.3647 -13.3427 1
      vertex 19.3549 -11.8607 1
    endloop
  endfacet
  facet normal 0 0 1
    outer loop
      vertex 16.8 15.2414 1
      vertex 18.3647 13.3427 1
      vertex 17.2612 14.7425 1
    endloop
  endfacet
  facet normal 0 0 1
    outer loop
      vertex 18.3647 13.3427 1
      vertex 16.8 15.2414 1
      vertex 18.3647 -13.3427 1
    endloop
  endfacet
  facet normal 0 0 1
    outer loop
      vertex 16.8 -15.2414 1
      vertex 18.3647 -13.3427 1
      vertex 16.8 15.2414 1
    endloop
  endfacet
  facet normal 0 0 1
    outer loop
      vertex 18.3647 -13.3427 1
      vertex 16.8 -15.2414 1
      vertex 17.2612 -14.7425 1
    endloop
  endfacet
  facet normal -0.271432 0.962457 0
    outer loop
      vertex -5.29921 22.0728 0
      vertex -7.01469 21.589 1
      vertex -5.29921 22.0728 1
    endloop
  endfacet
  facet normal -0.271432 0.962457 0
    outer loop
      vertex -7.01469 21.589 1
      vertex -5.29921 22.0728 0
      vertex -7.01469 21.589 0
    endloop
  endfacet
  facet normal -0.039273 0.999229 0
    outer loop
      vertex 0 22.7 0
      vertex -1.78102 22.63 1
      vertex 0 22.7 1
    endloop
  endfacet
  facet normal -0.039273 0.999229 0
    outer loop
      vertex -1.78102 22.63 1
      vertex 0 22.7 0
      vertex -1.78102 22.63 0
    endloop
  endfacet
  facet normal 0.999229 -0.039273 0
    outer loop
      vertex 22.63 -1.78102 1
      vertex 22.7 0 0
      vertex 22.7 0 1
    endloop
  endfacet
  facet normal 0.999229 -0.039273 0
    outer loop
      vertex 22.7 0 0
      vertex 22.63 -1.78102 1
      vertex 22.63 -1.78102 0
    endloop
  endfacet
  facet normal 0.039273 -0.999229 0
    outer loop
      vertex 0 -22.7 0
      vertex 1.78102 -22.63 1
      vertex 0 -22.7 1
    endloop
  endfacet
  facet normal 0.039273 -0.999229 0
    outer loop
      vertex 1.78102 -22.63 1
      vertex 0 -22.7 0
      vertex 1.78102 -22.63 0
    endloop
  endfacet
  facet normal 0.271432 -0.962457 0
    outer loop
      vertex 5.29921 -22.0728 0
      vertex 7.01469 -21.589 1
      vertex 5.29921 -22.0728 1
    endloop
  endfacet
  facet normal 0.271432 -0.962457 0
    outer loop
      vertex 7.01469 -21.589 1
      vertex 5.29921 -22.0728 0
      vertex 7.01469 -21.589 0
    endloop
  endfacet
  facet normal -0.34614 -0.938183 0
    outer loop
      vertex -7.798 -21.3 0
      vertex -7.01469 -21.589 1
      vertex -7.798 -21.3 1
    endloop
  endfacet
  facet normal -0.34614 -0.938183 -0
    outer loop
      vertex -7.01469 -21.589 1
      vertex -7.798 -21.3 0
      vertex -7.01469 -21.589 0
    endloop
  endfacet
  facet normal -0.908127 -0.418694 0
    outer loop
      vertex -20.2258 -10.3056 0
      vertex -20.9721 -8.68691 1
      vertex -20.9721 -8.68691 0
    endloop
  endfacet
  facet normal -0.908127 -0.418694 0
    outer loop
      vertex -20.9721 -8.68691 1
      vertex -20.2258 -10.3056 0
      vertex -20.2258 -10.3056 1
    endloop
  endfacet
  facet normal -0.785321 -0.619089 0
    outer loop
      vertex -17.2612 -14.7425 0
      vertex -18.3647 -13.3427 1
      vertex -18.3647 -13.3427 0
    endloop
  endfacet
  facet normal -0.785321 -0.619089 0
    outer loop
      vertex -18.3647 -13.3427 1
      vertex -17.2612 -14.7425 0
      vertex -17.2612 -14.7425 1
    endloop
  endfacet
  facet normal -0.962457 -0.271432 0
    outer loop
      vertex -21.589 -7.01469 0
      vertex -22.0728 -5.29921 1
      vertex -22.0728 -5.29921 0
    endloop
  endfacet
  facet normal -0.962457 -0.271432 0
    outer loop
      vertex -22.0728 -5.29921 1
      vertex -21.589 -7.01469 0
      vertex -21.589 -7.01469 1
    endloop
  endfacet
  facet normal -0.999229 -0.039273 0
    outer loop
      vertex -22.63 -1.78102 0
      vertex -22.7 0 1
      vertex -22.7 0 0
    endloop
  endfacet
  facet normal -0.999229 -0.039273 0
    outer loop
      vertex -22.7 0 1
      vertex -22.63 -1.78102 0
      vertex -22.63 -1.78102 1
    endloop
  endfacet
  facet normal 0.872495 0.488622 0
    outer loop
      vertex 20.2258 10.3056 1
      vertex 19.3549 11.8607 0
      vertex 19.3549 11.8607 1
    endloop
  endfacet
  facet normal 0.872495 0.488622 0
    outer loop
      vertex 19.3549 11.8607 0
      vertex 20.2258 10.3056 1
      vertex 20.2258 10.3056 0
    endloop
  endfacet
  facet normal 0.195075 0.980788 -0
    outer loop
      vertex 5.29921 22.0728 0
      vertex 3.55106 22.4205 1
      vertex 5.29921 22.0728 1
    endloop
  endfacet
  facet normal 0.195075 0.980788 0
    outer loop
      vertex 3.55106 22.4205 1
      vertex 5.29921 22.0728 0
      vertex 3.55106 22.4205 0
    endloop
  endfacet
  facet normal 0.117538 0.993068 -0
    outer loop
      vertex 3.55106 22.4205 0
      vertex 1.78102 22.63 1
      vertex 3.55106 22.4205 1
    endloop
  endfacet
  facet normal 0.117538 0.993068 0
    outer loop
      vertex 1.78102 22.63 1
      vertex 3.55106 22.4205 0
      vertex 1.78102 22.63 0
    endloop
  endfacet
  facet normal -0.872495 0.488622 0
    outer loop
      vertex -20.2258 10.3056 0
      vertex -19.3549 11.8607 1
      vertex -19.3549 11.8607 0
    endloop
  endfacet
  facet normal -0.872495 0.488622 0
    outer loop
      vertex -19.3549 11.8607 1
      vertex -20.2258 10.3056 0
      vertex -20.2258 10.3056 1
    endloop
  endfacet
  facet normal -0.83148 0.555554 0
    outer loop
      vertex -19.3549 11.8607 0
      vertex -18.3647 13.3427 1
      vertex -18.3647 13.3427 0
    endloop
  endfacet
  facet normal -0.83148 0.555554 0
    outer loop
      vertex -18.3647 13.3427 1
      vertex -19.3549 11.8607 0
      vertex -19.3549 11.8607 1
    endloop
  endfacet
  facet normal -0.980788 0.195075 0
    outer loop
      vertex -22.4205 3.55106 0
      vertex -22.0728 5.29921 1
      vertex -22.0728 5.29921 0
    endloop
  endfacet
  facet normal -0.980788 0.195075 0
    outer loop
      vertex -22.0728 5.29921 1
      vertex -22.4205 3.55106 0
      vertex -22.4205 3.55106 1
    endloop
  endfacet
  facet normal -0.993068 0.117538 0
    outer loop
      vertex -22.63 1.78102 0
      vertex -22.4205 3.55106 1
      vertex -22.4205 3.55106 0
    endloop
  endfacet
  facet normal -0.993068 0.117538 0
    outer loop
      vertex -22.4205 3.55106 1
      vertex -22.63 1.78102 0
      vertex -22.63 1.78102 1
    endloop
  endfacet
  facet normal -0.117538 0.993068 0
    outer loop
      vertex -1.78102 22.63 0
      vertex -3.55106 22.4205 1
      vertex -1.78102 22.63 1
    endloop
  endfacet
  facet normal -0.117538 0.993068 0
    outer loop
      vertex -3.55106 22.4205 1
      vertex -1.78102 22.63 0
      vertex -3.55106 22.4205 0
    endloop
  endfacet
  facet normal 0.117538 -0.993068 6.04803e-05
    outer loop
      vertex 1.78102 -22.63 1
      vertex 2.87958 -22.5 0.599999
      vertex 3.55106 -22.4205 1
    endloop
  endfacet
  facet normal 0.117517 -0.993071 0
    outer loop
      vertex 1.78102 -22.63 0
      vertex 2.87958 -22.5 0.599999
      vertex 1.78102 -22.63 1
    endloop
  endfacet
  facet normal 0.117517 -0.993071 0
    outer loop
      vertex 2.87958 -22.5 0.599999
      vertex 1.78102 -22.63 0
      vertex 2.87958 -22.5 0
    endloop
  endfacet
  facet normal 0.117426 -0.993082 0.000251782
    outer loop
      vertex 3.25 -22.4562 0.599999
      vertex 3.55106 -22.4205 1
      vertex 2.87958 -22.5 0.599999
    endloop
  endfacet
  facet normal 0.117756 -0.993043 0
    outer loop
      vertex 3.55106 -22.4205 0
      vertex 3.25 -22.4562 0.599999
      vertex 3.25 -22.4562 0
    endloop
  endfacet
  facet normal 0.117756 -0.993043 0
    outer loop
      vertex 3.25 -22.4562 0.599999
      vertex 3.55106 -22.4205 0
      vertex 3.55106 -22.4205 1
    endloop
  endfacet
  facet normal 0.34614 -0.938183 0
    outer loop
      vertex 7.01469 -21.589 0
      vertex 7.798 -21.3 1
      vertex 7.01469 -21.589 1
    endloop
  endfacet
  facet normal 0.34614 -0.938183 0
    outer loop
      vertex 7.798 -21.3 1
      vertex 7.01469 -21.589 0
      vertex 7.798 -21.3 0
    endloop
  endfacet
  facet normal 0.734307 -0.678818 0
    outer loop
      vertex 16.8 -15.2414 1
      vertex 17.2612 -14.7425 0
      vertex 17.2612 -14.7425 1
    endloop
  endfacet
  facet normal 0.734307 -0.678818 0
    outer loop
      vertex 17.2612 -14.7425 0
      vertex 16.8 -15.2414 1
      vertex 16.8 -15.2414 0
    endloop
  endfacet
  facet normal 0.83148 -0.555554 0
    outer loop
      vertex 18.3647 -13.3427 1
      vertex 19.3549 -11.8607 0
      vertex 19.3549 -11.8607 1
    endloop
  endfacet
  facet normal 0.83148 -0.555554 0
    outer loop
      vertex 19.3549 -11.8607 0
      vertex 18.3647 -13.3427 1
      vertex 18.3647 -13.3427 0
    endloop
  endfacet
  facet normal 0.872495 -0.488622 0
    outer loop
      vertex 19.3549 -11.8607 1
      vertex 20.2258 -10.3056 0
      vertex 20.2258 -10.3056 1
    endloop
  endfacet
  facet normal 0.872495 -0.488622 0
    outer loop
      vertex 20.2258 -10.3056 0
      vertex 19.3549 -11.8607 1
      vertex 19.3549 -11.8607 0
    endloop
  endfacet
  facet normal 0.962457 -0.271432 0
    outer loop
      vertex 21.589 -7.01469 1
      vertex 22.0728 -5.29921 0
      vertex 22.0728 -5.29921 1
    endloop
  endfacet
  facet normal 0.962457 -0.271432 0
    outer loop
      vertex 22.0728 -5.29921 0
      vertex 21.589 -7.01469 1
      vertex 21.589 -7.01469 0
    endloop
  endfacet
  facet normal -0.271432 -0.962457 0
    outer loop
      vertex -7.01469 -21.589 0
      vertex -5.29921 -22.0728 1
      vertex -7.01469 -21.589 1
    endloop
  endfacet
  facet normal -0.271432 -0.962457 -0
    outer loop
      vertex -5.29921 -22.0728 1
      vertex -7.01469 -21.589 0
      vertex -5.29921 -22.0728 0
    endloop
  endfacet
  facet normal -0.195075 -0.980788 0
    outer loop
      vertex -5.29921 -22.0728 0
      vertex -3.55106 -22.4205 1
      vertex -5.29921 -22.0728 1
    endloop
  endfacet
  facet normal -0.195075 -0.980788 -0
    outer loop
      vertex -3.55106 -22.4205 1
      vertex -5.29921 -22.0728 0
      vertex -3.55106 -22.4205 0
    endloop
  endfacet
  facet normal -0.039273 -0.999229 0
    outer loop
      vertex -1.78102 -22.63 0
      vertex 0 -22.7 1
      vertex -1.78102 -22.63 1
    endloop
  endfacet
  facet normal -0.039273 -0.999229 -0
    outer loop
      vertex 0 -22.7 1
      vertex -1.78102 -22.63 0
      vertex 0 -22.7 0
    endloop
  endfacet
  facet normal -0.872495 -0.488622 0
    outer loop
      vertex -19.3549 -11.8607 0
      vertex -20.2258 -10.3056 1
      vertex -20.2258 -10.3056 0
    endloop
  endfacet
  facet normal -0.872495 -0.488622 0
    outer loop
      vertex -20.2258 -10.3056 1
      vertex -19.3549 -11.8607 0
      vertex -19.3549 -11.8607 1
    endloop
  endfacet
  facet normal -0.734307 -0.678818 0
    outer loop
      vertex -16.8 -15.2414 0
      vertex -17.2612 -14.7425 1
      vertex -17.2612 -14.7425 0
    endloop
  endfacet
  facet normal -0.734307 -0.678818 0
    outer loop
      vertex -17.2612 -14.7425 1
      vertex -16.8 -15.2414 0
      vertex -16.8 -15.2414 1
    endloop
  endfacet
  facet normal -0.938194 -0.34611 0
    outer loop
      vertex -20.9721 -8.68691 0
      vertex -21.589 -7.01469 1
      vertex -21.589 -7.01469 0
    endloop
  endfacet
  facet normal -0.938194 -0.34611 0
    outer loop
      vertex -21.589 -7.01469 1
      vertex -20.9721 -8.68691 0
      vertex -20.9721 -8.68691 1
    endloop
  endfacet
  facet normal -0.993068 -0.117538 0
    outer loop
      vertex -22.4205 -3.55106 0
      vertex -22.63 -1.78102 1
      vertex -22.63 -1.78102 0
    endloop
  endfacet
  facet normal -0.993068 -0.117538 0
    outer loop
      vertex -22.63 -1.78102 1
      vertex -22.4205 -3.55106 0
      vertex -22.4205 -3.55106 1
    endloop
  endfacet
  facet normal 0.195075 -0.980788 0
    outer loop
      vertex 3.55106 -22.4205 0
      vertex 5.29921 -22.0728 1
      vertex 3.55106 -22.4205 1
    endloop
  endfacet
  facet normal 0.195075 -0.980788 0
    outer loop
      vertex 5.29921 -22.0728 1
      vertex 3.55106 -22.4205 0
      vertex 5.29921 -22.0728 0
    endloop
  endfacet
  facet normal 0.785321 -0.619089 0
    outer loop
      vertex 17.2612 -14.7425 1
      vertex 18.3647 -13.3427 0
      vertex 18.3647 -13.3427 1
    endloop
  endfacet
  facet normal 0.785321 -0.619089 0
    outer loop
      vertex 18.3647 -13.3427 0
      vertex 17.2612 -14.7425 1
      vertex 17.2612 -14.7425 0
    endloop
  endfacet
  facet normal 0.908127 -0.418694 0
    outer loop
      vertex 20.2258 -10.3056 1
      vertex 20.9721 -8.68691 0
      vertex 20.9721 -8.68691 1
    endloop
  endfacet
  facet normal 0.908127 -0.418694 0
    outer loop
      vertex 20.9721 -8.68691 0
      vertex 20.2258 -10.3056 1
      vertex 20.2258 -10.3056 0
    endloop
  endfacet
  facet normal 0.980788 -0.195075 0
    outer loop
      vertex 22.0728 -5.29921 1
      vertex 22.4205 -3.55106 0
      vertex 22.4205 -3.55106 1
    endloop
  endfacet
  facet normal 0.980788 -0.195075 0
    outer loop
      vertex 22.4205 -3.55106 0
      vertex 22.0728 -5.29921 1
      vertex 22.0728 -5.29921 0
    endloop
  endfacet
  facet normal -0.117426 -0.993082 0.000251782
    outer loop
      vertex -2.87958 -22.5 0.599999
      vertex -3.55106 -22.4205 1
      vertex -3.25 -22.4562 0.599999
    endloop
  endfacet
  facet normal -0.117756 -0.993043 0
    outer loop
      vertex -3.55106 -22.4205 0
      vertex -3.25 -22.4562 0.599999
      vertex -3.55106 -22.4205 1
    endloop
  endfacet
  facet normal -0.117756 -0.993043 -0
    outer loop
      vertex -3.25 -22.4562 0.599999
      vertex -3.55106 -22.4205 0
      vertex -3.25 -22.4562 0
    endloop
  endfacet
  facet normal -0.117538 -0.993068 6.04803e-05
    outer loop
      vertex -3.55106 -22.4205 1
      vertex -2.87958 -22.5 0.599999
      vertex -1.78102 -22.63 1
    endloop
  endfacet
  facet normal -0.117517 -0.993071 0
    outer loop
      vertex -1.78102 -22.63 0
      vertex -2.87958 -22.5 0.599999
      vertex -2.87958 -22.5 0
    endloop
  endfacet
  facet normal -0.117517 -0.993071 0
    outer loop
      vertex -2.87958 -22.5 0.599999
      vertex -1.78102 -22.63 0
      vertex -1.78102 -22.63 1
    endloop
  endfacet
  facet normal -0.83148 -0.555554 0
    outer loop
      vertex -18.3647 -13.3427 0
      vertex -19.3549 -11.8607 1
      vertex -19.3549 -11.8607 0
    endloop
  endfacet
  facet normal -0.83148 -0.555554 0
    outer loop
      vertex -19.3549 -11.8607 1
      vertex -18.3647 -13.3427 0
      vertex -18.3647 -13.3427 1
    endloop
  endfacet
  facet normal -0.980788 -0.195075 0
    outer loop
      vertex -22.0728 -5.29921 0
      vertex -22.4205 -3.55106 1
      vertex -22.4205 -3.55106 0
    endloop
  endfacet
  facet normal -0.980788 -0.195075 0
    outer loop
      vertex -22.4205 -3.55106 1
      vertex -22.0728 -5.29921 0
      vertex -22.0728 -5.29921 1
    endloop
  endfacet
  facet normal 0.993068 -0.117538 0
    outer loop
      vertex 22.4205 -3.55106 1
      vertex 22.63 -1.78102 0
      vertex 22.63 -1.78102 1
    endloop
  endfacet
  facet normal 0.993068 -0.117538 0
    outer loop
      vertex 22.63 -1.78102 0
      vertex 22.4205 -3.55106 1
      vertex 22.4205 -3.55106 0
    endloop
  endfacet
  facet normal 0.0979884 -0.995188 0
    outer loop
      vertex 12 -21.3 0
      vertex 12.9364 -21.2078 1
      vertex 12 -21.3 1
    endloop
  endfacet
  facet normal 0.0979884 -0.995188 0
    outer loop
      vertex 12.9364 -21.2078 1
      vertex 12 -21.3 0
      vertex 12.9364 -21.2078 0
    endloop
  endfacet
  facet normal 0 -1 0
    outer loop
      vertex 7.798 -21.3 0
      vertex 12 -21.3 1
      vertex 7.798 -21.3 1
    endloop
  endfacet
  facet normal 0 -1 -0
    outer loop
      vertex 12 -21.3 1
      vertex 7.798 -21.3 0
      vertex 12 -21.3 0
    endloop
  endfacet
  facet normal 0 -1 0
    outer loop
      vertex -12 -21.3 0
      vertex -7.798 -21.3 1
      vertex -12 -21.3 1
    endloop
  endfacet
  facet normal 0 -1 -0
    outer loop
      vertex -7.798 -21.3 1
      vertex -12 -21.3 0
      vertex -7.798 -21.3 0
    endloop
  endfacet
  facet normal 0.634418 -0.772991 0
    outer loop
      vertex 14.6667 -20.4911 0
      vertex 15.3941 -19.8941 1
      vertex 14.6667 -20.4911 1
    endloop
  endfacet
  facet normal 0.634418 -0.772991 0
    outer loop
      vertex 15.3941 -19.8941 1
      vertex 14.6667 -20.4911 0
      vertex 15.3941 -19.8941 0
    endloop
  endfacet
  facet normal 0.772991 -0.634418 0
    outer loop
      vertex 15.3941 -19.8941 1
      vertex 15.9911 -19.1667 0
      vertex 15.9911 -19.1667 1
    endloop
  endfacet
  facet normal 0.772991 -0.634418 0
    outer loop
      vertex 15.9911 -19.1667 0
      vertex 15.3941 -19.8941 1
      vertex 15.3941 -19.8941 0
    endloop
  endfacet
  facet normal -0.0979884 -0.995188 0
    outer loop
      vertex -12.9364 -21.2078 0
      vertex -12 -21.3 1
      vertex -12.9364 -21.2078 1
    endloop
  endfacet
  facet normal -0.0979884 -0.995188 -0
    outer loop
      vertex -12 -21.3 1
      vertex -12.9364 -21.2078 0
      vertex -12 -21.3 0
    endloop
  endfacet
  facet normal 0 1 -0
    outer loop
      vertex -7.798 21.3 0
      vertex -12 21.3 1
      vertex -7.798 21.3 1
    endloop
  endfacet
  facet normal 0 1 0
    outer loop
      vertex -12 21.3 1
      vertex -7.798 21.3 0
      vertex -12 21.3 0
    endloop
  endfacet
  facet normal 0 1 -0
    outer loop
      vertex 12 21.3 0
      vertex 7.798 21.3 1
      vertex 12 21.3 1
    endloop
  endfacet
  facet normal 0 1 0
    outer loop
      vertex 7.798 21.3 1
      vertex 12 21.3 0
      vertex 7.798 21.3 0
    endloop
  endfacet
  facet normal 1 -0 0
    outer loop
      vertex 16.8 -16.5 1
      vertex 16.8 -15.2414 0
      vertex 16.8 -15.2414 1
    endloop
  endfacet
  facet normal 1 0 0
    outer loop
      vertex 16.8 -15.2414 0
      vertex 16.8 -16.5 1
      vertex 16.8 -16.5 0
    endloop
  endfacet
  facet normal 1 -0 0
    outer loop
      vertex 16.8 15.2414 1
      vertex 16.8 16.5 0
      vertex 16.8 16.5 1
    endloop
  endfacet
  facet normal 1 0 0
    outer loop
      vertex 16.8 16.5 0
      vertex 16.8 15.2414 1
      vertex 16.8 15.2414 0
    endloop
  endfacet
  facet normal 0.471366 -0.881938 0
    outer loop
      vertex 13.8369 -20.9346 0
      vertex 14.6667 -20.4911 1
      vertex 13.8369 -20.9346 1
    endloop
  endfacet
  facet normal 0.471366 -0.881938 0
    outer loop
      vertex 14.6667 -20.4911 1
      vertex 13.8369 -20.9346 0
      vertex 14.6667 -20.4911 0
    endloop
  endfacet
  facet normal -0.471366 -0.881938 0
    outer loop
      vertex -14.6667 -20.4911 0
      vertex -13.8369 -20.9346 1
      vertex -14.6667 -20.4911 1
    endloop
  endfacet
  facet normal -0.471366 -0.881938 -0
    outer loop
      vertex -13.8369 -20.9346 1
      vertex -14.6667 -20.4911 0
      vertex -13.8369 -20.9346 0
    endloop
  endfacet
  facet normal -0.772991 -0.634418 0
    outer loop
      vertex -15.3941 -19.8941 0
      vertex -15.9911 -19.1667 1
      vertex -15.9911 -19.1667 0
    endloop
  endfacet
  facet normal -0.772991 -0.634418 0
    outer loop
      vertex -15.9911 -19.1667 1
      vertex -15.3941 -19.8941 0
      vertex -15.3941 -19.8941 1
    endloop
  endfacet
  facet normal -0.772991 0.634418 0
    outer loop
      vertex -15.9911 19.1667 0
      vertex -15.3941 19.8941 1
      vertex -15.3941 19.8941 0
    endloop
  endfacet
  facet normal -0.772991 0.634418 0
    outer loop
      vertex -15.3941 19.8941 1
      vertex -15.9911 19.1667 0
      vertex -15.9911 19.1667 1
    endloop
  endfacet
  facet normal -0.995188 0.0979884 0
    outer loop
      vertex -16.8 16.5 0
      vertex -16.7078 17.4364 1
      vertex -16.7078 17.4364 0
    endloop
  endfacet
  facet normal -0.995188 0.0979884 0
    outer loop
      vertex -16.7078 17.4364 1
      vertex -16.8 16.5 0
      vertex -16.8 16.5 1
    endloop
  endfacet
  facet normal -1 0 0
    outer loop
      vertex -16.8 15.2414 0
      vertex -16.8 16.5 1
      vertex -16.8 16.5 0
    endloop
  endfacet
  facet normal -1 -0 0
    outer loop
      vertex -16.8 16.5 1
      vertex -16.8 15.2414 0
      vertex -16.8 15.2414 1
    endloop
  endfacet
  facet normal -1 0 0
    outer loop
      vertex -16.8 -16.5 0
      vertex -16.8 -15.2414 1
      vertex -16.8 -15.2414 0
    endloop
  endfacet
  facet normal -1 -0 0
    outer loop
      vertex -16.8 -15.2414 1
      vertex -16.8 -16.5 0
      vertex -16.8 -16.5 1
    endloop
  endfacet
  facet normal -0.471366 0.881938 0
    outer loop
      vertex -13.8369 20.9346 0
      vertex -14.6667 20.4911 1
      vertex -13.8369 20.9346 1
    endloop
  endfacet
  facet normal -0.471366 0.881938 0
    outer loop
      vertex -14.6667 20.4911 1
      vertex -13.8369 20.9346 0
      vertex -14.6667 20.4911 0
    endloop
  endfacet
  facet normal 0.634418 0.772991 -0
    outer loop
      vertex 15.3941 19.8941 0
      vertex 14.6667 20.4911 1
      vertex 15.3941 19.8941 1
    endloop
  endfacet
  facet normal 0.634418 0.772991 0
    outer loop
      vertex 14.6667 20.4911 1
      vertex 15.3941 19.8941 0
      vertex 14.6667 20.4911 0
    endloop
  endfacet
  facet normal 0.995188 0.0979884 0
    outer loop
      vertex 16.8 16.5 1
      vertex 16.7078 17.4364 0
      vertex 16.7078 17.4364 1
    endloop
  endfacet
  facet normal 0.995188 0.0979884 0
    outer loop
      vertex 16.7078 17.4364 0
      vertex 16.8 16.5 1
      vertex 16.8 16.5 0
    endloop
  endfacet
  facet normal 0.772991 0.634418 0
    outer loop
      vertex 15.9911 19.1667 1
      vertex 15.3941 19.8941 0
      vertex 15.3941 19.8941 1
    endloop
  endfacet
  facet normal 0.772991 0.634418 0
    outer loop
      vertex 15.3941 19.8941 0
      vertex 15.9911 19.1667 1
      vertex 15.9911 19.1667 0
    endloop
  endfacet
  facet normal 0.881938 -0.471366 0
    outer loop
      vertex 15.9911 -19.1667 1
      vertex 16.4346 -18.3369 0
      vertex 16.4346 -18.3369 1
    endloop
  endfacet
  facet normal 0.881938 -0.471366 0
    outer loop
      vertex 16.4346 -18.3369 0
      vertex 15.9911 -19.1667 1
      vertex 15.9911 -19.1667 0
    endloop
  endfacet
  facet normal -0.29032 -0.95693 0
    outer loop
      vertex -13.8369 -20.9346 0
      vertex -12.9364 -21.2078 1
      vertex -13.8369 -20.9346 1
    endloop
  endfacet
  facet normal -0.29032 -0.95693 -0
    outer loop
      vertex -12.9364 -21.2078 1
      vertex -13.8369 -20.9346 0
      vertex -12.9364 -21.2078 0
    endloop
  endfacet
  facet normal -0.634418 -0.772991 0
    outer loop
      vertex -15.3941 -19.8941 0
      vertex -14.6667 -20.4911 1
      vertex -15.3941 -19.8941 1
    endloop
  endfacet
  facet normal -0.634418 -0.772991 -0
    outer loop
      vertex -14.6667 -20.4911 1
      vertex -15.3941 -19.8941 0
      vertex -14.6667 -20.4911 0
    endloop
  endfacet
  facet normal -0.881938 0.471366 0
    outer loop
      vertex -16.4346 18.3369 0
      vertex -15.9911 19.1667 1
      vertex -15.9911 19.1667 0
    endloop
  endfacet
  facet normal -0.881938 0.471366 0
    outer loop
      vertex -15.9911 19.1667 1
      vertex -16.4346 18.3369 0
      vertex -16.4346 18.3369 1
    endloop
  endfacet
  facet normal -0.95693 0.29032 0
    outer loop
      vertex -16.7078 17.4364 0
      vertex -16.4346 18.3369 1
      vertex -16.4346 18.3369 0
    endloop
  endfacet
  facet normal -0.95693 0.29032 0
    outer loop
      vertex -16.4346 18.3369 1
      vertex -16.7078 17.4364 0
      vertex -16.7078 17.4364 1
    endloop
  endfacet
  facet normal -0.881938 -0.471366 0
    outer loop
      vertex -15.9911 -19.1667 0
      vertex -16.4346 -18.3369 1
      vertex -16.4346 -18.3369 0
    endloop
  endfacet
  facet normal -0.881938 -0.471366 0
    outer loop
      vertex -16.4346 -18.3369 1
      vertex -15.9911 -19.1667 0
      vertex -15.9911 -19.1667 1
    endloop
  endfacet
  facet normal -0.634418 0.772991 0
    outer loop
      vertex -14.6667 20.4911 0
      vertex -15.3941 19.8941 1
      vertex -14.6667 20.4911 1
    endloop
  endfacet
  facet normal -0.634418 0.772991 0
    outer loop
      vertex -15.3941 19.8941 1
      vertex -14.6667 20.4911 0
      vertex -15.3941 19.8941 0
    endloop
  endfacet
  facet normal 0.29032 -0.95693 0
    outer loop
      vertex 12.9364 -21.2078 0
      vertex 13.8369 -20.9346 1
      vertex 12.9364 -21.2078 1
    endloop
  endfacet
  facet normal 0.29032 -0.95693 0
    outer loop
      vertex 13.8369 -20.9346 1
      vertex 12.9364 -21.2078 0
      vertex 13.8369 -20.9346 0
    endloop
  endfacet
  facet normal -0.95693 -0.29032 0
    outer loop
      vertex -16.4346 -18.3369 0
      vertex -16.7078 -17.4364 1
      vertex -16.7078 -17.4364 0
    endloop
  endfacet
  facet normal -0.95693 -0.29032 0
    outer loop
      vertex -16.7078 -17.4364 1
      vertex -16.4346 -18.3369 0
      vertex -16.4346 -18.3369 1
    endloop
  endfacet
  facet normal -0.995188 -0.0979884 0
    outer loop
      vertex -16.7078 -17.4364 0
      vertex -16.8 -16.5 1
      vertex -16.8 -16.5 0
    endloop
  endfacet
  facet normal -0.995188 -0.0979884 0
    outer loop
      vertex -16.8 -16.5 1
      vertex -16.7078 -17.4364 0
      vertex -16.7078 -17.4364 1
    endloop
  endfacet
  facet normal -0.29032 0.95693 0
    outer loop
      vertex -12.9364 21.2078 0
      vertex -13.8369 20.9346 1
      vertex -12.9364 21.2078 1
    endloop
  endfacet
  facet normal -0.29032 0.95693 0
    outer loop
      vertex -13.8369 20.9346 1
      vertex -12.9364 21.2078 0
      vertex -13.8369 20.9346 0
    endloop
  endfacet
  facet normal -0.0979884 0.995188 0
    outer loop
      vertex -12 21.3 0
      vertex -12.9364 21.2078 1
      vertex -12 21.3 1
    endloop
  endfacet
  facet normal -0.0979884 0.995188 0
    outer loop
      vertex -12.9364 21.2078 1
      vertex -12 21.3 0
      vertex -12.9364 21.2078 0
    endloop
  endfacet
  facet normal 0.995188 -0.0979884 0
    outer loop
      vertex 16.7078 -17.4364 1
      vertex 16.8 -16.5 0
      vertex 16.8 -16.5 1
    endloop
  endfacet
  facet normal 0.995188 -0.0979884 0
    outer loop
      vertex 16.8 -16.5 0
      vertex 16.7078 -17.4364 1
      vertex 16.7078 -17.4364 0
    endloop
  endfacet
  facet normal 0.95693 -0.29032 0
    outer loop
      vertex 16.4346 -18.3369 1
      vertex 16.7078 -17.4364 0
      vertex 16.7078 -17.4364 1
    endloop
  endfacet
  facet normal 0.95693 -0.29032 0
    outer loop
      vertex 16.7078 -17.4364 0
      vertex 16.4346 -18.3369 1
      vertex 16.4346 -18.3369 0
    endloop
  endfacet
  facet normal 0.881938 0.471366 0
    outer loop
      vertex 16.4346 18.3369 1
      vertex 15.9911 19.1667 0
      vertex 15.9911 19.1667 1
    endloop
  endfacet
  facet normal 0.881938 0.471366 0
    outer loop
      vertex 15.9911 19.1667 0
      vertex 16.4346 18.3369 1
      vertex 16.4346 18.3369 0
    endloop
  endfacet
  facet normal 0.95693 0.29032 0
    outer loop
      vertex 16.7078 17.4364 1
      vertex 16.4346 18.3369 0
      vertex 16.4346 18.3369 1
    endloop
  endfacet
  facet normal 0.95693 0.29032 0
    outer loop
      vertex 16.4346 18.3369 0
      vertex 16.7078 17.4364 1
      vertex 16.7078 17.4364 0
    endloop
  endfacet
  facet normal 0.471366 0.881938 -0
    outer loop
      vertex 14.6667 20.4911 0
      vertex 13.8369 20.9346 1
      vertex 14.6667 20.4911 1
    endloop
  endfacet
  facet normal 0.471366 0.881938 0
    outer loop
      vertex 13.8369 20.9346 1
      vertex 14.6667 20.4911 0
      vertex 13.8369 20.9346 0
    endloop
  endfacet
  facet normal 0.0979884 0.995188 -0
    outer loop
      vertex 12.9364 21.2078 0
      vertex 12 21.3 1
      vertex 12.9364 21.2078 1
    endloop
  endfacet
  facet normal 0.0979884 0.995188 0
    outer loop
      vertex 12 21.3 1
      vertex 12.9364 21.2078 0
      vertex 12 21.3 0
    endloop
  endfacet
  facet normal 0.29032 0.95693 -0
    outer loop
      vertex 13.8369 20.9346 0
      vertex 12.9364 21.2078 1
      vertex 13.8369 20.9346 1
    endloop
  endfacet
  facet normal 0.29032 0.95693 0
    outer loop
      vertex 12.9364 21.2078 1
      vertex 13.8369 20.9346 0
      vertex 12.9364 21.2078 0
    endloop
  endfacet
  facet normal -0.866024 -0.500003 0
    outer loop
      vertex 4.56773 2.03368 0
      vertex 4.04508 2.93893 0.599999
      vertex 4.04508 2.93893 0
    endloop
  endfacet
  facet normal -0.866024 -0.500003 0
    outer loop
      vertex 4.04508 2.93893 0.599999
      vertex 4.56773 2.03368 0
      vertex 4.56773 2.03368 0.599999
    endloop
  endfacet
  facet normal 0.951056 -0.309018 0
    outer loop
      vertex -4.89074 1.03956 0.599999
      vertex -4.56773 2.03368 0
      vertex -4.56773 2.03368 0.599999
    endloop
  endfacet
  facet normal 0.951056 -0.309018 0
    outer loop
      vertex -4.56773 2.03368 0
      vertex -4.89074 1.03956 0.599999
      vertex -4.89074 1.03956 0
    endloop
  endfacet
  facet normal -0.743142 -0.669133 0
    outer loop
      vertex 4.04508 2.93893 0
      vertex 3.34565 3.71572 0.599999
      vertex 3.34565 3.71572 0
    endloop
  endfacet
  facet normal -0.743142 -0.669133 0
    outer loop
      vertex 3.34565 3.71572 0.599999
      vertex 4.04508 2.93893 0
      vertex 4.04508 2.93893 0.599999
    endloop
  endfacet
  facet normal 0.207915 -0.978147 0
    outer loop
      vertex -1.54508 4.75528 0
      vertex -0.522642 4.97261 0.599999
      vertex -1.54508 4.75528 0.599999
    endloop
  endfacet
  facet normal 0.207915 -0.978147 0
    outer loop
      vertex -0.522642 4.97261 0.599999
      vertex -1.54508 4.75528 0
      vertex -0.522642 4.97261 0
    endloop
  endfacet
  facet normal 0.866024 -0.500003 0
    outer loop
      vertex -4.56773 2.03368 0.599999
      vertex -4.04508 2.93893 0
      vertex -4.04508 2.93893 0.599999
    endloop
  endfacet
  facet normal 0.866024 -0.500003 0
    outer loop
      vertex -4.04508 2.93893 0
      vertex -4.56773 2.03368 0.599999
      vertex -4.56773 2.03368 0
    endloop
  endfacet
  facet normal -0.994522 0.104526 0
    outer loop
      vertex 4.89074 -1.03956 0
      vertex 5 0 0.599999
      vertex 5 0 0
    endloop
  endfacet
  facet normal -0.994522 0.104526 0
    outer loop
      vertex 5 0 0.599999
      vertex 4.89074 -1.03956 0
      vertex 4.89074 -1.03956 0.599999
    endloop
  endfacet
  facet normal -0.587791 -0.809013 0
    outer loop
      vertex 2.5 4.33013 0
      vertex 3.34565 3.71572 0.599999
      vertex 2.5 4.33013 0.599999
    endloop
  endfacet
  facet normal -0.587791 -0.809013 -0
    outer loop
      vertex 3.34565 3.71572 0.599999
      vertex 2.5 4.33013 0
      vertex 3.34565 3.71572 0
    endloop
  endfacet
  facet normal 0 -1 0
    outer loop
      vertex -0.522642 4.97261 0
      vertex 0.522642 4.97261 0.599999
      vertex -0.522642 4.97261 0.599999
    endloop
  endfacet
  facet normal 0 -1 -0
    outer loop
      vertex 0.522642 4.97261 0.599999
      vertex -0.522642 4.97261 0
      vertex 0.522642 4.97261 0
    endloop
  endfacet
  facet normal -0.40673 -0.913548 0
    outer loop
      vertex 1.54508 4.75528 0
      vertex 2.5 4.33013 0.599999
      vertex 1.54508 4.75528 0.599999
    endloop
  endfacet
  facet normal -0.40673 -0.913548 -0
    outer loop
      vertex 2.5 4.33013 0.599999
      vertex 1.54508 4.75528 0
      vertex 2.5 4.33013 0
    endloop
  endfacet
  facet normal 0.994522 -0.104526 0
    outer loop
      vertex -5 0 0.599999
      vertex -4.89074 1.03956 0
      vertex -4.89074 1.03956 0.599999
    endloop
  endfacet
  facet normal 0.994522 -0.104526 0
    outer loop
      vertex -4.89074 1.03956 0
      vertex -5 0 0.599999
      vertex -5 0 0
    endloop
  endfacet
  facet normal 0.743142 -0.669133 0
    outer loop
      vertex -4.04508 2.93893 0.599999
      vertex -3.34565 3.71572 0
      vertex -3.34565 3.71572 0.599999
    endloop
  endfacet
  facet normal 0.743142 -0.669133 0
    outer loop
      vertex -3.34565 3.71572 0
      vertex -4.04508 2.93893 0.599999
      vertex -4.04508 2.93893 0
    endloop
  endfacet
  facet normal 0.40673 -0.913548 0
    outer loop
      vertex -2.5 4.33013 0
      vertex -1.54508 4.75528 0.599999
      vertex -2.5 4.33013 0.599999
    endloop
  endfacet
  facet normal 0.40673 -0.913548 0
    outer loop
      vertex -1.54508 4.75528 0.599999
      vertex -2.5 4.33013 0
      vertex -1.54508 4.75528 0
    endloop
  endfacet
  facet normal 0.587791 -0.809013 0
    outer loop
      vertex -3.34565 3.71572 0
      vertex -2.5 4.33013 0.599999
      vertex -3.34565 3.71572 0.599999
    endloop
  endfacet
  facet normal 0.587791 -0.809013 0
    outer loop
      vertex -2.5 4.33013 0.599999
      vertex -3.34565 3.71572 0
      vertex -2.5 4.33013 0
    endloop
  endfacet
  facet normal -0.994522 -0.104526 0
    outer loop
      vertex 5 0 0
      vertex 4.89074 1.03956 0.599999
      vertex 4.89074 1.03956 0
    endloop
  endfacet
  facet normal -0.994522 -0.104526 0
    outer loop
      vertex 4.89074 1.03956 0.599999
      vertex 5 0 0
      vertex 5 0 0.599999
    endloop
  endfacet
  facet normal 0.587791 0.809013 -0
    outer loop
      vertex -2.5 -4.33013 0
      vertex -3.34565 -3.71572 0.599999
      vertex -2.5 -4.33013 0.599999
    endloop
  endfacet
  facet normal 0.587791 0.809013 0
    outer loop
      vertex -3.34565 -3.71572 0.599999
      vertex -2.5 -4.33013 0
      vertex -3.34565 -3.71572 0
    endloop
  endfacet
  facet normal 0.866024 0.500003 0
    outer loop
      vertex -4.04508 -2.93893 0.599999
      vertex -4.56773 -2.03368 0
      vertex -4.56773 -2.03368 0.599999
    endloop
  endfacet
  facet normal 0.866024 0.500003 0
    outer loop
      vertex -4.56773 -2.03368 0
      vertex -4.04508 -2.93893 0.599999
      vertex -4.04508 -2.93893 0
    endloop
  endfacet
  facet normal -0.587791 0.809013 0
    outer loop
      vertex 3.34565 -3.71572 0
      vertex 2.5 -4.33013 0.599999
      vertex 3.34565 -3.71572 0.599999
    endloop
  endfacet
  facet normal -0.587791 0.809013 0
    outer loop
      vertex 2.5 -4.33013 0.599999
      vertex 3.34565 -3.71572 0
      vertex 2.5 -4.33013 0
    endloop
  endfacet
  facet normal -0.951056 -0.309018 0
    outer loop
      vertex 4.89074 1.03956 0
      vertex 4.56773 2.03368 0.599999
      vertex 4.56773 2.03368 0
    endloop
  endfacet
  facet normal -0.951056 -0.309018 0
    outer loop
      vertex 4.56773 2.03368 0.599999
      vertex 4.89074 1.03956 0
      vertex 4.89074 1.03956 0.599999
    endloop
  endfacet
  facet normal -0.207915 -0.978147 0
    outer loop
      vertex 0.522642 4.97261 0
      vertex 1.54508 4.75528 0.599999
      vertex 0.522642 4.97261 0.599999
    endloop
  endfacet
  facet normal -0.207915 -0.978147 -0
    outer loop
      vertex 1.54508 4.75528 0.599999
      vertex 0.522642 4.97261 0
      vertex 1.54508 4.75528 0
    endloop
  endfacet
  facet normal 0 0 -1
    outer loop
      vertex 4.89074 -1.03956 0.599999
      vertex 4.89074 1.03956 0.599999
      vertex 5 0 0.599999
    endloop
  endfacet
  facet normal 0 0 -1
    outer loop
      vertex 4.56773 -2.03368 0.599999
      vertex 4.89074 1.03956 0.599999
      vertex 4.89074 -1.03956 0.599999
    endloop
  endfacet
  facet normal 0 0 -1
    outer loop
      vertex 4.56773 -2.03368 0.599999
      vertex 4.56773 2.03368 0.599999
      vertex 4.89074 1.03956 0.599999
    endloop
  endfacet
  facet normal 0 0 -1
    outer loop
      vertex 4.04508 -2.93893 0.599999
      vertex 4.56773 2.03368 0.599999
      vertex 4.56773 -2.03368 0.599999
    endloop
  endfacet
  facet normal 0 0 -1
    outer loop
      vertex 4.04508 -2.93893 0.599999
      vertex 4.04508 2.93893 0.599999
      vertex 4.56773 2.03368 0.599999
    endloop
  endfacet
  facet normal 0 0 -1
    outer loop
      vertex 3.34565 -3.71572 0.599999
      vertex 4.04508 2.93893 0.599999
      vertex 4.04508 -2.93893 0.599999
    endloop
  endfacet
  facet normal 0 0 -1
    outer loop
      vertex 3.34565 -3.71572 0.599999
      vertex 3.34565 3.71572 0.599999
      vertex 4.04508 2.93893 0.599999
    endloop
  endfacet
  facet normal 0 0 -1
    outer loop
      vertex 2.5 -4.33013 0.599999
      vertex 3.34565 3.71572 0.599999
      vertex 3.34565 -3.71572 0.599999
    endloop
  endfacet
  facet normal 0 0 -1
    outer loop
      vertex 2.5 -4.33013 0.599999
      vertex 2.5 4.33013 0.599999
      vertex 3.34565 3.71572 0.599999
    endloop
  endfacet
  facet normal 0 0 -1
    outer loop
      vertex 1.54508 -4.75528 0.599999
      vertex 2.5 4.33013 0.599999
      vertex 2.5 -4.33013 0.599999
    endloop
  endfacet
  facet normal 0 0 -1
    outer loop
      vertex 1.54508 -4.75528 0.599999
      vertex 1.54508 4.75528 0.599999
      vertex 2.5 4.33013 0.599999
    endloop
  endfacet
  facet normal 0 0 -1
    outer loop
      vertex 0.522642 -4.97261 0.599999
      vertex 1.54508 4.75528 0.599999
      vertex 1.54508 -4.75528 0.599999
    endloop
  endfacet
  facet normal 0 0 -1
    outer loop
      vertex 0.522642 -4.97261 0.599999
      vertex 0.522642 4.97261 0.599999
      vertex 1.54508 4.75528 0.599999
    endloop
  endfacet
  facet normal 0 0 -1
    outer loop
      vertex -0.522642 -4.97261 0.599999
      vertex 0.522642 4.97261 0.599999
      vertex 0.522642 -4.97261 0.599999
    endloop
  endfacet
  facet normal 0 0 -1
    outer loop
      vertex -0.522642 -4.97261 0.599999
      vertex -0.522642 4.97261 0.599999
      vertex 0.522642 4.97261 0.599999
    endloop
  endfacet
  facet normal 0 0 -1
    outer loop
      vertex -1.54508 -4.75528 0.599999
      vertex -0.522642 4.97261 0.599999
      vertex -0.522642 -4.97261 0.599999
    endloop
  endfacet
  facet normal 0 0 -1
    outer loop
      vertex -1.54508 -4.75528 0.599999
      vertex -1.54508 4.75528 0.599999
      vertex -0.522642 4.97261 0.599999
    endloop
  endfacet
  facet normal 0 0 -1
    outer loop
      vertex -2.5 -4.33013 0.599999
      vertex -1.54508 4.75528 0.599999
      vertex -1.54508 -4.75528 0.599999
    endloop
  endfacet
  facet normal 0 0 -1
    outer loop
      vertex -2.5 -4.33013 0.599999
      vertex -2.5 4.33013 0.599999
      vertex -1.54508 4.75528 0.599999
    endloop
  endfacet
  facet normal 0 0 -1
    outer loop
      vertex -3.34565 -3.71572 0.599999
      vertex -2.5 4.33013 0.599999
      vertex -2.5 -4.33013 0.599999
    endloop
  endfacet
  facet normal 0 0 -1
    outer loop
      vertex -3.34565 -3.71572 0.599999
      vertex -3.34565 3.71572 0.599999
      vertex -2.5 4.33013 0.599999
    endloop
  endfacet
  facet normal 0 0 -1
    outer loop
      vertex -4.04508 -2.93893 0.599999
      vertex -3.34565 3.71572 0.599999
      vertex -3.34565 -3.71572 0.599999
    endloop
  endfacet
  facet normal 0 0 -1
    outer loop
      vertex -4.04508 -2.93893 0.599999
      vertex -4.04508 2.93893 0.599999
      vertex -3.34565 3.71572 0.599999
    endloop
  endfacet
  facet normal 0 0 -1
    outer loop
      vertex -4.56773 -2.03368 0.599999
      vertex -4.04508 2.93893 0.599999
      vertex -4.04508 -2.93893 0.599999
    endloop
  endfacet
  facet normal 0 0 -1
    outer loop
      vertex -4.56773 -2.03368 0.599999
      vertex -4.56773 2.03368 0.599999
      vertex -4.04508 2.93893 0.599999
    endloop
  endfacet
  facet normal 0 0 -1
    outer loop
      vertex -4.89074 -1.03956 0.599999
      vertex -4.56773 2.03368 0.599999
      vertex -4.56773 -2.03368 0.599999
    endloop
  endfacet
  facet normal 0 0 -1
    outer loop
      vertex -4.89074 -1.03956 0.599999
      vertex -4.89074 1.03956 0.599999
      vertex -4.56773 2.03368 0.599999
    endloop
  endfacet
  facet normal 0 -0 -1
    outer loop
      vertex -4.89074 1.03956 0.599999
      vertex -4.89074 -1.03956 0.599999
      vertex -5 0 0.599999
    endloop
  endfacet
  facet normal -0.866024 0.500003 0
    outer loop
      vertex 4.04508 -2.93893 0
      vertex 4.56773 -2.03368 0.599999
      vertex 4.56773 -2.03368 0
    endloop
  endfacet
  facet normal -0.866024 0.500003 0
    outer loop
      vertex 4.56773 -2.03368 0.599999
      vertex 4.04508 -2.93893 0
      vertex 4.04508 -2.93893 0.599999
    endloop
  endfacet
  facet normal 0.994522 0.104526 0
    outer loop
      vertex -4.89074 -1.03956 0.599999
      vertex -5 0 0
      vertex -5 0 0.599999
    endloop
  endfacet
  facet normal 0.994522 0.104526 0
    outer loop
      vertex -5 0 0
      vertex -4.89074 -1.03956 0.599999
      vertex -4.89074 -1.03956 0
    endloop
  endfacet
  facet normal 0.743142 0.669133 0
    outer loop
      vertex -3.34565 -3.71572 0.599999
      vertex -4.04508 -2.93893 0
      vertex -4.04508 -2.93893 0.599999
    endloop
  endfacet
  facet normal 0.743142 0.669133 0
    outer loop
      vertex -4.04508 -2.93893 0
      vertex -3.34565 -3.71572 0.599999
      vertex -3.34565 -3.71572 0
    endloop
  endfacet
  facet normal -0.207915 0.978147 0
    outer loop
      vertex 1.54508 -4.75528 0
      vertex 0.522642 -4.97261 0.599999
      vertex 1.54508 -4.75528 0.599999
    endloop
  endfacet
  facet normal -0.207915 0.978147 0
    outer loop
      vertex 0.522642 -4.97261 0.599999
      vertex 1.54508 -4.75528 0
      vertex 0.522642 -4.97261 0
    endloop
  endfacet
  facet normal -0.40673 0.913548 0
    outer loop
      vertex 2.5 -4.33013 0
      vertex 1.54508 -4.75528 0.599999
      vertex 2.5 -4.33013 0.599999
    endloop
  endfacet
  facet normal -0.40673 0.913548 0
    outer loop
      vertex 1.54508 -4.75528 0.599999
      vertex 2.5 -4.33013 0
      vertex 1.54508 -4.75528 0
    endloop
  endfacet
  facet normal -0.951056 0.309018 0
    outer loop
      vertex 4.56773 -2.03368 0
      vertex 4.89074 -1.03956 0.599999
      vertex 4.89074 -1.03956 0
    endloop
  endfacet
  facet normal -0.951056 0.309018 0
    outer loop
      vertex 4.89074 -1.03956 0.599999
      vertex 4.56773 -2.03368 0
      vertex 4.56773 -2.03368 0.599999
    endloop
  endfacet
  facet normal 0 1 -0
    outer loop
      vertex 0.522642 -4.97261 0
      vertex -0.522642 -4.97261 0.599999
      vertex 0.522642 -4.97261 0.599999
    endloop
  endfacet
  facet normal 0 1 0
    outer loop
      vertex -0.522642 -4.97261 0.599999
      vertex 0.522642 -4.97261 0
      vertex -0.522642 -4.97261 0
    endloop
  endfacet
  facet normal 0.207915 0.978147 -0
    outer loop
      vertex -0.522642 -4.97261 0
      vertex -1.54508 -4.75528 0.599999
      vertex -0.522642 -4.97261 0.599999
    endloop
  endfacet
  facet normal 0.207915 0.978147 0
    outer loop
      vertex -1.54508 -4.75528 0.599999
      vertex -0.522642 -4.97261 0
      vertex -1.54508 -4.75528 0
    endloop
  endfacet
  facet normal 0.951056 0.309018 0
    outer loop
      vertex -4.56773 -2.03368 0.599999
      vertex -4.89074 -1.03956 0
      vertex -4.89074 -1.03956 0.599999
    endloop
  endfacet
  facet normal 0.951056 0.309018 0
    outer loop
      vertex -4.89074 -1.03956 0
      vertex -4.56773 -2.03368 0.599999
      vertex -4.56773 -2.03368 0
    endloop
  endfacet
  facet normal -0.743142 0.669133 0
    outer loop
      vertex 3.34565 -3.71572 0
      vertex 4.04508 -2.93893 0.599999
      vertex 4.04508 -2.93893 0
    endloop
  endfacet
  facet normal -0.743142 0.669133 0
    outer loop
      vertex 4.04508 -2.93893 0.599999
      vertex 3.34565 -3.71572 0
      vertex 3.34565 -3.71572 0.599999
    endloop
  endfacet
  facet normal 0.40673 0.913548 -0
    outer loop
      vertex -1.54508 -4.75528 0
      vertex -2.5 -4.33013 0.599999
      vertex -1.54508 -4.75528 0.599999
    endloop
  endfacet
  facet normal 0.40673 0.913548 0
    outer loop
      vertex -2.5 -4.33013 0.599999
      vertex -1.54508 -4.75528 0
      vertex -2.5 -4.33013 0
    endloop
  endfacet
  facet normal 1 -0 0
    outer loop
      vertex -3.25 -22.4562 0.599999
      vertex -3.25 -16.5 0
      vertex -3.25 -16.5 0.599999
    endloop
  endfacet
  facet normal 1 0 0
    outer loop
      vertex -3.25 -16.5 0
      vertex -3.25 -22.4562 0.599999
      vertex -3.25 -22.4562 0
    endloop
  endfacet
  facet normal 0 0 -1
    outer loop
      vertex 2.87958 -22.5 0.599999
      vertex 3.25 -16.5 0.599999
      vertex 3.25 -22.4562 0.599999
    endloop
  endfacet
  facet normal 0 0 -1
    outer loop
      vertex -2.87958 -22.5 0.599999
      vertex 3.25 -16.5 0.599999
      vertex 2.87958 -22.5 0.599999
    endloop
  endfacet
  facet normal 0 0 -1
    outer loop
      vertex -3.25 -16.5 0.599999
      vertex -2.87958 -22.5 0.599999
      vertex -3.25 -22.4562 0.599999
    endloop
  endfacet
  facet normal 0 0 -1
    outer loop
      vertex -2.87958 -22.5 0.599999
      vertex -3.25 -16.5 0.599999
      vertex 3.25 -16.5 0.599999
    endloop
  endfacet
  facet normal -1 0 0
    outer loop
      vertex 3.25 -22.4562 0
      vertex 3.25 -16.5 0.599999
      vertex 3.25 -16.5 0
    endloop
  endfacet
  facet normal -1 -0 0
    outer loop
      vertex 3.25 -16.5 0.599999
      vertex 3.25 -22.4562 0
      vertex 3.25 -22.4562 0.599999
    endloop
  endfacet
  facet normal 0 1 -0
    outer loop
      vertex 2.87958 -22.5 0
      vertex -2.87958 -22.5 0.599999
      vertex 2.87958 -22.5 0.599999
    endloop
  endfacet
  facet normal 0 1 0
    outer loop
      vertex -2.87958 -22.5 0.599999
      vertex 2.87958 -22.5 0
      vertex -2.87958 -22.5 0
    endloop
  endfacet
  facet normal 0 -1 0
    outer loop
      vertex -3.25 -16.5 0
      vertex 3.25 -16.5 0.599999
      vertex -3.25 -16.5 0.599999
    endloop
  endfacet
  facet normal 0 -1 -0
    outer loop
      vertex 3.25 -16.5 0.599999
      vertex -3.25 -16.5 0
      vertex 3.25 -16.5 0
    endloop
  endfacet
endsolid OpenSCAD_Model
