solid OpenSCAD_Model
  facet normal 0.707106 -0.707107 0
    outer loop
      vertex 36.3858 -8.04999 0
      vertex 44.4358 0 13
      vertex 36.3858 -8.04999 13
    endloop
  endfacet
  facet normal 0.707106 -0.707107 0
    outer loop
      vertex 44.4358 0 13
      vertex 36.3858 -8.04999 0
      vertex 44.4358 0 0
    endloop
  endfacet
  facet normal 0 0 -1
    outer loop
      vertex 36.3858 -8.04999 0
      vertex 36.3858 8.04999 0
      vertex 44.4358 0 0
    endloop
  endfacet
  facet normal 0 0 -1
    outer loop
      vertex -36.3858 -8.04999 0
      vertex 36.3858 8.04999 0
      vertex 36.3858 -8.04999 0
    endloop
  endfacet
  facet normal 0 0 -1
    outer loop
      vertex -36.3858 -8.04999 0
      vertex -36.3858 8.04999 0
      vertex 36.3858 8.04999 0
    endloop
  endfacet
  facet normal 0 -0 -1
    outer loop
      vertex -36.3858 8.04999 0
      vertex -36.3858 -8.04999 0
      vertex -44.4358 0 0
    endloop
  endfacet
  facet normal 0.707106 0.707107 -0
    outer loop
      vertex 44.4358 0 0
      vertex 36.3858 8.04999 13
      vertex 44.4358 0 13
    endloop
  endfacet
  facet normal 0.707106 0.707107 0
    outer loop
      vertex 36.3858 8.04999 13
      vertex 44.4358 0 0
      vertex 36.3858 8.04999 0
    endloop
  endfacet
  facet normal -0.707106 -0.707107 0
    outer loop
      vertex -44.4358 0 0
      vertex -36.3858 -8.04999 13
      vertex -44.4358 0 13
    endloop
  endfacet
  facet normal -0.707106 -0.707107 -0
    outer loop
      vertex -36.3858 -8.04999 13
      vertex -44.4358 0 0
      vertex -36.3858 -8.04999 0
    endloop
  endfacet
  facet normal 0 0 1
    outer loop
      vertex 36.3858 8.04999 13
      vertex 43.3858 0 13
      vertex 44.4358 0 13
    endloop
  endfacet
  facet normal 0 0 1
    outer loop
      vertex 36.3858 8.04999 13
      vertex 36.3858 7 13
      vertex 43.3858 0 13
    endloop
  endfacet
  facet normal -0 0 1
    outer loop
      vertex -36.3858 8.04999 13
      vertex 36.3858 7 13
      vertex 36.3858 8.04999 13
    endloop
  endfacet
  facet normal 0 0 1
    outer loop
      vertex -36.3858 8.04999 13
      vertex -36.3858 7 13
      vertex 36.3858 7 13
    endloop
  endfacet
  facet normal 0 0 1
    outer loop
      vertex -36.3858 8.04999 13
      vertex -43.3858 0 13
      vertex -36.3858 7 13
    endloop
  endfacet
  facet normal 0 -0 1
    outer loop
      vertex -43.3858 0 13
      vertex -36.3858 8.04999 13
      vertex -44.4358 0 13
    endloop
  endfacet
  facet normal 0 0 1
    outer loop
      vertex 36.3858 -7 13
      vertex 44.4358 0 13
      vertex 43.3858 0 13
    endloop
  endfacet
  facet normal -0 0 1
    outer loop
      vertex 36.3858 -7 13
      vertex 36.3858 -8.04999 13
      vertex 44.4358 0 13
    endloop
  endfacet
  facet normal -0 0 1
    outer loop
      vertex -36.3858 -7 13
      vertex 36.3858 -8.04999 13
      vertex 36.3858 -7 13
    endloop
  endfacet
  facet normal 0 0 1
    outer loop
      vertex -36.3858 -7 13
      vertex -36.3858 -8.04999 13
      vertex 36.3858 -8.04999 13
    endloop
  endfacet
  facet normal 0 0 1
    outer loop
      vertex -43.3858 0 13
      vertex -36.3858 -8.04999 13
      vertex -36.3858 -7 13
    endloop
  endfacet
  facet normal 0 0 1
    outer loop
      vertex -36.3858 -8.04999 13
      vertex -43.3858 0 13
      vertex -44.4358 0 13
    endloop
  endfacet
  facet normal 0 -1 0
    outer loop
      vertex -36.3858 -8.04999 0
      vertex 36.3858 -8.04999 13
      vertex -36.3858 -8.04999 13
    endloop
  endfacet
  facet normal 0 -1 -0
    outer loop
      vertex 36.3858 -8.04999 13
      vertex -36.3858 -8.04999 0
      vertex 36.3858 -8.04999 0
    endloop
  endfacet
  facet normal -0.707106 0.707107 0
    outer loop
      vertex -36.3858 8.04999 0
      vertex -44.4358 0 13
      vertex -36.3858 8.04999 13
    endloop
  endfacet
  facet normal -0.707106 0.707107 0
    outer loop
      vertex -44.4358 0 13
      vertex -36.3858 8.04999 0
      vertex -44.4358 0 0
    endloop
  endfacet
  facet normal 0 1 -0
    outer loop
      vertex 36.3858 8.04999 0
      vertex -36.3858 8.04999 13
      vertex 36.3858 8.04999 13
    endloop
  endfacet
  facet normal 0 1 0
    outer loop
      vertex -36.3858 8.04999 13
      vertex 36.3858 8.04999 0
      vertex -36.3858 8.04999 0
    endloop
  endfacet
  facet normal 0 1 -0
    outer loop
      vertex 36.3858 -7 0.599999
      vertex -36.3858 -7 13
      vertex 36.3858 -7 13
    endloop
  endfacet
  facet normal 0 1 0
    outer loop
      vertex -36.3858 -7 13
      vertex 36.3858 -7 0.599999
      vertex -36.3858 -7 0.599999
    endloop
  endfacet
  facet normal -0.707107 0.707107 0
    outer loop
      vertex 36.3858 -7 0.599999
      vertex 43.3858 0 13
      vertex 43.3858 0 0.599999
    endloop
  endfacet
  facet normal -0.707107 0.707107 0
    outer loop
      vertex 43.3858 0 13
      vertex 36.3858 -7 0.599999
      vertex 36.3858 -7 13
    endloop
  endfacet
  facet normal 0 0 1
    outer loop
      vertex 36.3858 7 0.599999
      vertex 36.3858 -7 0.599999
      vertex 43.3858 0 0.599999
    endloop
  endfacet
  facet normal -0 0 1
    outer loop
      vertex -36.3858 7 0.599999
      vertex 36.3858 -7 0.599999
      vertex 36.3858 7 0.599999
    endloop
  endfacet
  facet normal 0 0 1
    outer loop
      vertex -36.3858 7 0.599999
      vertex -36.3858 -7 0.599999
      vertex 36.3858 -7 0.599999
    endloop
  endfacet
  facet normal 0 -0 1
    outer loop
      vertex -36.3858 -7 0.599999
      vertex -36.3858 7 0.599999
      vertex -43.3858 0 0.599999
    endloop
  endfacet
  facet normal -0.707107 -0.707107 0
    outer loop
      vertex 43.3858 0 0.599999
      vertex 36.3858 7 13
      vertex 36.3858 7 0.599999
    endloop
  endfacet
  facet normal -0.707107 -0.707107 0
    outer loop
      vertex 36.3858 7 13
      vertex 43.3858 0 0.599999
      vertex 43.3858 0 13
    endloop
  endfacet
  facet normal 0.707107 0.707107 0
    outer loop
      vertex -36.3858 -7 13
      vertex -43.3858 0 0.599999
      vertex -43.3858 0 13
    endloop
  endfacet
  facet normal 0.707107 0.707107 0
    outer loop
      vertex -43.3858 0 0.599999
      vertex -36.3858 -7 13
      vertex -36.3858 -7 0.599999
    endloop
  endfacet
  facet normal 0.707107 -0.707107 0
    outer loop
      vertex -43.3858 0 13
      vertex -36.3858 7 0.599999
      vertex -36.3858 7 13
    endloop
  endfacet
  facet normal 0.707107 -0.707107 0
    outer loop
      vertex -36.3858 7 0.599999
      vertex -43.3858 0 13
      vertex -43.3858 0 0.599999
    endloop
  endfacet
  facet normal 0 -1 0
    outer loop
      vertex -36.3858 7 0.599999
      vertex 36.3858 7 13
      vertex -36.3858 7 13
    endloop
  endfacet
  facet normal 0 -1 -0
    outer loop
      vertex 36.3858 7 13
      vertex -36.3858 7 0.599999
      vertex 36.3858 7 0.599999
    endloop
  endfacet
endsolid OpenSCAD_Model
