solid OpenSCAD_Model
  facet normal -1 0 0
    outer loop
      vertex -16.75 -9.5 0
      vertex -16.75 9.5 4.5
      vertex -16.75 9.5 0
    endloop
  endfacet
  facet normal -1 -0 0
    outer loop
      vertex -16.75 9.5 4.5
      vertex -16.75 -9.5 0
      vertex -16.75 -9.5 4.5
    endloop
  endfacet
  facet normal 0 0 1
    outer loop
      vertex -14.95 9.5 4.5
      vertex -15.25 7.5 4.5
      vertex -14.95 7.5 4.5
    endloop
  endfacet
  facet normal 0 0 1
    outer loop
      vertex -15.25 7.5 4.5
      vertex -16.75 9.5 4.5
      vertex -15.25 -7.5 4.5
    endloop
  endfacet
  facet normal -0 0 1
    outer loop
      vertex -16.75 9.5 4.5
      vertex -15.25 7.5 4.5
      vertex -14.95 9.5 4.5
    endloop
  endfacet
  facet normal -0 0 1
    outer loop
      vertex -15.25 -7.5 4.5
      vertex -14.95 -9.5 4.5
      vertex -14.95 -7.5 4.5
    endloop
  endfacet
  facet normal 0 0 1
    outer loop
      vertex -15.25 -7.5 4.5
      vertex -16.75 -9.5 4.5
      vertex -14.95 -9.5 4.5
    endloop
  endfacet
  facet normal 0 0 1
    outer loop
      vertex -16.75 -9.5 4.5
      vertex -15.25 -7.5 4.5
      vertex -16.75 9.5 4.5
    endloop
  endfacet
  facet normal 1 -0 0
    outer loop
      vertex -12.75 -9.5 2.30002
      vertex -12.75 9.5 0
      vertex -12.75 9.5 2.30002
    endloop
  endfacet
  facet normal 1 0 0
    outer loop
      vertex -12.75 9.5 0
      vertex -12.75 -9.5 2.30002
      vertex -12.75 -9.5 0
    endloop
  endfacet
  facet normal 0 1 0
    outer loop
      vertex -16.75 9.5 0
      vertex -14.95 9.5 4.5
      vertex -12.75 9.5 2.30002
    endloop
  endfacet
  facet normal 0 1 0
    outer loop
      vertex -16.75 9.5 0
      vertex -12.75 9.5 2.30002
      vertex -12.75 9.5 0
    endloop
  endfacet
  facet normal 0 1 0
    outer loop
      vertex -14.95 9.5 4.5
      vertex -16.75 9.5 0
      vertex -16.75 9.5 4.5
    endloop
  endfacet
  facet normal 0 0 -1
    outer loop
      vertex -12.75 -9.5 0
      vertex -13.25 -7.5 0
      vertex -12.75 9.5 0
    endloop
  endfacet
  facet normal 0 0 -1
    outer loop
      vertex -12.75 -9.5 0
      vertex -15.25 -7.5 0
      vertex -13.25 -7.5 0
    endloop
  endfacet
  facet normal -0 0 -1
    outer loop
      vertex -15.25 -7.5 0
      vertex -16.75 -9.5 0
      vertex -15.25 7.5 0
    endloop
  endfacet
  facet normal 0 0 -1
    outer loop
      vertex -16.75 -9.5 0
      vertex -15.25 -7.5 0
      vertex -12.75 -9.5 0
    endloop
  endfacet
  facet normal 0 0 -1
    outer loop
      vertex -13.25 7.5 0
      vertex -12.75 9.5 0
      vertex -13.25 -7.5 0
    endloop
  endfacet
  facet normal 0 0 -1
    outer loop
      vertex -15.25 7.5 0
      vertex -12.75 9.5 0
      vertex -13.25 7.5 0
    endloop
  endfacet
  facet normal 0 0 -1
    outer loop
      vertex -15.25 7.5 0
      vertex -16.75 9.5 0
      vertex -12.75 9.5 0
    endloop
  endfacet
  facet normal 0 0 -1
    outer loop
      vertex -16.75 9.5 0
      vertex -15.25 7.5 0
      vertex -16.75 -9.5 0
    endloop
  endfacet
  facet normal 0 -1 0
    outer loop
      vertex -16.75 -9.5 0
      vertex -14.95 -9.5 4.5
      vertex -16.75 -9.5 4.5
    endloop
  endfacet
  facet normal 0 -1 -0
    outer loop
      vertex -14.95 -9.5 4.5
      vertex -16.75 -9.5 0
      vertex -12.75 -9.5 2.30002
    endloop
  endfacet
  facet normal 0 -1 -0
    outer loop
      vertex -12.75 -9.5 2.30002
      vertex -16.75 -9.5 0
      vertex -12.75 -9.5 0
    endloop
  endfacet
  facet normal -1 0 0
    outer loop
      vertex 12.75 -9.5 0
      vertex 12.75 9.5 2.30002
      vertex 12.75 9.5 0
    endloop
  endfacet
  facet normal -1 -0 0
    outer loop
      vertex 12.75 9.5 2.30002
      vertex 12.75 -9.5 0
      vertex 12.75 -9.5 2.30002
    endloop
  endfacet
  facet normal 0 0 1
    outer loop
      vertex 16.75 9.5 4.5
      vertex 15.25 7.5 4.5
      vertex 16.75 -9.5 4.5
    endloop
  endfacet
  facet normal -0 0 1
    outer loop
      vertex 14.95 9.5 4.5
      vertex 15.25 7.5 4.5
      vertex 16.75 9.5 4.5
    endloop
  endfacet
  facet normal 0 0 1
    outer loop
      vertex 15.25 7.5 4.5
      vertex 14.95 9.5 4.5
      vertex 14.95 7.5 4.5
    endloop
  endfacet
  facet normal -0 0 1
    outer loop
      vertex 15.25 -7.5 4.5
      vertex 16.75 -9.5 4.5
      vertex 15.25 7.5 4.5
    endloop
  endfacet
  facet normal 0 0 1
    outer loop
      vertex 14.95 -9.5 4.5
      vertex 15.25 -7.5 4.5
      vertex 14.95 -7.5 4.5
    endloop
  endfacet
  facet normal 0 0 1
    outer loop
      vertex 15.25 -7.5 4.5
      vertex 14.95 -9.5 4.5
      vertex 16.75 -9.5 4.5
    endloop
  endfacet
  facet normal 1 -0 0
    outer loop
      vertex 16.75 -9.5 4.5
      vertex 16.75 9.5 0
      vertex 16.75 9.5 4.5
    endloop
  endfacet
  facet normal 1 0 0
    outer loop
      vertex 16.75 9.5 0
      vertex 16.75 -9.5 4.5
      vertex 16.75 -9.5 0
    endloop
  endfacet
  facet normal 0 1 -0
    outer loop
      vertex 16.75 9.5 0
      vertex 14.95 9.5 4.5
      vertex 16.75 9.5 4.5
    endloop
  endfacet
  facet normal 0 1 0
    outer loop
      vertex 14.95 9.5 4.5
      vertex 16.75 9.5 0
      vertex 12.75 9.5 2.30002
    endloop
  endfacet
  facet normal 0 1 0
    outer loop
      vertex 12.75 9.5 2.30002
      vertex 16.75 9.5 0
      vertex 12.75 9.5 0
    endloop
  endfacet
  facet normal 0 0 -1
    outer loop
      vertex 16.75 -9.5 0
      vertex 15.25 -7.5 0
      vertex 16.75 9.5 0
    endloop
  endfacet
  facet normal 0 0 -1
    outer loop
      vertex 12.75 -9.5 0
      vertex 15.25 -7.5 0
      vertex 16.75 -9.5 0
    endloop
  endfacet
  facet normal -0 0 -1
    outer loop
      vertex 13.25 -7.5 0
      vertex 12.75 -9.5 0
      vertex 13.25 7.5 0
    endloop
  endfacet
  facet normal -0 0 -1
    outer loop
      vertex 15.25 -7.5 0
      vertex 12.75 -9.5 0
      vertex 13.25 -7.5 0
    endloop
  endfacet
  facet normal 0 0 -1
    outer loop
      vertex 15.25 7.5 0
      vertex 16.75 9.5 0
      vertex 15.25 -7.5 0
    endloop
  endfacet
  facet normal 0 0 -1
    outer loop
      vertex 12.75 9.5 0
      vertex 15.25 7.5 0
      vertex 13.25 7.5 0
    endloop
  endfacet
  facet normal 0 0 -1
    outer loop
      vertex 15.25 7.5 0
      vertex 12.75 9.5 0
      vertex 16.75 9.5 0
    endloop
  endfacet
  facet normal 0 0 -1
    outer loop
      vertex 12.75 9.5 0
      vertex 13.25 7.5 0
      vertex 12.75 -9.5 0
    endloop
  endfacet
  facet normal 0 -1 0
    outer loop
      vertex 16.75 -9.5 0
      vertex 14.95 -9.5 4.5
      vertex 12.75 -9.5 2.30002
    endloop
  endfacet
  facet normal 0 -1 0
    outer loop
      vertex 16.75 -9.5 0
      vertex 12.75 -9.5 2.30002
      vertex 12.75 -9.5 0
    endloop
  endfacet
  facet normal 0 -1 0
    outer loop
      vertex 14.95 -9.5 4.5
      vertex 16.75 -9.5 0
      vertex 16.75 -9.5 4.5
    endloop
  endfacet
  facet normal 0 0 -1
    outer loop
      vertex 3 -9.05 0
      vertex -2.5 6.1 0
      vertex 2.5 6.1 0
    endloop
  endfacet
  facet normal 0 0 -1
    outer loop
      vertex -12.25 -10 0
      vertex -2.5 6.1 0
      vertex -3 -9.05 0
    endloop
  endfacet
  facet normal 0 0 -1
    outer loop
      vertex -3 -9.05 0
      vertex -2.5 6.1 0
      vertex 3 -9.05 0
    endloop
  endfacet
  facet normal 0 0 -1
    outer loop
      vertex 8.25 -14 0
      vertex 12.25 -10 0
      vertex 12.2158 -10.5221 0
    endloop
  endfacet
  facet normal 0 0 -1
    outer loop
      vertex 12.25 -10 0
      vertex 2.5 6.1 0
      vertex 12.25 10 0
    endloop
  endfacet
  facet normal 0 0 -1
    outer loop
      vertex 8.25 -14 0
      vertex 12.2158 -10.5221 0
      vertex 12.1137 -11.0353 0
    endloop
  endfacet
  facet normal 0 0 -1
    outer loop
      vertex 2.5 11.1 0
      vertex 12.25 10 0
      vertex 2.5 6.1 0
    endloop
  endfacet
  facet normal 0 0 -1
    outer loop
      vertex 8.25 -14 0
      vertex 12.1137 -11.0353 0
      vertex 11.9455 -11.5307 0
    endloop
  endfacet
  facet normal 0 -0 -1
    outer loop
      vertex 8.25 14 0
      vertex 12.25 10 0
      vertex 2.5 11.1 0
    endloop
  endfacet
  facet normal 0 0 -1
    outer loop
      vertex 8.25 -14 0
      vertex 11.9455 -11.5307 0
      vertex 11.7141 -12 0
    endloop
  endfacet
  facet normal 0 0 -1
    outer loop
      vertex 12.25 10 0
      vertex 8.25 14 0
      vertex 12.2158 10.5221 0
    endloop
  endfacet
  facet normal 0 0 -1
    outer loop
      vertex 8.25 -14 0
      vertex 11.7141 -12 0
      vertex 11.4234 -12.435 0
    endloop
  endfacet
  facet normal 0 0 -1
    outer loop
      vertex 12.1137 11.0353 0
      vertex 8.25 14 0
      vertex 11.9455 11.5307 0
    endloop
  endfacet
  facet normal 0 0 -1
    outer loop
      vertex 8.25 -14 0
      vertex 11.4234 -12.435 0
      vertex 11.0784 -12.8284 0
    endloop
  endfacet
  facet normal 0 0 -1
    outer loop
      vertex 11.9455 11.5307 0
      vertex 8.25 14 0
      vertex 11.7141 12 0
    endloop
  endfacet
  facet normal 0 0 -1
    outer loop
      vertex 8.25 -14 0
      vertex 11.0784 -12.8284 0
      vertex 10.685 -13.1734 0
    endloop
  endfacet
  facet normal 0 0 -1
    outer loop
      vertex 11.7141 12 0
      vertex 8.25 14 0
      vertex 11.4234 12.435 0
    endloop
  endfacet
  facet normal 0 0 -1
    outer loop
      vertex 8.25 -14 0
      vertex 10.685 -13.1734 0
      vertex 10.25 -13.4641 0
    endloop
  endfacet
  facet normal 0 0 -1
    outer loop
      vertex 11.4234 12.435 0
      vertex 8.25 14 0
      vertex 11.0784 12.8284 0
    endloop
  endfacet
  facet normal 0 0 -1
    outer loop
      vertex 8.25 -14 0
      vertex 10.25 -13.4641 0
      vertex 9.78073 -13.6955 0
    endloop
  endfacet
  facet normal 0 0 -1
    outer loop
      vertex 11.0784 12.8284 0
      vertex 8.25 14 0
      vertex 10.685 13.1734 0
    endloop
  endfacet
  facet normal 0 0 -1
    outer loop
      vertex 8.25 -14 0
      vertex 9.78073 -13.6955 0
      vertex 9.28528 -13.8637 0
    endloop
  endfacet
  facet normal 0 0 -1
    outer loop
      vertex 10.685 13.1734 0
      vertex 8.25 14 0
      vertex 10.25 13.4641 0
    endloop
  endfacet
  facet normal 0 0 -1
    outer loop
      vertex 8.25 -14 0
      vertex 9.28528 -13.8637 0
      vertex 8.7721 -13.9658 0
    endloop
  endfacet
  facet normal 0 0 -1
    outer loop
      vertex 10.25 13.4641 0
      vertex 8.25 14 0
      vertex 9.78073 13.6955 0
    endloop
  endfacet
  facet normal -0 0 -1
    outer loop
      vertex 12.25 -10 0
      vertex 8.25 -14 0
      vertex 3 -9.05 0
    endloop
  endfacet
  facet normal 0 0 -1
    outer loop
      vertex 9.78073 13.6955 0
      vertex 8.25 14 0
      vertex 9.28528 13.8637 0
    endloop
  endfacet
  facet normal 0 0 -1
    outer loop
      vertex 3 -9.05 0
      vertex 8.25 -14 0
      vertex 3 -13.55 0
    endloop
  endfacet
  facet normal 0 0 -1
    outer loop
      vertex 8.25 -14 0
      vertex -3 -13.55 0
      vertex 3 -13.55 0
    endloop
  endfacet
  facet normal -0 0 -1
    outer loop
      vertex -3 -13.55 0
      vertex -8.25 -14 0
      vertex -3 -9.05 0
    endloop
  endfacet
  facet normal 0 0 -1
    outer loop
      vertex -8.25 -14 0
      vertex -3 -13.55 0
      vertex 8.25 -14 0
    endloop
  endfacet
  facet normal 0 0 -1
    outer loop
      vertex 12.25 -10 0
      vertex 3 -9.05 0
      vertex 2.5 6.1 0
    endloop
  endfacet
  facet normal 0 0 -1
    outer loop
      vertex 9.28528 13.8637 0
      vertex 8.25 14 0
      vertex 8.7721 13.9658 0
    endloop
  endfacet
  facet normal 0 0 -1
    outer loop
      vertex 12.2158 10.5221 0
      vertex 8.25 14 0
      vertex 12.1137 11.0353 0
    endloop
  endfacet
  facet normal 0 0 -1
    outer loop
      vertex -2.5 11.1 0
      vertex 8.25 14 0
      vertex 2.5 11.1 0
    endloop
  endfacet
  facet normal 0 0 -1
    outer loop
      vertex -12.25 -10 0
      vertex -3 -9.05 0
      vertex -8.25 -14 0
    endloop
  endfacet
  facet normal 0 0 -1
    outer loop
      vertex -2.5 11.1 0
      vertex -8.25 14 0
      vertex 8.25 14 0
    endloop
  endfacet
  facet normal -0 0 -1
    outer loop
      vertex -2.5 6.1 0
      vertex -12.25 -10 0
      vertex -12.25 10 0
    endloop
  endfacet
  facet normal 0 0 -1
    outer loop
      vertex -12.25 -10 0
      vertex -8.25 -14 0
      vertex -8.7721 -13.9658 0
    endloop
  endfacet
  facet normal 0 0 -1
    outer loop
      vertex -2.5 6.1 0
      vertex -12.25 10 0
      vertex -2.5 11.1 0
    endloop
  endfacet
  facet normal 0 0 -1
    outer loop
      vertex -12.25 -10 0
      vertex -8.7721 -13.9658 0
      vertex -9.28528 -13.8637 0
    endloop
  endfacet
  facet normal -0 0 -1
    outer loop
      vertex -2.5 11.1 0
      vertex -12.25 10 0
      vertex -8.25 14 0
    endloop
  endfacet
  facet normal 0 0 -1
    outer loop
      vertex -12.25 -10 0
      vertex -9.28528 -13.8637 0
      vertex -9.78073 -13.6955 0
    endloop
  endfacet
  facet normal 0 0 -1
    outer loop
      vertex -8.25 14 0
      vertex -12.25 10 0
      vertex -8.7721 13.9658 0
    endloop
  endfacet
  facet normal 0 0 -1
    outer loop
      vertex -12.25 -10 0
      vertex -9.78073 -13.6955 0
      vertex -10.25 -13.4641 0
    endloop
  endfacet
  facet normal 0 0 -1
    outer loop
      vertex -8.7721 13.9658 0
      vertex -12.25 10 0
      vertex -9.28528 13.8637 0
    endloop
  endfacet
  facet normal 0 0 -1
    outer loop
      vertex -12.25 -10 0
      vertex -10.25 -13.4641 0
      vertex -10.685 -13.1734 0
    endloop
  endfacet
  facet normal 0 0 -1
    outer loop
      vertex -9.28528 13.8637 0
      vertex -12.25 10 0
      vertex -9.78073 13.6955 0
    endloop
  endfacet
  facet normal 0 0 -1
    outer loop
      vertex -12.25 -10 0
      vertex -10.685 -13.1734 0
      vertex -11.0784 -12.8284 0
    endloop
  endfacet
  facet normal 0 0 -1
    outer loop
      vertex -9.78073 13.6955 0
      vertex -12.25 10 0
      vertex -10.25 13.4641 0
    endloop
  endfacet
  facet normal 0 0 -1
    outer loop
      vertex -12.25 -10 0
      vertex -11.0784 -12.8284 0
      vertex -11.4234 -12.435 0
    endloop
  endfacet
  facet normal 0 0 -1
    outer loop
      vertex -10.25 13.4641 0
      vertex -12.25 10 0
      vertex -10.685 13.1734 0
    endloop
  endfacet
  facet normal 0 0 -1
    outer loop
      vertex -12.25 -10 0
      vertex -11.4234 -12.435 0
      vertex -11.7141 -12 0
    endloop
  endfacet
  facet normal 0 0 -1
    outer loop
      vertex -10.685 13.1734 0
      vertex -12.25 10 0
      vertex -11.0784 12.8284 0
    endloop
  endfacet
  facet normal 0 0 -1
    outer loop
      vertex -12.25 -10 0
      vertex -11.7141 -12 0
      vertex -11.9455 -11.5307 0
    endloop
  endfacet
  facet normal 0 0 -1
    outer loop
      vertex -11.0784 12.8284 0
      vertex -12.25 10 0
      vertex -11.4234 12.435 0
    endloop
  endfacet
  facet normal 0 0 -1
    outer loop
      vertex -12.25 -10 0
      vertex -11.9455 -11.5307 0
      vertex -12.1137 -11.0353 0
    endloop
  endfacet
  facet normal 0 0 -1
    outer loop
      vertex -11.4234 12.435 0
      vertex -12.25 10 0
      vertex -11.7141 12 0
    endloop
  endfacet
  facet normal 0 0 -1
    outer loop
      vertex -12.25 -10 0
      vertex -12.1137 -11.0353 0
      vertex -12.2158 -10.5221 0
    endloop
  endfacet
  facet normal 0 0 -1
    outer loop
      vertex -11.7141 12 0
      vertex -12.25 10 0
      vertex -11.9455 11.5307 0
    endloop
  endfacet
  facet normal 0 0 -1
    outer loop
      vertex -11.9455 11.5307 0
      vertex -12.25 10 0
      vertex -12.1137 11.0353 0
    endloop
  endfacet
  facet normal 0 0 -1
    outer loop
      vertex -12.1137 11.0353 0
      vertex -12.25 10 0
      vertex -12.2158 10.5221 0
    endloop
  endfacet
  facet normal -0.980779 -0.195124 -0
    outer loop
      vertex -12.1137 -11.0353 1.66372
      vertex -12.2158 -10.5221 0
      vertex -12.1137 -11.0353 0
    endloop
  endfacet
  facet normal -0.980779 -0.195124 0
    outer loop
      vertex -12.2158 -10.5221 0
      vertex -12.1137 -11.0353 1.66372
      vertex -12.2158 -10.5221 1.7658
    endloop
  endfacet
  facet normal -1 0 0
    outer loop
      vertex -12.25 -10 0
      vertex -12.25 10 1.80002
      vertex -12.25 10 0
    endloop
  endfacet
  facet normal -1 -0 0
    outer loop
      vertex -12.25 10 1.80002
      vertex -12.25 -10 0
      vertex -12.25 -10 1.80002
    endloop
  endfacet
  facet normal 0.997861 0.0653646 -0
    outer loop
      vertex 12.25 10 0
      vertex 12.2158 10.5221 1.7658
      vertex 12.25 10 1.80002
    endloop
  endfacet
  facet normal 0.997861 0.0653646 0
    outer loop
      vertex 12.2158 10.5221 1.7658
      vertex 12.25 10 0
      vertex 12.2158 10.5221 0
    endloop
  endfacet
  facet normal -0.997861 -0.0653646 -0
    outer loop
      vertex -12.2158 -10.5221 1.7658
      vertex -12.25 -10 0
      vertex -12.2158 -10.5221 0
    endloop
  endfacet
  facet normal -0.997861 -0.0653646 0
    outer loop
      vertex -12.25 -10 0
      vertex -12.2158 -10.5221 1.7658
      vertex -12.25 -10 1.80002
    endloop
  endfacet
  facet normal 0.0653646 0.997861 -0
    outer loop
      vertex 8.7721 13.9658 0
      vertex 8.25 14 0.0500059
      vertex 8.7721 13.9658 0.0500059
    endloop
  endfacet
  facet normal 0.0653646 0.997861 0
    outer loop
      vertex 8.25 14 0.0500059
      vertex 8.7721 13.9658 0
      vertex 8.25 14 0
    endloop
  endfacet
  facet normal 0.751842 -0.659343 0
    outer loop
      vertex 11.0784 -12.8284 0.628446
      vertex 11.4234 -12.435 0
      vertex 11.4234 -12.435 0.973432
    endloop
  endfacet
  facet normal 0.751842 -0.659343 0
    outer loop
      vertex 11.4234 -12.435 0
      vertex 11.0784 -12.8284 0.628446
      vertex 11.0784 -12.8284 0
    endloop
  endfacet
  facet normal 1 -0 0
    outer loop
      vertex 12.25 -10 1.80002
      vertex 12.25 10 0
      vertex 12.25 10 1.80002
    endloop
  endfacet
  facet normal 1 0 0
    outer loop
      vertex 12.25 10 0
      vertex 12.25 -10 1.80002
      vertex 12.25 -10 0
    endloop
  endfacet
  facet normal 0.0653646 -0.997861 0
    outer loop
      vertex 8.25 -14 0
      vertex 8.7721 -13.9658 0.0500059
      vertex 8.25 -14 0.0500059
    endloop
  endfacet
  facet normal 0.0653646 -0.997861 0
    outer loop
      vertex 8.7721 -13.9658 0.0500059
      vertex 8.25 -14 0
      vertex 8.7721 -13.9658 0
    endloop
  endfacet
  facet normal 0.896898 0.442238 -0
    outer loop
      vertex 11.9455 11.5307 0
      vertex 11.7141 12 1.26412
      vertex 11.9455 11.5307 1.49553
    endloop
  endfacet
  facet normal 0.896898 0.442238 0
    outer loop
      vertex 11.7141 12 1.26412
      vertex 11.9455 11.5307 0
      vertex 11.7141 12 0
    endloop
  endfacet
  facet normal 0.831432 0.555626 -0
    outer loop
      vertex 11.7141 12 0
      vertex 11.4234 12.435 0.973432
      vertex 11.7141 12 1.26412
    endloop
  endfacet
  facet normal 0.831432 0.555626 0
    outer loop
      vertex 11.4234 12.435 0.973432
      vertex 11.7141 12 0
      vertex 11.4234 12.435 0
    endloop
  endfacet
  facet normal 0 1 -0
    outer loop
      vertex 8.25 14 0
      vertex -8.25 14 0.0500059
      vertex 8.25 14 0.0500059
    endloop
  endfacet
  facet normal 0 1 0
    outer loop
      vertex -8.25 14 0.0500059
      vertex 8.25 14 0
      vertex -8.25 14 0
    endloop
  endfacet
  facet normal -0.997861 0.0653646 0
    outer loop
      vertex -12.25 10 0
      vertex -12.2158 10.5221 1.7658
      vertex -12.2158 10.5221 0
    endloop
  endfacet
  facet normal -0.997861 0.0653646 0
    outer loop
      vertex -12.2158 10.5221 1.7658
      vertex -12.25 10 0
      vertex -12.25 10 1.80002
    endloop
  endfacet
  facet normal -0.751842 0.659343 0
    outer loop
      vertex -11.4234 12.435 0
      vertex -11.0784 12.8284 0.628446
      vertex -11.0784 12.8284 0
    endloop
  endfacet
  facet normal -0.751842 0.659343 0
    outer loop
      vertex -11.0784 12.8284 0.628446
      vertex -11.4234 12.435 0
      vertex -11.4234 12.435 0.973432
    endloop
  endfacet
  facet normal -0.831432 0.555626 0
    outer loop
      vertex -11.7141 12 0
      vertex -11.4234 12.435 0.973432
      vertex -11.4234 12.435 0
    endloop
  endfacet
  facet normal -0.831432 0.555626 0
    outer loop
      vertex -11.4234 12.435 0.973432
      vertex -11.7141 12 0
      vertex -11.7141 12 1.26412
    endloop
  endfacet
  facet normal -0.896898 0.442238 0
    outer loop
      vertex -11.9455 11.5307 0
      vertex -11.7141 12 1.26412
      vertex -11.7141 12 0
    endloop
  endfacet
  facet normal -0.896898 0.442238 0
    outer loop
      vertex -11.7141 12 1.26412
      vertex -11.9455 11.5307 0
      vertex -11.9455 11.5307 1.49553
    endloop
  endfacet
  facet normal 0.831432 -0.555626 0
    outer loop
      vertex 11.4234 -12.435 0.973432
      vertex 11.7141 -12 0
      vertex 11.7141 -12 1.26412
    endloop
  endfacet
  facet normal 0.831432 -0.555626 0
    outer loop
      vertex 11.7141 -12 0
      vertex 11.4234 -12.435 0.973432
      vertex 11.4234 -12.435 0
    endloop
  endfacet
  facet normal 0.997861 -0.0653646 0
    outer loop
      vertex 12.2158 -10.5221 1.7658
      vertex 12.25 -10 0
      vertex 12.25 -10 1.80002
    endloop
  endfacet
  facet normal 0.997861 -0.0653646 0
    outer loop
      vertex 12.25 -10 0
      vertex 12.2158 -10.5221 1.7658
      vertex 12.2158 -10.5221 0
    endloop
  endfacet
  facet normal -0.659343 -0.751842 0
    outer loop
      vertex -11.0784 -12.8284 0
      vertex -10.685 -13.1734 0.235066
      vertex -11.0784 -12.8284 0.628446
    endloop
  endfacet
  facet normal -0.659343 -0.751842 -0
    outer loop
      vertex -10.685 -13.1734 0.235066
      vertex -11.0784 -12.8284 0
      vertex -10.685 -13.1734 0
    endloop
  endfacet
  facet normal -0.195131 -0.980777 0
    outer loop
      vertex -9.28528 -13.8637 0
      vertex -8.7721 -13.9658 0.0500059
      vertex -9.28528 -13.8637 0.0500059
    endloop
  endfacet
  facet normal -0.195131 -0.980777 -0
    outer loop
      vertex -8.7721 -13.9658 0.0500059
      vertex -9.28528 -13.8637 0
      vertex -8.7721 -13.9658 0
    endloop
  endfacet
  facet normal -0.0653646 -0.997861 0
    outer loop
      vertex -8.7721 -13.9658 0
      vertex -8.25 -14 0.0500059
      vertex -8.7721 -13.9658 0.0500059
    endloop
  endfacet
  facet normal -0.0653646 -0.997861 -0
    outer loop
      vertex -8.25 -14 0.0500059
      vertex -8.7721 -13.9658 0
      vertex -8.25 -14 0
    endloop
  endfacet
  facet normal 0.55584 0.831289 -0
    outer loop
      vertex 10.685 13.1734 0
      vertex 10.5 13.2971 0.0500059
      vertex 10.685 13.1734 0.235066
    endloop
  endfacet
  facet normal 0.555626 0.831432 -0.00114667
    outer loop
      vertex 10.25 13.4641 0
      vertex 10.5 13.2971 0.0500059
      vertex 10.685 13.1734 0
    endloop
  endfacet
  facet normal 0.555468 0.831538 0
    outer loop
      vertex 10.5 13.2971 0.0500059
      vertex 10.25 13.4641 0
      vertex 10.25 13.4641 0.0500059
    endloop
  endfacet
  facet normal -0.555468 0.831538 0
    outer loop
      vertex -10.25 13.4641 0.0500059
      vertex -10.25 13.4641 0
      vertex -10.5 13.2971 0.0500059
    endloop
  endfacet
  facet normal -0.55584 0.831289 0
    outer loop
      vertex -10.5 13.2971 0.0500059
      vertex -10.685 13.1734 0
      vertex -10.685 13.1734 0.235066
    endloop
  endfacet
  facet normal -0.555626 0.831432 -0.00114667
    outer loop
      vertex -10.685 13.1734 0
      vertex -10.5 13.2971 0.0500059
      vertex -10.25 13.4641 0
    endloop
  endfacet
  facet normal -0.321469 0.94692 0
    outer loop
      vertex -9.28528 13.8637 0
      vertex -9.78073 13.6955 0.0500059
      vertex -9.28528 13.8637 0.0500059
    endloop
  endfacet
  facet normal -0.321469 0.94692 0
    outer loop
      vertex -9.78073 13.6955 0.0500059
      vertex -9.28528 13.8637 0
      vertex -9.78073 13.6955 0
    endloop
  endfacet
  facet normal -0.0653646 0.997861 0
    outer loop
      vertex -8.25 14 0
      vertex -8.7721 13.9658 0.0500059
      vertex -8.25 14 0.0500059
    endloop
  endfacet
  facet normal -0.0653646 0.997861 0
    outer loop
      vertex -8.7721 13.9658 0.0500059
      vertex -8.25 14 0
      vertex -8.7721 13.9658 0
    endloop
  endfacet
  facet normal -0.659343 0.751842 0
    outer loop
      vertex -11.0784 12.8284 0
      vertex -10.685 13.1734 0.235066
      vertex -10.685 13.1734 0
    endloop
  endfacet
  facet normal -0.659343 0.751842 0
    outer loop
      vertex -10.685 13.1734 0.235066
      vertex -11.0784 12.8284 0
      vertex -11.0784 12.8284 0.628446
    endloop
  endfacet
  facet normal -0.980779 0.195124 0
    outer loop
      vertex -12.2158 10.5221 0
      vertex -12.1137 11.0353 1.66372
      vertex -12.1137 11.0353 0
    endloop
  endfacet
  facet normal -0.980779 0.195124 0
    outer loop
      vertex -12.1137 11.0353 1.66372
      vertex -12.2158 10.5221 0
      vertex -12.2158 10.5221 1.7658
    endloop
  endfacet
  facet normal -0.94691 0.321498 0
    outer loop
      vertex -12.1137 11.0353 0
      vertex -11.9455 11.5307 1.49553
      vertex -11.9455 11.5307 0
    endloop
  endfacet
  facet normal -0.94691 0.321498 0
    outer loop
      vertex -11.9455 11.5307 1.49553
      vertex -12.1137 11.0353 0
      vertex -12.1137 11.0353 1.66372
    endloop
  endfacet
  facet normal 0.94691 -0.321498 0
    outer loop
      vertex 11.9455 -11.5307 1.49553
      vertex 12.1137 -11.0353 0
      vertex 12.1137 -11.0353 1.66372
    endloop
  endfacet
  facet normal 0.94691 -0.321498 0
    outer loop
      vertex 12.1137 -11.0353 0
      vertex 11.9455 -11.5307 1.49553
      vertex 11.9455 -11.5307 0
    endloop
  endfacet
  facet normal 0.980779 -0.195124 0
    outer loop
      vertex 12.1137 -11.0353 1.66372
      vertex 12.2158 -10.5221 0
      vertex 12.2158 -10.5221 1.7658
    endloop
  endfacet
  facet normal 0.980779 -0.195124 0
    outer loop
      vertex 12.2158 -10.5221 0
      vertex 12.1137 -11.0353 1.66372
      vertex 12.1137 -11.0353 0
    endloop
  endfacet
  facet normal -0.44226 -0.896887 0
    outer loop
      vertex -10.25 -13.4641 0
      vertex -9.78073 -13.6955 0.0500059
      vertex -10.25 -13.4641 0.0500059
    endloop
  endfacet
  facet normal -0.44226 -0.896887 -0
    outer loop
      vertex -9.78073 -13.6955 0.0500059
      vertex -10.25 -13.4641 0
      vertex -9.78073 -13.6955 0
    endloop
  endfacet
  facet normal -0.55584 -0.831289 0
    outer loop
      vertex -10.685 -13.1734 0
      vertex -10.5 -13.2971 0.0500059
      vertex -10.685 -13.1734 0.235066
    endloop
  endfacet
  facet normal -0.555626 -0.831432 -0.00114667
    outer loop
      vertex -10.25 -13.4641 0
      vertex -10.5 -13.2971 0.0500059
      vertex -10.685 -13.1734 0
    endloop
  endfacet
  facet normal -0.555468 -0.831538 0
    outer loop
      vertex -10.5 -13.2971 0.0500059
      vertex -10.25 -13.4641 0
      vertex -10.25 -13.4641 0.0500059
    endloop
  endfacet
  facet normal -0.321469 -0.94692 0
    outer loop
      vertex -9.78073 -13.6955 0
      vertex -9.28528 -13.8637 0.0500059
      vertex -9.78073 -13.6955 0.0500059
    endloop
  endfacet
  facet normal -0.321469 -0.94692 -0
    outer loop
      vertex -9.28528 -13.8637 0.0500059
      vertex -9.78073 -13.6955 0
      vertex -9.28528 -13.8637 0
    endloop
  endfacet
  facet normal -0.94691 -0.321498 -0
    outer loop
      vertex -11.9455 -11.5307 1.49553
      vertex -12.1137 -11.0353 0
      vertex -11.9455 -11.5307 0
    endloop
  endfacet
  facet normal -0.94691 -0.321498 0
    outer loop
      vertex -12.1137 -11.0353 0
      vertex -11.9455 -11.5307 1.49553
      vertex -12.1137 -11.0353 1.66372
    endloop
  endfacet
  facet normal -0.751842 -0.659343 -0
    outer loop
      vertex -11.0784 -12.8284 0.628446
      vertex -11.4234 -12.435 0
      vertex -11.0784 -12.8284 0
    endloop
  endfacet
  facet normal -0.751842 -0.659343 0
    outer loop
      vertex -11.4234 -12.435 0
      vertex -11.0784 -12.8284 0.628446
      vertex -11.4234 -12.435 0.973432
    endloop
  endfacet
  facet normal 0 -1 0
    outer loop
      vertex -8.25 -14 0
      vertex 8.25 -14 0.0500059
      vertex -8.25 -14 0.0500059
    endloop
  endfacet
  facet normal 0 -1 -0
    outer loop
      vertex 8.25 -14 0.0500059
      vertex -8.25 -14 0
      vertex 8.25 -14 0
    endloop
  endfacet
  facet normal 0.659343 -0.751842 0
    outer loop
      vertex 11.0784 -12.8284 0
      vertex 10.685 -13.1734 0.235066
      vertex 10.685 -13.1734 0
    endloop
  endfacet
  facet normal 0.659343 -0.751842 0
    outer loop
      vertex 10.685 -13.1734 0.235066
      vertex 11.0784 -12.8284 0
      vertex 11.0784 -12.8284 0.628446
    endloop
  endfacet
  facet normal 0.980779 0.195124 -0
    outer loop
      vertex 12.2158 10.5221 0
      vertex 12.1137 11.0353 1.66372
      vertex 12.2158 10.5221 1.7658
    endloop
  endfacet
  facet normal 0.980779 0.195124 0
    outer loop
      vertex 12.1137 11.0353 1.66372
      vertex 12.2158 10.5221 0
      vertex 12.1137 11.0353 0
    endloop
  endfacet
  facet normal 0.659343 0.751842 -0
    outer loop
      vertex 11.0784 12.8284 0
      vertex 10.685 13.1734 0.235066
      vertex 11.0784 12.8284 0.628446
    endloop
  endfacet
  facet normal 0.659343 0.751842 0
    outer loop
      vertex 10.685 13.1734 0.235066
      vertex 11.0784 12.8284 0
      vertex 10.685 13.1734 0
    endloop
  endfacet
  facet normal 0.44226 0.896887 -0
    outer loop
      vertex 10.25 13.4641 0
      vertex 9.78073 13.6955 0.0500059
      vertex 10.25 13.4641 0.0500059
    endloop
  endfacet
  facet normal 0.44226 0.896887 0
    outer loop
      vertex 9.78073 13.6955 0.0500059
      vertex 10.25 13.4641 0
      vertex 9.78073 13.6955 0
    endloop
  endfacet
  facet normal 0.94691 0.321498 -0
    outer loop
      vertex 12.1137 11.0353 0
      vertex 11.9455 11.5307 1.49553
      vertex 12.1137 11.0353 1.66372
    endloop
  endfacet
  facet normal 0.94691 0.321498 0
    outer loop
      vertex 11.9455 11.5307 1.49553
      vertex 12.1137 11.0353 0
      vertex 11.9455 11.5307 0
    endloop
  endfacet
  facet normal 0.751842 0.659343 -0
    outer loop
      vertex 11.4234 12.435 0
      vertex 11.0784 12.8284 0.628446
      vertex 11.4234 12.435 0.973432
    endloop
  endfacet
  facet normal 0.751842 0.659343 0
    outer loop
      vertex 11.0784 12.8284 0.628446
      vertex 11.4234 12.435 0
      vertex 11.0784 12.8284 0
    endloop
  endfacet
  facet normal -0.44226 0.896887 0
    outer loop
      vertex -9.78073 13.6955 0
      vertex -10.25 13.4641 0.0500059
      vertex -9.78073 13.6955 0.0500059
    endloop
  endfacet
  facet normal -0.44226 0.896887 0
    outer loop
      vertex -10.25 13.4641 0.0500059
      vertex -9.78073 13.6955 0
      vertex -10.25 13.4641 0
    endloop
  endfacet
  facet normal -0.195131 0.980777 0
    outer loop
      vertex -8.7721 13.9658 0
      vertex -9.28528 13.8637 0.0500059
      vertex -8.7721 13.9658 0.0500059
    endloop
  endfacet
  facet normal -0.195131 0.980777 0
    outer loop
      vertex -9.28528 13.8637 0.0500059
      vertex -8.7721 13.9658 0
      vertex -9.28528 13.8637 0
    endloop
  endfacet
  facet normal 0.896898 -0.442238 0
    outer loop
      vertex 11.7141 -12 1.26412
      vertex 11.9455 -11.5307 0
      vertex 11.9455 -11.5307 1.49553
    endloop
  endfacet
  facet normal 0.896898 -0.442238 0
    outer loop
      vertex 11.9455 -11.5307 0
      vertex 11.7141 -12 1.26412
      vertex 11.7141 -12 0
    endloop
  endfacet
  facet normal -0.896898 -0.442238 -0
    outer loop
      vertex -11.7141 -12 1.26412
      vertex -11.9455 -11.5307 0
      vertex -11.7141 -12 0
    endloop
  endfacet
  facet normal -0.896898 -0.442238 0
    outer loop
      vertex -11.9455 -11.5307 0
      vertex -11.7141 -12 1.26412
      vertex -11.9455 -11.5307 1.49553
    endloop
  endfacet
  facet normal -0.831432 -0.555626 -0
    outer loop
      vertex -11.4234 -12.435 0.973432
      vertex -11.7141 -12 0
      vertex -11.4234 -12.435 0
    endloop
  endfacet
  facet normal -0.831432 -0.555626 0
    outer loop
      vertex -11.7141 -12 0
      vertex -11.4234 -12.435 0.973432
      vertex -11.7141 -12 1.26412
    endloop
  endfacet
  facet normal 0.195131 -0.980777 0
    outer loop
      vertex 8.7721 -13.9658 0
      vertex 9.28528 -13.8637 0.0500059
      vertex 8.7721 -13.9658 0.0500059
    endloop
  endfacet
  facet normal 0.195131 -0.980777 0
    outer loop
      vertex 9.28528 -13.8637 0.0500059
      vertex 8.7721 -13.9658 0
      vertex 9.28528 -13.8637 0
    endloop
  endfacet
  facet normal 0.44226 -0.896887 0
    outer loop
      vertex 9.78073 -13.6955 0
      vertex 10.25 -13.4641 0.0500059
      vertex 9.78073 -13.6955 0.0500059
    endloop
  endfacet
  facet normal 0.44226 -0.896887 0
    outer loop
      vertex 10.25 -13.4641 0.0500059
      vertex 9.78073 -13.6955 0
      vertex 10.25 -13.4641 0
    endloop
  endfacet
  facet normal 0.195131 0.980777 -0
    outer loop
      vertex 9.28528 13.8637 0
      vertex 8.7721 13.9658 0.0500059
      vertex 9.28528 13.8637 0.0500059
    endloop
  endfacet
  facet normal 0.195131 0.980777 0
    outer loop
      vertex 8.7721 13.9658 0.0500059
      vertex 9.28528 13.8637 0
      vertex 8.7721 13.9658 0
    endloop
  endfacet
  facet normal 0.321469 0.94692 -0
    outer loop
      vertex 9.78073 13.6955 0
      vertex 9.28528 13.8637 0.0500059
      vertex 9.78073 13.6955 0.0500059
    endloop
  endfacet
  facet normal 0.321469 0.94692 0
    outer loop
      vertex 9.28528 13.8637 0.0500059
      vertex 9.78073 13.6955 0
      vertex 9.28528 13.8637 0
    endloop
  endfacet
  facet normal 0.321469 -0.94692 0
    outer loop
      vertex 9.28528 -13.8637 0
      vertex 9.78073 -13.6955 0.0500059
      vertex 9.28528 -13.8637 0.0500059
    endloop
  endfacet
  facet normal 0.321469 -0.94692 0
    outer loop
      vertex 9.78073 -13.6955 0.0500059
      vertex 9.28528 -13.8637 0
      vertex 9.78073 -13.6955 0
    endloop
  endfacet
  facet normal 0.555468 -0.831538 0
    outer loop
      vertex 10.25 -13.4641 0.0500059
      vertex 10.25 -13.4641 0
      vertex 10.5 -13.2971 0.0500059
    endloop
  endfacet
  facet normal 0.55584 -0.831289 0
    outer loop
      vertex 10.5 -13.2971 0.0500059
      vertex 10.685 -13.1734 0
      vertex 10.685 -13.1734 0.235066
    endloop
  endfacet
  facet normal 0.555626 -0.831432 -0.00114667
    outer loop
      vertex 10.685 -13.1734 0
      vertex 10.5 -13.2971 0.0500059
      vertex 10.25 -13.4641 0
    endloop
  endfacet
  facet normal 1 -0 0
    outer loop
      vertex -15.25 -7.5 4.5
      vertex -15.25 7.5 0
      vertex -15.25 7.5 4.5
    endloop
  endfacet
  facet normal 1 0 0
    outer loop
      vertex -15.25 7.5 0
      vertex -15.25 -7.5 4.5
      vertex -15.25 -7.5 0
    endloop
  endfacet
  facet normal -1 0 0
    outer loop
      vertex -13.25 -7.5 0
      vertex -13.25 7.5 2.80001
      vertex -13.25 7.5 0
    endloop
  endfacet
  facet normal -1 -0 0
    outer loop
      vertex -13.25 7.5 2.80001
      vertex -13.25 -7.5 0
      vertex -13.25 -7.5 2.80001
    endloop
  endfacet
  facet normal 0 -1 0
    outer loop
      vertex -15.25 7.5 4.5
      vertex -13.25 7.5 2.80001
      vertex -14.95 7.5 4.5
    endloop
  endfacet
  facet normal 0 -1 0
    outer loop
      vertex -15.25 7.5 0
      vertex -13.25 7.5 2.80001
      vertex -15.25 7.5 4.5
    endloop
  endfacet
  facet normal 0 -1 -0
    outer loop
      vertex -13.25 7.5 2.80001
      vertex -15.25 7.5 0
      vertex -13.25 7.5 0
    endloop
  endfacet
  facet normal 0 1 0
    outer loop
      vertex -13.25 -7.5 2.80001
      vertex -15.25 -7.5 4.5
      vertex -14.95 -7.5 4.5
    endloop
  endfacet
  facet normal 0 1 0
    outer loop
      vertex -15.25 -7.5 0
      vertex -13.25 -7.5 2.80001
      vertex -13.25 -7.5 0
    endloop
  endfacet
  facet normal 0 1 0
    outer loop
      vertex -13.25 -7.5 2.80001
      vertex -15.25 -7.5 0
      vertex -15.25 -7.5 4.5
    endloop
  endfacet
  facet normal 1 -0 0
    outer loop
      vertex 13.25 -7.5 2.80001
      vertex 13.25 7.5 0
      vertex 13.25 7.5 2.80001
    endloop
  endfacet
  facet normal 1 0 0
    outer loop
      vertex 13.25 7.5 0
      vertex 13.25 -7.5 2.80001
      vertex 13.25 -7.5 0
    endloop
  endfacet
  facet normal -1 0 0
    outer loop
      vertex 15.25 -7.5 0
      vertex 15.25 7.5 4.5
      vertex 15.25 7.5 0
    endloop
  endfacet
  facet normal -1 -0 0
    outer loop
      vertex 15.25 7.5 4.5
      vertex 15.25 -7.5 0
      vertex 15.25 -7.5 4.5
    endloop
  endfacet
  facet normal 0 1 0
    outer loop
      vertex 15.25 -7.5 4.5
      vertex 13.25 -7.5 2.80001
      vertex 14.95 -7.5 4.5
    endloop
  endfacet
  facet normal 0 1 -0
    outer loop
      vertex 15.25 -7.5 0
      vertex 13.25 -7.5 2.80001
      vertex 15.25 -7.5 4.5
    endloop
  endfacet
  facet normal 0 1 0
    outer loop
      vertex 13.25 -7.5 2.80001
      vertex 15.25 -7.5 0
      vertex 13.25 -7.5 0
    endloop
  endfacet
  facet normal 0 -1 0
    outer loop
      vertex 13.25 7.5 2.80001
      vertex 15.25 7.5 4.5
      vertex 14.95 7.5 4.5
    endloop
  endfacet
  facet normal 0 -1 0
    outer loop
      vertex 15.25 7.5 0
      vertex 13.25 7.5 2.80001
      vertex 13.25 7.5 0
    endloop
  endfacet
  facet normal 0 -1 0
    outer loop
      vertex 13.25 7.5 2.80001
      vertex 15.25 7.5 0
      vertex 15.25 7.5 4.5
    endloop
  endfacet
  facet normal -0.707105 0 0.707109
    outer loop
      vertex 14.95 9.5 4.5
      vertex 13.25 7.5 2.80001
      vertex 14.95 7.5 4.5
    endloop
  endfacet
  facet normal -0.7071 0 0.707114
    outer loop
      vertex 13.25 7.5 2.80001
      vertex 12.75 9.5 2.30002
      vertex 13.25 -7.5 2.80001
    endloop
  endfacet
  facet normal -0.707104 -1.92848e-06 0.70711
    outer loop
      vertex 12.75 9.5 2.30002
      vertex 13.25 7.5 2.80001
      vertex 14.95 9.5 4.5
    endloop
  endfacet
  facet normal -0.707105 0 0.707109
    outer loop
      vertex 13.25 -7.5 2.80001
      vertex 14.95 -9.5 4.5
      vertex 14.95 -7.5 4.5
    endloop
  endfacet
  facet normal -0.707104 1.92848e-06 0.70711
    outer loop
      vertex 13.25 -7.5 2.80001
      vertex 12.75 -9.5 2.30002
      vertex 14.95 -9.5 4.5
    endloop
  endfacet
  facet normal -0.7071 0 0.707114
    outer loop
      vertex 12.75 -9.5 2.30002
      vertex 13.25 -7.5 2.80001
      vertex 12.75 9.5 2.30002
    endloop
  endfacet
  facet normal -0.707081 3.0476e-05 0.707133
    outer loop
      vertex 10.5 13.2971 0.0500059
      vertex 12.25 10 1.80002
      vertex 12.2158 10.5221 1.7658
    endloop
  endfacet
  facet normal -0.70711 0 0.707104
    outer loop
      vertex 12.25 10 1.80002
      vertex 10.5 13.2971 0.0500059
      vertex 12.25 -10 1.80002
    endloop
  endfacet
  facet normal -0.707138 -3.9915e-05 0.707076
    outer loop
      vertex 10.5 13.2971 0.0500059
      vertex 12.2158 10.5221 1.7658
      vertex 12.1137 11.0353 1.66372
    endloop
  endfacet
  facet normal -0.70711 0 0.707104
    outer loop
      vertex 10.5 -13.2971 0.0500059
      vertex 12.25 -10 1.80002
      vertex 10.5 13.2971 0.0500059
    endloop
  endfacet
  facet normal -0.707132 -3.12347e-05 0.707082
    outer loop
      vertex 10.5 13.2971 0.0500059
      vertex 12.1137 11.0353 1.66372
      vertex 11.9455 11.5307 1.49553
    endloop
  endfacet
  facet normal -0.707081 -3.0476e-05 0.707133
    outer loop
      vertex 12.25 -10 1.80002
      vertex 10.5 -13.2971 0.0500059
      vertex 12.2158 -10.5221 1.7658
    endloop
  endfacet
  facet normal -0.707098 2.32837e-05 0.707115
    outer loop
      vertex 10.5 13.2971 0.0500059
      vertex 11.9455 11.5307 1.49553
      vertex 11.7141 12 1.26412
    endloop
  endfacet
  facet normal -0.707138 3.9915e-05 0.707076
    outer loop
      vertex 12.2158 -10.5221 1.7658
      vertex 10.5 -13.2971 0.0500059
      vertex 12.1137 -11.0353 1.66372
    endloop
  endfacet
  facet normal -0.707158 -8.73746e-05 0.707056
    outer loop
      vertex 10.5 13.2971 0.0500059
      vertex 11.7141 12 1.26412
      vertex 11.4234 12.435 0.973432
    endloop
  endfacet
  facet normal -0.707132 3.12347e-05 0.707082
    outer loop
      vertex 12.1137 -11.0353 1.66372
      vertex 10.5 -13.2971 0.0500059
      vertex 11.9455 -11.5307 1.49553
    endloop
  endfacet
  facet normal -0.707227 -0.000235502 0.706987
    outer loop
      vertex 10.5 13.2971 0.0500059
      vertex 11.4234 12.435 0.973432
      vertex 11.0784 12.8284 0.628446
    endloop
  endfacet
  facet normal -0.707098 -2.32837e-05 0.707115
    outer loop
      vertex 11.9455 -11.5307 1.49553
      vertex 10.5 -13.2971 0.0500059
      vertex 11.7141 -12 1.26412
    endloop
  endfacet
  facet normal -0.707647 -0.00127428 0.706565
    outer loop
      vertex 10.5 13.2971 0.0500059
      vertex 11.0784 12.8284 0.628446
      vertex 10.685 13.1734 0.235066
    endloop
  endfacet
  facet normal -0.707158 8.73746e-05 0.707056
    outer loop
      vertex 11.7141 -12 1.26412
      vertex 10.5 -13.2971 0.0500059
      vertex 11.4234 -12.435 0.973432
    endloop
  endfacet
  facet normal -0.707227 0.000235502 0.706987
    outer loop
      vertex 11.4234 -12.435 0.973432
      vertex 10.5 -13.2971 0.0500059
      vertex 11.0784 -12.8284 0.628446
    endloop
  endfacet
  facet normal -0.707647 0.00127428 0.706565
    outer loop
      vertex 11.0784 -12.8284 0.628446
      vertex 10.5 -13.2971 0.0500059
      vertex 10.685 -13.1734 0.235066
    endloop
  endfacet
  facet normal 0 0 1
    outer loop
      vertex 9.78073 13.6955 0.0500059
      vertex 10.5 13.2971 0.0500059
      vertex 10.25 13.4641 0.0500059
    endloop
  endfacet
  facet normal 0 0 1
    outer loop
      vertex 10.5 13.2971 0.0500059
      vertex 2.5 6.1 0.0500059
      vertex 10.5 -13.2971 0.0500059
    endloop
  endfacet
  facet normal 0 0 1
    outer loop
      vertex 10.5 13.2971 0.0500059
      vertex 9.78073 13.6955 0.0500059
      vertex 8.25 14 0.0500059
    endloop
  endfacet
  facet normal -0 -0 1
    outer loop
      vertex 3 -9.05 0.0500059
      vertex 10.5 -13.2971 0.0500059
      vertex 2.5 6.1 0.0500059
    endloop
  endfacet
  facet normal 0 0 1
    outer loop
      vertex 8.25 14 0.0500059
      vertex 9.78073 13.6955 0.0500059
      vertex 9.28528 13.8637 0.0500059
    endloop
  endfacet
  facet normal 0 -0 1
    outer loop
      vertex 8.25 -14 0.0500059
      vertex 10.5 -13.2971 0.0500059
      vertex 3 -9.05 0.0500059
    endloop
  endfacet
  facet normal 0 0 1
    outer loop
      vertex 8.25 14 0.0500059
      vertex 9.28528 13.8637 0.0500059
      vertex 8.7721 13.9658 0.0500059
    endloop
  endfacet
  facet normal 0 -0 1
    outer loop
      vertex 9.78073 -13.6955 0.0500059
      vertex 10.5 -13.2971 0.0500059
      vertex 8.25 -14 0.0500059
    endloop
  endfacet
  facet normal 0 0 1
    outer loop
      vertex 10.5 13.2971 0.0500059
      vertex 8.25 14 0.0500059
      vertex 2.5 6.1 0.0500059
    endloop
  endfacet
  facet normal 0 0 1
    outer loop
      vertex 10.5 -13.2971 0.0500059
      vertex 9.78073 -13.6955 0.0500059
      vertex 10.25 -13.4641 0.0500059
    endloop
  endfacet
  facet normal 0 0 1
    outer loop
      vertex 9.78073 -13.6955 0.0500059
      vertex 8.25 -14 0.0500059
      vertex 9.28528 -13.8637 0.0500059
    endloop
  endfacet
  facet normal 0 0 1
    outer loop
      vertex 2.5 6.1 0.0500059
      vertex 8.25 14 0.0500059
      vertex 2.5 11.1 0.0500059
    endloop
  endfacet
  facet normal 0 0 1
    outer loop
      vertex 8.25 14 0.0500059
      vertex -2.5 11.1 0.0500059
      vertex 2.5 11.1 0.0500059
    endloop
  endfacet
  facet normal 0 0 1
    outer loop
      vertex -8.25 14 0.0500059
      vertex -2.5 6.1 0.0500059
      vertex -2.5 11.1 0.0500059
    endloop
  endfacet
  facet normal 0 0 1
    outer loop
      vertex -10.5 -13.2971 0.0500059
      vertex -2.5 6.1 0.0500059
      vertex -10.5 13.2971 0.0500059
    endloop
  endfacet
  facet normal 0 0 1
    outer loop
      vertex -2.5 6.1 0.0500059
      vertex -8.25 14 0.0500059
      vertex -10.5 13.2971 0.0500059
    endloop
  endfacet
  facet normal -0 0 1
    outer loop
      vertex -8.25 14 0.0500059
      vertex -2.5 11.1 0.0500059
      vertex 8.25 14 0.0500059
    endloop
  endfacet
  facet normal -0 0 1
    outer loop
      vertex 3 -13.55 0.0500059
      vertex 8.25 -14 0.0500059
      vertex 3 -9.05 0.0500059
    endloop
  endfacet
  facet normal -0 0 1
    outer loop
      vertex -3 -13.55 0.0500059
      vertex 8.25 -14 0.0500059
      vertex 3 -13.55 0.0500059
    endloop
  endfacet
  facet normal 0 0 1
    outer loop
      vertex -3 -13.55 0.0500059
      vertex -8.25 -14 0.0500059
      vertex 8.25 -14 0.0500059
    endloop
  endfacet
  facet normal 0 0 1
    outer loop
      vertex -2.5 6.1 0.0500059
      vertex -10.5 -13.2971 0.0500059
      vertex -3 -9.05 0.0500059
    endloop
  endfacet
  facet normal 0 0 1
    outer loop
      vertex -10.5 13.2971 0.0500059
      vertex -8.25 14 0.0500059
      vertex -8.7721 13.9658 0.0500059
    endloop
  endfacet
  facet normal 0 -0 1
    outer loop
      vertex -8.25 -14 0.0500059
      vertex -3 -9.05 0.0500059
      vertex -10.5 -13.2971 0.0500059
    endloop
  endfacet
  facet normal 0 0 1
    outer loop
      vertex -10.5 13.2971 0.0500059
      vertex -8.7721 13.9658 0.0500059
      vertex -9.28528 13.8637 0.0500059
    endloop
  endfacet
  facet normal 0 0 1
    outer loop
      vertex -3 -9.05 0.0500059
      vertex -8.25 -14 0.0500059
      vertex -3 -13.55 0.0500059
    endloop
  endfacet
  facet normal 0 0 1
    outer loop
      vertex -10.5 13.2971 0.0500059
      vertex -9.28528 13.8637 0.0500059
      vertex -9.78073 13.6955 0.0500059
    endloop
  endfacet
  facet normal 0 0 1
    outer loop
      vertex -8.25 -14 0.0500059
      vertex -10.5 -13.2971 0.0500059
      vertex -8.7721 -13.9658 0.0500059
    endloop
  endfacet
  facet normal 0 0 1
    outer loop
      vertex -10.5 13.2971 0.0500059
      vertex -9.78073 13.6955 0.0500059
      vertex -10.25 13.4641 0.0500059
    endloop
  endfacet
  facet normal 0 0 1
    outer loop
      vertex -8.7721 -13.9658 0.0500059
      vertex -10.5 -13.2971 0.0500059
      vertex -9.28528 -13.8637 0.0500059
    endloop
  endfacet
  facet normal 0 0 1
    outer loop
      vertex -9.28528 -13.8637 0.0500059
      vertex -10.5 -13.2971 0.0500059
      vertex -9.78073 -13.6955 0.0500059
    endloop
  endfacet
  facet normal 0 0 1
    outer loop
      vertex -9.78073 -13.6955 0.0500059
      vertex -10.5 -13.2971 0.0500059
      vertex -10.25 -13.4641 0.0500059
    endloop
  endfacet
  facet normal 0 0 1
    outer loop
      vertex 9.28528 -13.8637 0.0500059
      vertex 8.25 -14 0.0500059
      vertex 8.7721 -13.9658 0.0500059
    endloop
  endfacet
  facet normal -0 0 1
    outer loop
      vertex -2.5 6.1 0.0500059
      vertex 3 -9.05 0.0500059
      vertex 2.5 6.1 0.0500059
    endloop
  endfacet
  facet normal 0 0 1
    outer loop
      vertex 3 -9.05 0.0500059
      vertex -2.5 6.1 0.0500059
      vertex -3 -9.05 0.0500059
    endloop
  endfacet
  facet normal 0.7071 0 0.707114
    outer loop
      vertex -12.75 9.5 2.30002
      vertex -13.25 7.5 2.80001
      vertex -12.75 -9.5 2.30002
    endloop
  endfacet
  facet normal 0.707104 -1.92848e-06 0.70711
    outer loop
      vertex -14.95 9.5 4.5
      vertex -13.25 7.5 2.80001
      vertex -12.75 9.5 2.30002
    endloop
  endfacet
  facet normal 0.707105 0 0.707109
    outer loop
      vertex -13.25 7.5 2.80001
      vertex -14.95 9.5 4.5
      vertex -14.95 7.5 4.5
    endloop
  endfacet
  facet normal 0.7071 -0 0.707114
    outer loop
      vertex -13.25 -7.5 2.80001
      vertex -12.75 -9.5 2.30002
      vertex -13.25 7.5 2.80001
    endloop
  endfacet
  facet normal 0.707105 -0 0.707109
    outer loop
      vertex -14.95 -9.5 4.5
      vertex -13.25 -7.5 2.80001
      vertex -14.95 -7.5 4.5
    endloop
  endfacet
  facet normal 0.707104 1.92848e-06 0.70711
    outer loop
      vertex -13.25 -7.5 2.80001
      vertex -14.95 -9.5 4.5
      vertex -12.75 -9.5 2.30002
    endloop
  endfacet
  facet normal 0.707647 -0.00127428 0.706565
    outer loop
      vertex -11.0784 12.8284 0.628446
      vertex -10.5 13.2971 0.0500059
      vertex -10.685 13.1734 0.235066
    endloop
  endfacet
  facet normal 0.70711 0 0.707104
    outer loop
      vertex -10.5 13.2971 0.0500059
      vertex -12.25 10 1.80002
      vertex -10.5 -13.2971 0.0500059
    endloop
  endfacet
  facet normal 0.707148 -4.03489e-05 0.707066
    outer loop
      vertex -10.5 13.2971 0.0500059
      vertex -11.0784 12.8284 0.628446
      vertex -12.25 10 1.80002
    endloop
  endfacet
  facet normal 0.70711 -0 0.707104
    outer loop
      vertex -12.25 -10 1.80002
      vertex -10.5 -13.2971 0.0500059
      vertex -12.25 10 1.80002
    endloop
  endfacet
  facet normal 0.707087 1.02073e-05 0.707127
    outer loop
      vertex -12.25 10 1.80002
      vertex -11.0784 12.8284 0.628446
      vertex -11.4234 12.435 0.973432
    endloop
  endfacet
  facet normal 0.707148 4.03489e-05 0.707066
    outer loop
      vertex -11.0784 -12.8284 0.628446
      vertex -10.5 -13.2971 0.0500059
      vertex -12.25 -10 1.80002
    endloop
  endfacet
  facet normal 0.707082 1.30567e-05 0.707131
    outer loop
      vertex -12.25 10 1.80002
      vertex -11.4234 12.435 0.973432
      vertex -11.7141 12 1.26412
    endloop
  endfacet
  facet normal 0.707647 0.00127428 0.706565
    outer loop
      vertex -10.5 -13.2971 0.0500059
      vertex -11.0784 -12.8284 0.628446
      vertex -10.685 -13.1734 0.235066
    endloop
  endfacet
  facet normal 0.70714 -1.79326e-05 0.707073
    outer loop
      vertex -12.25 10 1.80002
      vertex -11.7141 12 1.26412
      vertex -11.9455 11.5307 1.49553
    endloop
  endfacet
  facet normal 0.707087 -1.02073e-05 0.707127
    outer loop
      vertex -11.0784 -12.8284 0.628446
      vertex -12.25 -10 1.80002
      vertex -11.4234 -12.435 0.973432
    endloop
  endfacet
  facet normal 0.707072 9.04036e-06 0.707141
    outer loop
      vertex -12.25 10 1.80002
      vertex -11.9455 11.5307 1.49553
      vertex -12.1137 11.0353 1.66372
    endloop
  endfacet
  facet normal 0.707082 -1.30567e-05 0.707131
    outer loop
      vertex -11.4234 -12.435 0.973432
      vertex -12.25 -10 1.80002
      vertex -11.7141 -12 1.26412
    endloop
  endfacet
  facet normal 0.706902 5.39262e-05 0.707312
    outer loop
      vertex -12.25 10 1.80002
      vertex -12.1137 11.0353 1.66372
      vertex -12.2158 10.5221 1.7658
    endloop
  endfacet
  facet normal 0.70714 1.79326e-05 0.707073
    outer loop
      vertex -11.7141 -12 1.26412
      vertex -12.25 -10 1.80002
      vertex -11.9455 -11.5307 1.49553
    endloop
  endfacet
  facet normal 0.707072 -9.04036e-06 0.707141
    outer loop
      vertex -11.9455 -11.5307 1.49553
      vertex -12.25 -10 1.80002
      vertex -12.1137 -11.0353 1.66372
    endloop
  endfacet
  facet normal 0.706902 -5.39262e-05 0.707312
    outer loop
      vertex -12.1137 -11.0353 1.66372
      vertex -12.25 -10 1.80002
      vertex -12.2158 -10.5221 1.7658
    endloop
  endfacet
  facet normal 1 -0 0
    outer loop
      vertex -3 -13.55 0.0500059
      vertex -3 -9.05 0
      vertex -3 -9.05 0.0500059
    endloop
  endfacet
  facet normal 1 0 0
    outer loop
      vertex -3 -9.05 0
      vertex -3 -13.55 0.0500059
      vertex -3 -13.55 0
    endloop
  endfacet
  facet normal -1 0 0
    outer loop
      vertex 3 -13.55 0
      vertex 3 -9.05 0.0500059
      vertex 3 -9.05 0
    endloop
  endfacet
  facet normal -1 -0 0
    outer loop
      vertex 3 -9.05 0.0500059
      vertex 3 -13.55 0
      vertex 3 -13.55 0.0500059
    endloop
  endfacet
  facet normal 0 1 -0
    outer loop
      vertex 3 -13.55 0
      vertex -3 -13.55 0.0500059
      vertex 3 -13.55 0.0500059
    endloop
  endfacet
  facet normal 0 1 0
    outer loop
      vertex -3 -13.55 0.0500059
      vertex 3 -13.55 0
      vertex -3 -13.55 0
    endloop
  endfacet
  facet normal 0 -1 0
    outer loop
      vertex -3 -9.05 0
      vertex 3 -9.05 0.0500059
      vertex -3 -9.05 0.0500059
    endloop
  endfacet
  facet normal 0 -1 -0
    outer loop
      vertex 3 -9.05 0.0500059
      vertex -3 -9.05 0
      vertex 3 -9.05 0
    endloop
  endfacet
  facet normal 1 -0 0
    outer loop
      vertex -2.5 6.1 0.0500059
      vertex -2.5 11.1 0
      vertex -2.5 11.1 0.0500059
    endloop
  endfacet
  facet normal 1 0 0
    outer loop
      vertex -2.5 11.1 0
      vertex -2.5 6.1 0.0500059
      vertex -2.5 6.1 0
    endloop
  endfacet
  facet normal -1 0 0
    outer loop
      vertex 2.5 6.1 0
      vertex 2.5 11.1 0.0500059
      vertex 2.5 11.1 0
    endloop
  endfacet
  facet normal -1 -0 0
    outer loop
      vertex 2.5 11.1 0.0500059
      vertex 2.5 6.1 0
      vertex 2.5 6.1 0.0500059
    endloop
  endfacet
  facet normal 0 1 -0
    outer loop
      vertex 2.5 6.1 0
      vertex -2.5 6.1 0.0500059
      vertex 2.5 6.1 0.0500059
    endloop
  endfacet
  facet normal 0 1 0
    outer loop
      vertex -2.5 6.1 0.0500059
      vertex 2.5 6.1 0
      vertex -2.5 6.1 0
    endloop
  endfacet
  facet normal 0 -1 0
    outer loop
      vertex -2.5 11.1 0
      vertex 2.5 11.1 0.0500059
      vertex -2.5 11.1 0.0500059
    endloop
  endfacet
  facet normal 0 -1 -0
    outer loop
      vertex 2.5 11.1 0.0500059
      vertex -2.5 11.1 0
      vertex 2.5 11.1 0
    endloop
  endfacet
endsolid OpenSCAD_Model
