solid OpenSCAD_Model
  facet normal -1 0 0
    outer loop
      vertex -23.75 -8.5 9.45001
      vertex -23.75 -8.04999 10.8412
      vertex -23.75 -8.04999 9.15883
    endloop
  endfacet
  facet normal -1 0 0
    outer loop
      vertex -23.75 -8.04999 10.8412
      vertex -23.75 -8.5 9.45001
      vertex -23.75 -8.5 10.55
    endloop
  endfacet
  facet normal 0 -0.543247 -0.839573
    outer loop
      vertex -23.75 -8.5 9.45001
      vertex -20.25 -8.04999 9.15883
      vertex -20.25 -8.5 9.45001
    endloop
  endfacet
  facet normal -0 -0.543247 -0.839573
    outer loop
      vertex -20.25 -8.04999 9.15883
      vertex -23.75 -8.5 9.45001
      vertex -23.75 -8.04999 9.15883
    endloop
  endfacet
  facet normal 0 -0.543274 0.839556
    outer loop
      vertex -23.75 -8.04999 10.8412
      vertex -20.25 -8.5 10.55
      vertex -20.25 -8.04999 10.8412
    endloop
  endfacet
  facet normal 0 -0.543274 0.839556
    outer loop
      vertex -20.25 -8.5 10.55
      vertex -23.75 -8.04999 10.8412
      vertex -23.75 -8.5 10.55
    endloop
  endfacet
  facet normal 0 -1 0
    outer loop
      vertex -23.75 -8.5 9.45001
      vertex -20.25 -8.5 10.55
      vertex -23.75 -8.5 10.55
    endloop
  endfacet
  facet normal 0 -1 -0
    outer loop
      vertex -20.25 -8.5 10.55
      vertex -23.75 -8.5 9.45001
      vertex -20.25 -8.5 9.45001
    endloop
  endfacet
  facet normal 1 -0 0
    outer loop
      vertex -20.25 -8.5 10.55
      vertex -20.25 -8.04999 9.15883
      vertex -20.25 -8.04999 10.8412
    endloop
  endfacet
  facet normal 1 0 0
    outer loop
      vertex -20.25 -8.04999 9.15883
      vertex -20.25 -8.5 10.55
      vertex -20.25 -8.5 9.45001
    endloop
  endfacet
  facet normal -1 0 0
    outer loop
      vertex 20.25 -8.5 9.45001
      vertex 20.25 -8.04999 10.8412
      vertex 20.25 -8.04999 9.15883
    endloop
  endfacet
  facet normal -1 0 0
    outer loop
      vertex 20.25 -8.04999 10.8412
      vertex 20.25 -8.5 9.45001
      vertex 20.25 -8.5 10.55
    endloop
  endfacet
  facet normal 0 -0.543247 -0.839573
    outer loop
      vertex 20.25 -8.5 9.45001
      vertex 23.75 -8.04999 9.15883
      vertex 23.75 -8.5 9.45001
    endloop
  endfacet
  facet normal -0 -0.543247 -0.839573
    outer loop
      vertex 23.75 -8.04999 9.15883
      vertex 20.25 -8.5 9.45001
      vertex 20.25 -8.04999 9.15883
    endloop
  endfacet
  facet normal 0 -0.543274 0.839556
    outer loop
      vertex 20.25 -8.04999 10.8412
      vertex 23.75 -8.5 10.55
      vertex 23.75 -8.04999 10.8412
    endloop
  endfacet
  facet normal 0 -0.543274 0.839556
    outer loop
      vertex 23.75 -8.5 10.55
      vertex 20.25 -8.04999 10.8412
      vertex 20.25 -8.5 10.55
    endloop
  endfacet
  facet normal 0 -1 0
    outer loop
      vertex 20.25 -8.5 9.45001
      vertex 23.75 -8.5 10.55
      vertex 20.25 -8.5 10.55
    endloop
  endfacet
  facet normal 0 -1 -0
    outer loop
      vertex 23.75 -8.5 10.55
      vertex 20.25 -8.5 9.45001
      vertex 23.75 -8.5 9.45001
    endloop
  endfacet
  facet normal 1 -0 0
    outer loop
      vertex 23.75 -8.5 10.55
      vertex 23.75 -8.04999 9.15883
      vertex 23.75 -8.04999 10.8412
    endloop
  endfacet
  facet normal 1 0 0
    outer loop
      vertex 23.75 -8.04999 9.15883
      vertex 23.75 -8.5 10.55
      vertex 23.75 -8.5 9.45001
    endloop
  endfacet
  facet normal -0 0.543274 0.839556
    outer loop
      vertex -23.75 8.5 10.55
      vertex -20.25 8.04999 10.8412
      vertex -20.25 8.5 10.55
    endloop
  endfacet
  facet normal 0 0.543274 0.839556
    outer loop
      vertex -20.25 8.04999 10.8412
      vertex -23.75 8.5 10.55
      vertex -23.75 8.04999 10.8412
    endloop
  endfacet
  facet normal 0 1 -0
    outer loop
      vertex -20.25 8.5 9.45001
      vertex -23.75 8.5 10.55
      vertex -20.25 8.5 10.55
    endloop
  endfacet
  facet normal 0 1 0
    outer loop
      vertex -23.75 8.5 10.55
      vertex -20.25 8.5 9.45001
      vertex -23.75 8.5 9.45001
    endloop
  endfacet
  facet normal -1 0 0
    outer loop
      vertex -23.75 8.04999 9.15883
      vertex -23.75 8.5 10.55
      vertex -23.75 8.5 9.45001
    endloop
  endfacet
  facet normal -1 -0 0
    outer loop
      vertex -23.75 8.5 10.55
      vertex -23.75 8.04999 9.15883
      vertex -23.75 8.04999 10.8412
    endloop
  endfacet
  facet normal 0 0.543247 -0.839573
    outer loop
      vertex -23.75 8.04999 9.15883
      vertex -20.25 8.5 9.45001
      vertex -20.25 8.04999 9.15883
    endloop
  endfacet
  facet normal 0 0.543247 -0.839573
    outer loop
      vertex -20.25 8.5 9.45001
      vertex -23.75 8.04999 9.15883
      vertex -23.75 8.5 9.45001
    endloop
  endfacet
  facet normal 1 0 0
    outer loop
      vertex -20.25 8.04999 10.8412
      vertex -20.25 8.5 9.45001
      vertex -20.25 8.5 10.55
    endloop
  endfacet
  facet normal 1 0 0
    outer loop
      vertex -20.25 8.5 9.45001
      vertex -20.25 8.04999 10.8412
      vertex -20.25 8.04999 9.15883
    endloop
  endfacet
  facet normal -0 0.543274 0.839556
    outer loop
      vertex 20.25 8.5 10.55
      vertex 23.75 8.04999 10.8412
      vertex 23.75 8.5 10.55
    endloop
  endfacet
  facet normal 0 0.543274 0.839556
    outer loop
      vertex 23.75 8.04999 10.8412
      vertex 20.25 8.5 10.55
      vertex 20.25 8.04999 10.8412
    endloop
  endfacet
  facet normal 0 1 -0
    outer loop
      vertex 23.75 8.5 9.45001
      vertex 20.25 8.5 10.55
      vertex 23.75 8.5 10.55
    endloop
  endfacet
  facet normal 0 1 0
    outer loop
      vertex 20.25 8.5 10.55
      vertex 23.75 8.5 9.45001
      vertex 20.25 8.5 9.45001
    endloop
  endfacet
  facet normal -1 0 0
    outer loop
      vertex 20.25 8.04999 9.15883
      vertex 20.25 8.5 10.55
      vertex 20.25 8.5 9.45001
    endloop
  endfacet
  facet normal -1 -0 0
    outer loop
      vertex 20.25 8.5 10.55
      vertex 20.25 8.04999 9.15883
      vertex 20.25 8.04999 10.8412
    endloop
  endfacet
  facet normal 0 0.543247 -0.839573
    outer loop
      vertex 20.25 8.04999 9.15883
      vertex 23.75 8.5 9.45001
      vertex 23.75 8.04999 9.15883
    endloop
  endfacet
  facet normal 0 0.543247 -0.839573
    outer loop
      vertex 23.75 8.5 9.45001
      vertex 20.25 8.04999 9.15883
      vertex 20.25 8.5 9.45001
    endloop
  endfacet
  facet normal 1 0 0
    outer loop
      vertex 23.75 8.04999 10.8412
      vertex 23.75 8.5 9.45001
      vertex 23.75 8.5 10.55
    endloop
  endfacet
  facet normal 1 0 0
    outer loop
      vertex 23.75 8.5 9.45001
      vertex 23.75 8.04999 10.8412
      vertex 23.75 8.04999 9.15883
    endloop
  endfacet
  facet normal 0.707106 -0.707107 0
    outer loop
      vertex 36.3858 -8.04999 0.2
      vertex 44.4358 0 13
      vertex 36.3858 -8.04999 13
    endloop
  endfacet
  facet normal 0.707106 -0.707107 0
    outer loop
      vertex 44.4358 0 13
      vertex 36.3858 -8.04999 0.2
      vertex 44.4358 0 0.2
    endloop
  endfacet
  facet normal 0 0 -1
    outer loop
      vertex 36.3858 -8.04999 0.2
      vertex 36.3858 8.04999 0.2
      vertex 44.4358 0 0.2
    endloop
  endfacet
  facet normal 0 0 -1
    outer loop
      vertex -36.3858 -8.04999 0.2
      vertex 36.3858 8.04999 0.2
      vertex 36.3858 -8.04999 0.2
    endloop
  endfacet
  facet normal 0 0 -1
    outer loop
      vertex -36.3858 -8.04999 0.2
      vertex -36.3858 8.04999 0.2
      vertex 36.3858 8.04999 0.2
    endloop
  endfacet
  facet normal 0 -0 -1
    outer loop
      vertex -36.3858 8.04999 0.2
      vertex -36.3858 -8.04999 0.2
      vertex -44.4358 0 0.2
    endloop
  endfacet
  facet normal -0.707106 -0.707107 0
    outer loop
      vertex -44.4358 0 0.2
      vertex -36.3858 -8.04999 13
      vertex -44.4358 0 13
    endloop
  endfacet
  facet normal -0.707106 -0.707107 -0
    outer loop
      vertex -36.3858 -8.04999 13
      vertex -44.4358 0 0.2
      vertex -36.3858 -8.04999 0.2
    endloop
  endfacet
  facet normal 0 0 1
    outer loop
      vertex 36.3858 8.04999 13
      vertex 43.3858 0 13
      vertex 44.4358 0 13
    endloop
  endfacet
  facet normal 0 0 1
    outer loop
      vertex 36.3858 8.04999 13
      vertex 36.3858 7 13
      vertex 43.3858 0 13
    endloop
  endfacet
  facet normal -0 0 1
    outer loop
      vertex 24.9 8.04999 13
      vertex 36.3858 7 13
      vertex 36.3858 8.04999 13
    endloop
  endfacet
  facet normal 0 0 1
    outer loop
      vertex 36.3858 7 13
      vertex 24.9 8.04999 13
      vertex 24.9 7 13
    endloop
  endfacet
  facet normal 0 0 1
    outer loop
      vertex 36.3858 -7 13
      vertex 44.4358 0 13
      vertex 43.3858 0 13
    endloop
  endfacet
  facet normal -0 0 1
    outer loop
      vertex 36.3858 -7 13
      vertex 36.3858 -8.04999 13
      vertex 44.4358 0 13
    endloop
  endfacet
  facet normal -0 0 1
    outer loop
      vertex 24.9 -7 13
      vertex 36.3858 -8.04999 13
      vertex 36.3858 -7 13
    endloop
  endfacet
  facet normal 0 0 1
    outer loop
      vertex 36.3858 -8.04999 13
      vertex 24.9 -7 13
      vertex 24.9 -8.04999 13
    endloop
  endfacet
  facet normal -0 0 1
    outer loop
      vertex -36.3858 8.04999 13
      vertex -24.9 7 13
      vertex -24.9 8.04999 13
    endloop
  endfacet
  facet normal 0 0 1
    outer loop
      vertex -36.3858 8.04999 13
      vertex -36.3858 7 13
      vertex -24.9 7 13
    endloop
  endfacet
  facet normal 0 0 1
    outer loop
      vertex -36.3858 8.04999 13
      vertex -43.3858 0 13
      vertex -36.3858 7 13
    endloop
  endfacet
  facet normal 0 -0 1
    outer loop
      vertex -43.3858 0 13
      vertex -36.3858 8.04999 13
      vertex -44.4358 0 13
    endloop
  endfacet
  facet normal -0 0 1
    outer loop
      vertex -36.3858 -7 13
      vertex -24.9 -8.04999 13
      vertex -24.9 -7 13
    endloop
  endfacet
  facet normal 0 0 1
    outer loop
      vertex -36.3858 -7 13
      vertex -36.3858 -8.04999 13
      vertex -24.9 -8.04999 13
    endloop
  endfacet
  facet normal 0 0 1
    outer loop
      vertex -43.3858 0 13
      vertex -36.3858 -8.04999 13
      vertex -36.3858 -7 13
    endloop
  endfacet
  facet normal 0 0 1
    outer loop
      vertex -36.3858 -8.04999 13
      vertex -43.3858 0 13
      vertex -44.4358 0 13
    endloop
  endfacet
  facet normal -0 0 1
    outer loop
      vertex -24.1 -7 13
      vertex -19.9 -8.04999 13
      vertex -19.9 -7 13
    endloop
  endfacet
  facet normal 0 0 1
    outer loop
      vertex -19.9 -8.04999 13
      vertex -24.1 -7 13
      vertex -24.1 -8.04999 13
    endloop
  endfacet
  facet normal -0 0 1
    outer loop
      vertex -19.1 -7 13
      vertex 19.1 -8.04999 13
      vertex 19.1 -7 13
    endloop
  endfacet
  facet normal 0 0 1
    outer loop
      vertex 19.1 -8.04999 13
      vertex -19.1 -7 13
      vertex -19.1 -8.04999 13
    endloop
  endfacet
  facet normal -0 0 1
    outer loop
      vertex 19.9 -7 13
      vertex 24.1 -8.04999 13
      vertex 24.1 -7 13
    endloop
  endfacet
  facet normal 0 0 1
    outer loop
      vertex 24.1 -8.04999 13
      vertex 19.9 -7 13
      vertex 19.9 -8.04999 13
    endloop
  endfacet
  facet normal -0 0 1
    outer loop
      vertex -24.1 8.04999 13
      vertex -19.9 7 13
      vertex -19.9 8.04999 13
    endloop
  endfacet
  facet normal 0 0 1
    outer loop
      vertex -19.9 7 13
      vertex -24.1 8.04999 13
      vertex -24.1 7 13
    endloop
  endfacet
  facet normal -0 0 1
    outer loop
      vertex -19.1 8.04999 13
      vertex 19.1 7 13
      vertex 19.1 8.04999 13
    endloop
  endfacet
  facet normal 0 0 1
    outer loop
      vertex 19.1 7 13
      vertex -19.1 8.04999 13
      vertex -19.1 7 13
    endloop
  endfacet
  facet normal -0 0 1
    outer loop
      vertex 19.9 8.04999 13
      vertex 24.1 7 13
      vertex 24.1 8.04999 13
    endloop
  endfacet
  facet normal 0 0 1
    outer loop
      vertex 24.1 7 13
      vertex 19.9 8.04999 13
      vertex 19.9 7 13
    endloop
  endfacet
  facet normal 0 -1 0
    outer loop
      vertex -36.3858 -8.04999 13
      vertex -24.9 -8.04999 7.5
      vertex -24.9 -8.04999 13
    endloop
  endfacet
  facet normal 0 -1 0
    outer loop
      vertex -36.3858 -8.04999 0.2
      vertex -24.1 -8.04999 7.5
      vertex -24.9 -8.04999 7.5
    endloop
  endfacet
  facet normal 0 -1 -0
    outer loop
      vertex -24.1 -8.04999 7.5
      vertex -36.3858 -8.04999 0.2
      vertex -19.9 -8.04999 7.5
    endloop
  endfacet
  facet normal 0 -1 -0
    outer loop
      vertex -19.9 -8.04999 7.5
      vertex -36.3858 -8.04999 0.2
      vertex -19.1 -8.04999 7.5
    endloop
  endfacet
  facet normal 0 -1 -0
    outer loop
      vertex -19.1 -8.04999 7.5
      vertex -36.3858 -8.04999 0.2
      vertex 19.1 -8.04999 7.5
    endloop
  endfacet
  facet normal 0 -1 0
    outer loop
      vertex 36.3858 -8.04999 0.2
      vertex 19.1 -8.04999 7.5
      vertex -36.3858 -8.04999 0.2
    endloop
  endfacet
  facet normal 0 -1 0
    outer loop
      vertex 19.1 -8.04999 7.5
      vertex 36.3858 -8.04999 0.2
      vertex 19.9 -8.04999 7.5
    endloop
  endfacet
  facet normal 0 -1 0
    outer loop
      vertex 19.9 -8.04999 7.5
      vertex 36.3858 -8.04999 0.2
      vertex 24.1 -8.04999 7.5
    endloop
  endfacet
  facet normal 0 -1 0
    outer loop
      vertex -36.3858 -8.04999 0.2
      vertex -24.9 -8.04999 7.5
      vertex -36.3858 -8.04999 13
    endloop
  endfacet
  facet normal 0 -1 0
    outer loop
      vertex -19.1 -8.04999 7.5
      vertex 19.1 -8.04999 13
      vertex -19.1 -8.04999 13
    endloop
  endfacet
  facet normal 0 -1 -0
    outer loop
      vertex 19.1 -8.04999 13
      vertex -19.1 -8.04999 7.5
      vertex 19.1 -8.04999 7.5
    endloop
  endfacet
  facet normal 0 -1 0
    outer loop
      vertex 24.9 -8.04999 7.5
      vertex 36.3858 -8.04999 13
      vertex 24.9 -8.04999 13
    endloop
  endfacet
  facet normal 0 -1 0
    outer loop
      vertex 24.9 -8.04999 7.5
      vertex 36.3858 -8.04999 0.2
      vertex 36.3858 -8.04999 13
    endloop
  endfacet
  facet normal 0 -1 0
    outer loop
      vertex 24.1 -8.04999 7.5
      vertex 36.3858 -8.04999 0.2
      vertex 24.9 -8.04999 7.5
    endloop
  endfacet
  facet normal 0 -1 0
    outer loop
      vertex -24.1 -8.04999 13
      vertex -23.75 -8.04999 10.8412
      vertex -19.9 -8.04999 13
    endloop
  endfacet
  facet normal 0 -1 0
    outer loop
      vertex -24.1 -8.04999 7.5
      vertex -23.75 -8.04999 10.8412
      vertex -24.1 -8.04999 13
    endloop
  endfacet
  facet normal 0 -1 -0
    outer loop
      vertex -23.75 -8.04999 9.15883
      vertex -24.1 -8.04999 7.5
      vertex -20.25 -8.04999 9.15883
    endloop
  endfacet
  facet normal 0 -1 -0
    outer loop
      vertex -23.75 -8.04999 10.8412
      vertex -24.1 -8.04999 7.5
      vertex -23.75 -8.04999 9.15883
    endloop
  endfacet
  facet normal 0 -1 0
    outer loop
      vertex -20.25 -8.04999 10.8412
      vertex -19.9 -8.04999 13
      vertex -23.75 -8.04999 10.8412
    endloop
  endfacet
  facet normal 0 -1 0
    outer loop
      vertex -19.9 -8.04999 7.5
      vertex -20.25 -8.04999 10.8412
      vertex -20.25 -8.04999 9.15883
    endloop
  endfacet
  facet normal 0 -1 0
    outer loop
      vertex -20.25 -8.04999 10.8412
      vertex -19.9 -8.04999 7.5
      vertex -19.9 -8.04999 13
    endloop
  endfacet
  facet normal 0 -1 0
    outer loop
      vertex -19.9 -8.04999 7.5
      vertex -20.25 -8.04999 9.15883
      vertex -24.1 -8.04999 7.5
    endloop
  endfacet
  facet normal 0 -1 0
    outer loop
      vertex 19.9 -8.04999 13
      vertex 20.25 -8.04999 10.8412
      vertex 24.1 -8.04999 13
    endloop
  endfacet
  facet normal 0 -1 0
    outer loop
      vertex 19.9 -8.04999 7.5
      vertex 20.25 -8.04999 10.8412
      vertex 19.9 -8.04999 13
    endloop
  endfacet
  facet normal 0 -1 -0
    outer loop
      vertex 20.25 -8.04999 9.15883
      vertex 19.9 -8.04999 7.5
      vertex 23.75 -8.04999 9.15883
    endloop
  endfacet
  facet normal 0 -1 -0
    outer loop
      vertex 20.25 -8.04999 10.8412
      vertex 19.9 -8.04999 7.5
      vertex 20.25 -8.04999 9.15883
    endloop
  endfacet
  facet normal 0 -1 0
    outer loop
      vertex 23.75 -8.04999 10.8412
      vertex 24.1 -8.04999 13
      vertex 20.25 -8.04999 10.8412
    endloop
  endfacet
  facet normal 0 -1 0
    outer loop
      vertex 24.1 -8.04999 7.5
      vertex 23.75 -8.04999 10.8412
      vertex 23.75 -8.04999 9.15883
    endloop
  endfacet
  facet normal 0 -1 0
    outer loop
      vertex 23.75 -8.04999 10.8412
      vertex 24.1 -8.04999 7.5
      vertex 24.1 -8.04999 13
    endloop
  endfacet
  facet normal 0 -1 0
    outer loop
      vertex 24.1 -8.04999 7.5
      vertex 23.75 -8.04999 9.15883
      vertex 19.9 -8.04999 7.5
    endloop
  endfacet
  facet normal -0.707106 0.707107 0
    outer loop
      vertex -36.3858 8.04999 0.2
      vertex -44.4358 0 13
      vertex -36.3858 8.04999 13
    endloop
  endfacet
  facet normal -0.707106 0.707107 0
    outer loop
      vertex -44.4358 0 13
      vertex -36.3858 8.04999 0.2
      vertex -44.4358 0 0.2
    endloop
  endfacet
  facet normal 0 1 0
    outer loop
      vertex 36.3858 8.04999 13
      vertex 24.9 8.04999 7.5
      vertex 24.9 8.04999 13
    endloop
  endfacet
  facet normal 0 1 0
    outer loop
      vertex 36.3858 8.04999 0.2
      vertex 24.1 8.04999 7.5
      vertex 24.9 8.04999 7.5
    endloop
  endfacet
  facet normal 0 1 0
    outer loop
      vertex 24.1 8.04999 7.5
      vertex 36.3858 8.04999 0.2
      vertex 19.9 8.04999 7.5
    endloop
  endfacet
  facet normal 0 1 0
    outer loop
      vertex 19.9 8.04999 7.5
      vertex 36.3858 8.04999 0.2
      vertex 19.1 8.04999 7.5
    endloop
  endfacet
  facet normal 0 1 0
    outer loop
      vertex 19.1 8.04999 7.5
      vertex 36.3858 8.04999 0.2
      vertex -19.1 8.04999 7.5
    endloop
  endfacet
  facet normal 0 1 0
    outer loop
      vertex -36.3858 8.04999 0.2
      vertex -19.1 8.04999 7.5
      vertex 36.3858 8.04999 0.2
    endloop
  endfacet
  facet normal 0 1 0
    outer loop
      vertex -19.1 8.04999 7.5
      vertex -36.3858 8.04999 0.2
      vertex -19.9 8.04999 7.5
    endloop
  endfacet
  facet normal 0 1 0
    outer loop
      vertex -19.9 8.04999 7.5
      vertex -36.3858 8.04999 0.2
      vertex -24.1 8.04999 7.5
    endloop
  endfacet
  facet normal 0 1 -0
    outer loop
      vertex 36.3858 8.04999 0.2
      vertex 24.9 8.04999 7.5
      vertex 36.3858 8.04999 13
    endloop
  endfacet
  facet normal 0 1 -0
    outer loop
      vertex 19.1 8.04999 7.5
      vertex -19.1 8.04999 13
      vertex 19.1 8.04999 13
    endloop
  endfacet
  facet normal 0 1 0
    outer loop
      vertex -19.1 8.04999 13
      vertex 19.1 8.04999 7.5
      vertex -19.1 8.04999 7.5
    endloop
  endfacet
  facet normal 0 1 -0
    outer loop
      vertex -24.9 8.04999 7.5
      vertex -36.3858 8.04999 13
      vertex -24.9 8.04999 13
    endloop
  endfacet
  facet normal 0 1 0
    outer loop
      vertex -24.9 8.04999 7.5
      vertex -36.3858 8.04999 0.2
      vertex -36.3858 8.04999 13
    endloop
  endfacet
  facet normal 0 1 0
    outer loop
      vertex -24.1 8.04999 7.5
      vertex -36.3858 8.04999 0.2
      vertex -24.9 8.04999 7.5
    endloop
  endfacet
  facet normal 0 1 0
    outer loop
      vertex -19.9 8.04999 13
      vertex -20.25 8.04999 10.8412
      vertex -24.1 8.04999 13
    endloop
  endfacet
  facet normal 0 1 -0
    outer loop
      vertex -19.9 8.04999 7.5
      vertex -20.25 8.04999 10.8412
      vertex -19.9 8.04999 13
    endloop
  endfacet
  facet normal 0 1 0
    outer loop
      vertex -20.25 8.04999 9.15883
      vertex -19.9 8.04999 7.5
      vertex -23.75 8.04999 9.15883
    endloop
  endfacet
  facet normal 0 1 0
    outer loop
      vertex -20.25 8.04999 10.8412
      vertex -19.9 8.04999 7.5
      vertex -20.25 8.04999 9.15883
    endloop
  endfacet
  facet normal 0 1 -0
    outer loop
      vertex -23.75 8.04999 10.8412
      vertex -24.1 8.04999 13
      vertex -20.25 8.04999 10.8412
    endloop
  endfacet
  facet normal 0 1 0
    outer loop
      vertex -24.1 8.04999 7.5
      vertex -23.75 8.04999 10.8412
      vertex -23.75 8.04999 9.15883
    endloop
  endfacet
  facet normal 0 1 0
    outer loop
      vertex -23.75 8.04999 10.8412
      vertex -24.1 8.04999 7.5
      vertex -24.1 8.04999 13
    endloop
  endfacet
  facet normal 0 1 0
    outer loop
      vertex -24.1 8.04999 7.5
      vertex -23.75 8.04999 9.15883
      vertex -19.9 8.04999 7.5
    endloop
  endfacet
  facet normal 0 1 0
    outer loop
      vertex 24.1 8.04999 13
      vertex 23.75 8.04999 10.8412
      vertex 19.9 8.04999 13
    endloop
  endfacet
  facet normal 0 1 -0
    outer loop
      vertex 24.1 8.04999 7.5
      vertex 23.75 8.04999 10.8412
      vertex 24.1 8.04999 13
    endloop
  endfacet
  facet normal 0 1 0
    outer loop
      vertex 23.75 8.04999 9.15883
      vertex 24.1 8.04999 7.5
      vertex 20.25 8.04999 9.15883
    endloop
  endfacet
  facet normal 0 1 0
    outer loop
      vertex 23.75 8.04999 10.8412
      vertex 24.1 8.04999 7.5
      vertex 23.75 8.04999 9.15883
    endloop
  endfacet
  facet normal 0 1 -0
    outer loop
      vertex 20.25 8.04999 10.8412
      vertex 19.9 8.04999 13
      vertex 23.75 8.04999 10.8412
    endloop
  endfacet
  facet normal 0 1 0
    outer loop
      vertex 19.9 8.04999 7.5
      vertex 20.25 8.04999 10.8412
      vertex 20.25 8.04999 9.15883
    endloop
  endfacet
  facet normal 0 1 0
    outer loop
      vertex 20.25 8.04999 10.8412
      vertex 19.9 8.04999 7.5
      vertex 19.9 8.04999 13
    endloop
  endfacet
  facet normal 0 1 0
    outer loop
      vertex 19.9 8.04999 7.5
      vertex 20.25 8.04999 9.15883
      vertex 24.1 8.04999 7.5
    endloop
  endfacet
  facet normal 0.707106 0.707107 -0
    outer loop
      vertex 44.4358 0 0.2
      vertex 36.3858 8.04999 13
      vertex 44.4358 0 13
    endloop
  endfacet
  facet normal 0.707106 0.707107 0
    outer loop
      vertex 36.3858 8.04999 13
      vertex 44.4358 0 0.2
      vertex 36.3858 8.04999 0.2
    endloop
  endfacet
  facet normal 1 -0 0
    outer loop
      vertex -24.9 -8.04999 13
      vertex -24.9 -7 7.5
      vertex -24.9 -7 13
    endloop
  endfacet
  facet normal 1 0 0
    outer loop
      vertex -24.9 -7 7.5
      vertex -24.9 -8.04999 13
      vertex -24.9 -8.04999 7.5
    endloop
  endfacet
  facet normal -1 0 0
    outer loop
      vertex -24.1 -8.04999 7.5
      vertex -24.1 -7 13
      vertex -24.1 -7 7.5
    endloop
  endfacet
  facet normal -1 -0 0
    outer loop
      vertex -24.1 -7 13
      vertex -24.1 -8.04999 7.5
      vertex -24.1 -8.04999 13
    endloop
  endfacet
  facet normal -0 0 1
    outer loop
      vertex -24.9 -7 7.5
      vertex -24.1 -8.04999 7.5
      vertex -24.1 -7 7.5
    endloop
  endfacet
  facet normal 0 0 1
    outer loop
      vertex -24.1 -8.04999 7.5
      vertex -24.9 -7 7.5
      vertex -24.9 -8.04999 7.5
    endloop
  endfacet
  facet normal 1 -0 0
    outer loop
      vertex -19.9 -8.04999 13
      vertex -19.9 -7 7.5
      vertex -19.9 -7 13
    endloop
  endfacet
  facet normal 1 0 0
    outer loop
      vertex -19.9 -7 7.5
      vertex -19.9 -8.04999 13
      vertex -19.9 -8.04999 7.5
    endloop
  endfacet
  facet normal -1 0 0
    outer loop
      vertex -19.1 -8.04999 7.5
      vertex -19.1 -7 13
      vertex -19.1 -7 7.5
    endloop
  endfacet
  facet normal -1 -0 0
    outer loop
      vertex -19.1 -7 13
      vertex -19.1 -8.04999 7.5
      vertex -19.1 -8.04999 13
    endloop
  endfacet
  facet normal -0 0 1
    outer loop
      vertex -19.9 -7 7.5
      vertex -19.1 -8.04999 7.5
      vertex -19.1 -7 7.5
    endloop
  endfacet
  facet normal 0 0 1
    outer loop
      vertex -19.1 -8.04999 7.5
      vertex -19.9 -7 7.5
      vertex -19.9 -8.04999 7.5
    endloop
  endfacet
  facet normal 1 -0 0
    outer loop
      vertex 19.1 -8.04999 13
      vertex 19.1 -7 7.5
      vertex 19.1 -7 13
    endloop
  endfacet
  facet normal 1 0 0
    outer loop
      vertex 19.1 -7 7.5
      vertex 19.1 -8.04999 13
      vertex 19.1 -8.04999 7.5
    endloop
  endfacet
  facet normal -1 0 0
    outer loop
      vertex 19.9 -8.04999 7.5
      vertex 19.9 -7 13
      vertex 19.9 -7 7.5
    endloop
  endfacet
  facet normal -1 -0 0
    outer loop
      vertex 19.9 -7 13
      vertex 19.9 -8.04999 7.5
      vertex 19.9 -8.04999 13
    endloop
  endfacet
  facet normal -0 0 1
    outer loop
      vertex 19.1 -7 7.5
      vertex 19.9 -8.04999 7.5
      vertex 19.9 -7 7.5
    endloop
  endfacet
  facet normal 0 0 1
    outer loop
      vertex 19.9 -8.04999 7.5
      vertex 19.1 -7 7.5
      vertex 19.1 -8.04999 7.5
    endloop
  endfacet
  facet normal 1 -0 0
    outer loop
      vertex 24.1 -8.04999 13
      vertex 24.1 -7 7.5
      vertex 24.1 -7 13
    endloop
  endfacet
  facet normal 1 0 0
    outer loop
      vertex 24.1 -7 7.5
      vertex 24.1 -8.04999 13
      vertex 24.1 -8.04999 7.5
    endloop
  endfacet
  facet normal -1 0 0
    outer loop
      vertex 24.9 -8.04999 7.5
      vertex 24.9 -7 13
      vertex 24.9 -7 7.5
    endloop
  endfacet
  facet normal -1 -0 0
    outer loop
      vertex 24.9 -7 13
      vertex 24.9 -8.04999 7.5
      vertex 24.9 -8.04999 13
    endloop
  endfacet
  facet normal -0 0 1
    outer loop
      vertex 24.1 -7 7.5
      vertex 24.9 -8.04999 7.5
      vertex 24.9 -7 7.5
    endloop
  endfacet
  facet normal 0 0 1
    outer loop
      vertex 24.9 -8.04999 7.5
      vertex 24.1 -7 7.5
      vertex 24.1 -8.04999 7.5
    endloop
  endfacet
  facet normal 1 -0 0
    outer loop
      vertex -24.9 7 13
      vertex -24.9 8.04999 7.5
      vertex -24.9 8.04999 13
    endloop
  endfacet
  facet normal 1 0 0
    outer loop
      vertex -24.9 8.04999 7.5
      vertex -24.9 7 13
      vertex -24.9 7 7.5
    endloop
  endfacet
  facet normal -1 0 0
    outer loop
      vertex -24.1 7 7.5
      vertex -24.1 8.04999 13
      vertex -24.1 8.04999 7.5
    endloop
  endfacet
  facet normal -1 -0 0
    outer loop
      vertex -24.1 8.04999 13
      vertex -24.1 7 7.5
      vertex -24.1 7 13
    endloop
  endfacet
  facet normal -0 0 1
    outer loop
      vertex -24.9 8.04999 7.5
      vertex -24.1 7 7.5
      vertex -24.1 8.04999 7.5
    endloop
  endfacet
  facet normal 0 0 1
    outer loop
      vertex -24.1 7 7.5
      vertex -24.9 8.04999 7.5
      vertex -24.9 7 7.5
    endloop
  endfacet
  facet normal 1 -0 0
    outer loop
      vertex -19.9 7 13
      vertex -19.9 8.04999 7.5
      vertex -19.9 8.04999 13
    endloop
  endfacet
  facet normal 1 0 0
    outer loop
      vertex -19.9 8.04999 7.5
      vertex -19.9 7 13
      vertex -19.9 7 7.5
    endloop
  endfacet
  facet normal -1 0 0
    outer loop
      vertex -19.1 7 7.5
      vertex -19.1 8.04999 13
      vertex -19.1 8.04999 7.5
    endloop
  endfacet
  facet normal -1 -0 0
    outer loop
      vertex -19.1 8.04999 13
      vertex -19.1 7 7.5
      vertex -19.1 7 13
    endloop
  endfacet
  facet normal -0 0 1
    outer loop
      vertex -19.9 8.04999 7.5
      vertex -19.1 7 7.5
      vertex -19.1 8.04999 7.5
    endloop
  endfacet
  facet normal 0 0 1
    outer loop
      vertex -19.1 7 7.5
      vertex -19.9 8.04999 7.5
      vertex -19.9 7 7.5
    endloop
  endfacet
  facet normal 1 -0 0
    outer loop
      vertex 19.1 7 13
      vertex 19.1 8.04999 7.5
      vertex 19.1 8.04999 13
    endloop
  endfacet
  facet normal 1 0 0
    outer loop
      vertex 19.1 8.04999 7.5
      vertex 19.1 7 13
      vertex 19.1 7 7.5
    endloop
  endfacet
  facet normal -1 0 0
    outer loop
      vertex 19.9 7 7.5
      vertex 19.9 8.04999 13
      vertex 19.9 8.04999 7.5
    endloop
  endfacet
  facet normal -1 -0 0
    outer loop
      vertex 19.9 8.04999 13
      vertex 19.9 7 7.5
      vertex 19.9 7 13
    endloop
  endfacet
  facet normal -0 0 1
    outer loop
      vertex 19.1 8.04999 7.5
      vertex 19.9 7 7.5
      vertex 19.9 8.04999 7.5
    endloop
  endfacet
  facet normal 0 0 1
    outer loop
      vertex 19.9 7 7.5
      vertex 19.1 8.04999 7.5
      vertex 19.1 7 7.5
    endloop
  endfacet
  facet normal 1 -0 0
    outer loop
      vertex 24.1 7 13
      vertex 24.1 8.04999 7.5
      vertex 24.1 8.04999 13
    endloop
  endfacet
  facet normal 1 0 0
    outer loop
      vertex 24.1 8.04999 7.5
      vertex 24.1 7 13
      vertex 24.1 7 7.5
    endloop
  endfacet
  facet normal -1 0 0
    outer loop
      vertex 24.9 7 7.5
      vertex 24.9 8.04999 13
      vertex 24.9 8.04999 7.5
    endloop
  endfacet
  facet normal -1 -0 0
    outer loop
      vertex 24.9 8.04999 13
      vertex 24.9 7 7.5
      vertex 24.9 7 13
    endloop
  endfacet
  facet normal -0 0 1
    outer loop
      vertex 24.1 8.04999 7.5
      vertex 24.9 7 7.5
      vertex 24.9 8.04999 7.5
    endloop
  endfacet
  facet normal 0 0 1
    outer loop
      vertex 24.9 7 7.5
      vertex 24.1 8.04999 7.5
      vertex 24.1 7 7.5
    endloop
  endfacet
  facet normal 0 1 0
    outer loop
      vertex 36.3858 -7 13
      vertex 24.9 -7 7.5
      vertex 24.9 -7 13
    endloop
  endfacet
  facet normal 0 1 0
    outer loop
      vertex 36.3858 -7 0.799999
      vertex 24.1 -7 7.5
      vertex 24.9 -7 7.5
    endloop
  endfacet
  facet normal 0 1 0
    outer loop
      vertex 24.1 -7 7.5
      vertex 36.3858 -7 0.799999
      vertex 19.9 -7 7.5
    endloop
  endfacet
  facet normal 0 1 0
    outer loop
      vertex 19.9 -7 7.5
      vertex 36.3858 -7 0.799999
      vertex 19.1 -7 7.5
    endloop
  endfacet
  facet normal 0 1 0
    outer loop
      vertex 19.1 -7 7.5
      vertex 36.3858 -7 0.799999
      vertex -19.1 -7 7.5
    endloop
  endfacet
  facet normal 0 1 0
    outer loop
      vertex -36.3858 -7 0.799999
      vertex -19.1 -7 7.5
      vertex 36.3858 -7 0.799999
    endloop
  endfacet
  facet normal 0 1 0
    outer loop
      vertex -19.1 -7 7.5
      vertex -36.3858 -7 0.799999
      vertex -19.9 -7 7.5
    endloop
  endfacet
  facet normal 0 1 0
    outer loop
      vertex -19.9 -7 7.5
      vertex -36.3858 -7 0.799999
      vertex -24.1 -7 7.5
    endloop
  endfacet
  facet normal 0 1 -0
    outer loop
      vertex 36.3858 -7 0.799999
      vertex 24.9 -7 7.5
      vertex 36.3858 -7 13
    endloop
  endfacet
  facet normal 0 1 -0
    outer loop
      vertex 24.1 -7 7.5
      vertex 19.9 -7 13
      vertex 24.1 -7 13
    endloop
  endfacet
  facet normal 0 1 0
    outer loop
      vertex 19.9 -7 13
      vertex 24.1 -7 7.5
      vertex 19.9 -7 7.5
    endloop
  endfacet
  facet normal 0 1 -0
    outer loop
      vertex 19.1 -7 7.5
      vertex -19.1 -7 13
      vertex 19.1 -7 13
    endloop
  endfacet
  facet normal 0 1 0
    outer loop
      vertex -19.1 -7 13
      vertex 19.1 -7 7.5
      vertex -19.1 -7 7.5
    endloop
  endfacet
  facet normal 0 1 -0
    outer loop
      vertex -19.9 -7 7.5
      vertex -24.1 -7 13
      vertex -19.9 -7 13
    endloop
  endfacet
  facet normal 0 1 0
    outer loop
      vertex -24.1 -7 13
      vertex -19.9 -7 7.5
      vertex -24.1 -7 7.5
    endloop
  endfacet
  facet normal 0 1 -0
    outer loop
      vertex -24.9 -7 7.5
      vertex -36.3858 -7 13
      vertex -24.9 -7 13
    endloop
  endfacet
  facet normal 0 1 0
    outer loop
      vertex -24.9 -7 7.5
      vertex -36.3858 -7 0.799999
      vertex -36.3858 -7 13
    endloop
  endfacet
  facet normal 0 1 0
    outer loop
      vertex -24.1 -7 7.5
      vertex -36.3858 -7 0.799999
      vertex -24.9 -7 7.5
    endloop
  endfacet
  facet normal -0.707107 0.707107 0
    outer loop
      vertex 36.3858 -7 0.799999
      vertex 43.3858 0 13
      vertex 43.3858 0 0.799999
    endloop
  endfacet
  facet normal -0.707107 0.707107 0
    outer loop
      vertex 43.3858 0 13
      vertex 36.3858 -7 0.799999
      vertex 36.3858 -7 13
    endloop
  endfacet
  facet normal 0.707107 0.707107 0
    outer loop
      vertex -36.3858 -7 13
      vertex -43.3858 0 0.799999
      vertex -43.3858 0 13
    endloop
  endfacet
  facet normal 0.707107 0.707107 0
    outer loop
      vertex -43.3858 0 0.799999
      vertex -36.3858 -7 13
      vertex -36.3858 -7 0.799999
    endloop
  endfacet
  facet normal 0 0 1
    outer loop
      vertex 36.3858 7 0.799999
      vertex 36.3858 -7 0.799999
      vertex 43.3858 0 0.799999
    endloop
  endfacet
  facet normal -0 0 1
    outer loop
      vertex -36.3858 7 0.799999
      vertex 36.3858 -7 0.799999
      vertex 36.3858 7 0.799999
    endloop
  endfacet
  facet normal 0 0 1
    outer loop
      vertex -36.3858 7 0.799999
      vertex -36.3858 -7 0.799999
      vertex 36.3858 -7 0.799999
    endloop
  endfacet
  facet normal 0 -0 1
    outer loop
      vertex -36.3858 -7 0.799999
      vertex -36.3858 7 0.799999
      vertex -43.3858 0 0.799999
    endloop
  endfacet
  facet normal 0.707107 -0.707107 0
    outer loop
      vertex -43.3858 0 13
      vertex -36.3858 7 0.799999
      vertex -36.3858 7 13
    endloop
  endfacet
  facet normal 0.707107 -0.707107 0
    outer loop
      vertex -36.3858 7 0.799999
      vertex -43.3858 0 13
      vertex -43.3858 0 0.799999
    endloop
  endfacet
  facet normal 0 -1 0
    outer loop
      vertex -36.3858 7 13
      vertex -24.9 7 7.5
      vertex -24.9 7 13
    endloop
  endfacet
  facet normal 0 -1 0
    outer loop
      vertex -36.3858 7 0.799999
      vertex -24.1 7 7.5
      vertex -24.9 7 7.5
    endloop
  endfacet
  facet normal 0 -1 -0
    outer loop
      vertex -24.1 7 7.5
      vertex -36.3858 7 0.799999
      vertex -19.9 7 7.5
    endloop
  endfacet
  facet normal 0 -1 -0
    outer loop
      vertex -19.9 7 7.5
      vertex -36.3858 7 0.799999
      vertex -19.1 7 7.5
    endloop
  endfacet
  facet normal 0 -1 -0
    outer loop
      vertex -19.1 7 7.5
      vertex -36.3858 7 0.799999
      vertex 19.1 7 7.5
    endloop
  endfacet
  facet normal 0 -1 0
    outer loop
      vertex 36.3858 7 0.799999
      vertex 19.1 7 7.5
      vertex -36.3858 7 0.799999
    endloop
  endfacet
  facet normal 0 -1 0
    outer loop
      vertex 19.1 7 7.5
      vertex 36.3858 7 0.799999
      vertex 19.9 7 7.5
    endloop
  endfacet
  facet normal 0 -1 0
    outer loop
      vertex 19.9 7 7.5
      vertex 36.3858 7 0.799999
      vertex 24.1 7 7.5
    endloop
  endfacet
  facet normal 0 -1 0
    outer loop
      vertex -36.3858 7 0.799999
      vertex -24.9 7 7.5
      vertex -36.3858 7 13
    endloop
  endfacet
  facet normal 0 -1 0
    outer loop
      vertex -24.1 7 7.5
      vertex -19.9 7 13
      vertex -24.1 7 13
    endloop
  endfacet
  facet normal 0 -1 -0
    outer loop
      vertex -19.9 7 13
      vertex -24.1 7 7.5
      vertex -19.9 7 7.5
    endloop
  endfacet
  facet normal 0 -1 0
    outer loop
      vertex -19.1 7 7.5
      vertex 19.1 7 13
      vertex -19.1 7 13
    endloop
  endfacet
  facet normal 0 -1 -0
    outer loop
      vertex 19.1 7 13
      vertex -19.1 7 7.5
      vertex 19.1 7 7.5
    endloop
  endfacet
  facet normal 0 -1 0
    outer loop
      vertex 19.9 7 7.5
      vertex 24.1 7 13
      vertex 19.9 7 13
    endloop
  endfacet
  facet normal 0 -1 -0
    outer loop
      vertex 24.1 7 13
      vertex 19.9 7 7.5
      vertex 24.1 7 7.5
    endloop
  endfacet
  facet normal 0 -1 0
    outer loop
      vertex 24.9 7 7.5
      vertex 36.3858 7 13
      vertex 24.9 7 13
    endloop
  endfacet
  facet normal 0 -1 0
    outer loop
      vertex 24.9 7 7.5
      vertex 36.3858 7 0.799999
      vertex 36.3858 7 13
    endloop
  endfacet
  facet normal 0 -1 0
    outer loop
      vertex 24.1 7 7.5
      vertex 36.3858 7 0.799999
      vertex 24.9 7 7.5
    endloop
  endfacet
  facet normal -0.707107 -0.707107 0
    outer loop
      vertex 43.3858 0 0.799999
      vertex 36.3858 7 13
      vertex 36.3858 7 0.799999
    endloop
  endfacet
  facet normal -0.707107 -0.707107 0
    outer loop
      vertex 36.3858 7 13
      vertex 43.3858 0 0.799999
      vertex 43.3858 0 13
    endloop
  endfacet
endsolid OpenSCAD_Model
