solid OpenSCAD_Model
  facet normal 0 0 -1
    outer loop
      vertex 36.3858 8.04999 0
      vertex 44.4358 0 0
      vertex 36.3858 -8.04999 0
    endloop
  endfacet
  facet normal 0 -0 -1
    outer loop
      vertex -36.3858 8.04999 0
      vertex -36.3858 -8.04999 0
      vertex -44.4358 0 0
    endloop
  endfacet
  facet normal -0 -0 -1
    outer loop
      vertex 36.3858 8.04999 0
      vertex 36.3858 -8.04999 0
      vertex -36.3858 8.04999 0
    endloop
  endfacet
  facet normal 0 0 -1
    outer loop
      vertex -36.3858 8.04999 0
      vertex 36.3858 -8.04999 0
      vertex -36.3858 -8.04999 0
    endloop
  endfacet
  facet normal 0 0 1
    outer loop
      vertex 36.3858 -8.04999 0.2
      vertex 44.4358 0 0.2
      vertex 36.3858 8.04999 0.2
    endloop
  endfacet
  facet normal -0 0 1
    outer loop
      vertex -44.4358 0 0.2
      vertex -36.3858 -8.04999 0.2
      vertex -36.3858 8.04999 0.2
    endloop
  endfacet
  facet normal -0 0 1
    outer loop
      vertex -36.3858 8.04999 0.2
      vertex 36.3858 -8.04999 0.2
      vertex 36.3858 8.04999 0.2
    endloop
  endfacet
  facet normal 0 0 1
    outer loop
      vertex -36.3858 -8.04999 0.2
      vertex 36.3858 -8.04999 0.2
      vertex -36.3858 8.04999 0.2
    endloop
  endfacet
  facet normal 0.707106 0.707107 0
    outer loop
      vertex 36.3858 8.04999 0
      vertex 44.4358 0 0.2
      vertex 44.4358 0 0
    endloop
  endfacet
  facet normal 0.707106 0.707107 -0
    outer loop
      vertex 36.3858 8.04999 0
      vertex 36.3858 8.04999 0.2
      vertex 44.4358 0 0.2
    endloop
  endfacet
  facet normal 0 1 0
    outer loop
      vertex -36.3858 8.04999 0
      vertex 36.3858 8.04999 0.2
      vertex 36.3858 8.04999 0
    endloop
  endfacet
  facet normal 0 1 0
    outer loop
      vertex -36.3858 8.04999 0
      vertex -36.3858 8.04999 0.2
      vertex 36.3858 8.04999 0.2
    endloop
  endfacet
  facet normal -0.707106 0.707107 0
    outer loop
      vertex -44.4358 0 0
      vertex -36.3858 8.04999 0.2
      vertex -36.3858 8.04999 0
    endloop
  endfacet
  facet normal -0.707106 0.707107 0
    outer loop
      vertex -44.4358 0 0
      vertex -44.4358 0 0.2
      vertex -36.3858 8.04999 0.2
    endloop
  endfacet
  facet normal -0.707106 -0.707107 0
    outer loop
      vertex -36.3858 -8.04999 0
      vertex -44.4358 0 0.2
      vertex -44.4358 0 0
    endloop
  endfacet
  facet normal -0.707106 -0.707107 0
    outer loop
      vertex -36.3858 -8.04999 0
      vertex -36.3858 -8.04999 0.2
      vertex -44.4358 0 0.2
    endloop
  endfacet
  facet normal 0 -1 0
    outer loop
      vertex 36.3858 -8.04999 0
      vertex -36.3858 -8.04999 0.2
      vertex -36.3858 -8.04999 0
    endloop
  endfacet
  facet normal 0 -1 0
    outer loop
      vertex 36.3858 -8.04999 0
      vertex 36.3858 -8.04999 0.2
      vertex -36.3858 -8.04999 0.2
    endloop
  endfacet
  facet normal 0.707106 -0.707107 0
    outer loop
      vertex 44.4358 0 0
      vertex 36.3858 -8.04999 0.2
      vertex 36.3858 -8.04999 0
    endloop
  endfacet
  facet normal 0.707106 -0.707107 0
    outer loop
      vertex 44.4358 0 0
      vertex 44.4358 0 0.2
      vertex 36.3858 -8.04999 0.2
    endloop
  endfacet
endsolid OpenSCAD_Model
